<mxfile modified="2019-11-12T04:08:57.262Z" host="www.draw.io" agent="Mozilla/5.0 (Windows NT 10.0; Win64; x64) AppleWebKit/537.36 (KHTML, like Gecko) Chrome/80.0.3952.0 Safari/537.36 Edg/80.0.320.5" etag="-jsYOFJiTmLzY7eUu824" version="12.2.3" type="github" pages="1">
  <diagram id="edtNafhOueVqWPZp83Qx" name="Page-1">
    <mxGraphModel dx="2166" dy="1209" grid="1" gridSize="10" guides="1" tooltips="1" connect="1" arrows="1" fold="1" page="1" pageScale="1" pageWidth="827" pageHeight="1169" math="0" shadow="0">
      <root>
        <mxCell id="0"/>
        <mxCell id="1" parent="0"/>
        <mxCell id="b2VupkUFswHgS_7RCgm6-12" value="" style="rounded=1;whiteSpace=wrap;html=1;fontFamily=宋体;fontSize=13;fontStyle=1;strokeColor=#FF3399;" parent="1" vertex="1">
          <mxGeometry x="483.5" y="512.5" width="160" height="97" as="geometry"/>
        </mxCell>
        <mxCell id="b2VupkUFswHgS_7RCgm6-11" value="" style="rounded=1;whiteSpace=wrap;html=1;fontFamily=宋体;fontSize=13;fontStyle=1;strokeColor=#FF3399;" parent="1" vertex="1">
          <mxGeometry x="140" y="512.5" width="160" height="97" as="geometry"/>
        </mxCell>
        <mxCell id="gaeCaFiwkaWdQa8wvfjB-41" value="" style="rounded=1;whiteSpace=wrap;html=1;fontFamily=宋体;fontSize=13;fontStyle=1;strokeColor=#0000CC;dashed=1;dashPattern=1 2;strokeWidth=2;" parent="1" vertex="1">
          <mxGeometry x="262.5" y="734.5" width="255" height="120" as="geometry"/>
        </mxCell>
        <mxCell id="gaeCaFiwkaWdQa8wvfjB-1" value="高温豆粕粉" style="rounded=0;whiteSpace=wrap;html=1;fontStyle=1;fontSize=13;fontFamily=宋体;" parent="1" vertex="1">
          <mxGeometry x="209.5" y="383.5" width="120" height="33" as="geometry"/>
        </mxCell>
        <mxCell id="gaeCaFiwkaWdQa8wvfjB-2" value="高温豆粕粉模型" style="rounded=0;whiteSpace=wrap;html=1;fontStyle=1;fontSize=13;fontFamily=宋体;" parent="1" vertex="1">
          <mxGeometry x="459" y="400" width="120" height="33" as="geometry"/>
        </mxCell>
        <mxCell id="gaeCaFiwkaWdQa8wvfjB-8" style="edgeStyle=orthogonalEdgeStyle;rounded=0;orthogonalLoop=1;jettySize=auto;html=1;entryX=0.5;entryY=0;entryDx=0;entryDy=0;" parent="1" source="gaeCaFiwkaWdQa8wvfjB-3" target="gaeCaFiwkaWdQa8wvfjB-2" edge="1">
          <mxGeometry relative="1" as="geometry">
            <Array as="points">
              <mxPoint x="443" y="360"/>
              <mxPoint x="519" y="360"/>
            </Array>
          </mxGeometry>
        </mxCell>
        <mxCell id="gaeCaFiwkaWdQa8wvfjB-3" value="大豆分离蛋白" style="rounded=1;whiteSpace=wrap;html=1;fontStyle=1;fontSize=13;fontFamily=宋体;fillColor=#ffffff;glass=0;strokeColor=#FF3399;" parent="1" vertex="1">
          <mxGeometry x="425" y="280" width="40" height="53" as="geometry"/>
        </mxCell>
        <mxCell id="7011VS0mWLHFF22Ou8-2-2" style="edgeStyle=orthogonalEdgeStyle;rounded=0;orthogonalLoop=1;jettySize=auto;html=1;entryX=0.5;entryY=0;entryDx=0;entryDy=0;" parent="1" source="gaeCaFiwkaWdQa8wvfjB-4" target="gaeCaFiwkaWdQa8wvfjB-2" edge="1">
          <mxGeometry relative="1" as="geometry">
            <Array as="points">
              <mxPoint x="495" y="360"/>
              <mxPoint x="519" y="360"/>
            </Array>
          </mxGeometry>
        </mxCell>
        <mxCell id="gaeCaFiwkaWdQa8wvfjB-4" value="蔗 糖" style="rounded=1;whiteSpace=wrap;html=1;fontStyle=1;fontSize=13;fontFamily=宋体;fillColor=#ffffff;glass=0;strokeColor=#FF3399;" parent="1" vertex="1">
          <mxGeometry x="474.5" y="280" width="40" height="53" as="geometry"/>
        </mxCell>
        <mxCell id="7011VS0mWLHFF22Ou8-2-3" style="edgeStyle=orthogonalEdgeStyle;rounded=0;orthogonalLoop=1;jettySize=auto;html=1;" parent="1" source="gaeCaFiwkaWdQa8wvfjB-15" edge="1">
          <mxGeometry relative="1" as="geometry">
            <mxPoint x="520" y="400.0000000000001" as="targetPoint"/>
            <Array as="points">
              <mxPoint x="550" y="360"/>
              <mxPoint x="520" y="360"/>
            </Array>
          </mxGeometry>
        </mxCell>
        <mxCell id="gaeCaFiwkaWdQa8wvfjB-15" value="葡 萄 糖" style="rounded=1;whiteSpace=wrap;html=1;glass=0;horizontal=1;fontStyle=1;fontSize=13;fontFamily=宋体;fillColor=#ffffff;strokeColor=#FF3399;" parent="1" vertex="1">
          <mxGeometry x="530" y="280" width="40" height="53" as="geometry"/>
        </mxCell>
        <mxCell id="7011VS0mWLHFF22Ou8-2-4" style="edgeStyle=orthogonalEdgeStyle;rounded=0;orthogonalLoop=1;jettySize=auto;html=1;" parent="1" source="gaeCaFiwkaWdQa8wvfjB-17" target="gaeCaFiwkaWdQa8wvfjB-2" edge="1">
          <mxGeometry relative="1" as="geometry">
            <Array as="points">
              <mxPoint x="600" y="360"/>
              <mxPoint x="519" y="360"/>
            </Array>
          </mxGeometry>
        </mxCell>
        <mxCell id="gaeCaFiwkaWdQa8wvfjB-17" value="纤维素" style="rounded=1;whiteSpace=wrap;html=1;fontStyle=1;fontSize=13;fontFamily=宋体;fillColor=#ffffff;strokeColor=#FF3399;" parent="1" vertex="1">
          <mxGeometry x="580" y="280" width="40" height="53" as="geometry"/>
        </mxCell>
        <mxCell id="b2VupkUFswHgS_7RCgm6-7" style="edgeStyle=orthogonalEdgeStyle;rounded=0;orthogonalLoop=1;jettySize=auto;html=1;entryX=1;entryY=0.5;entryDx=0;entryDy=0;" parent="1" source="gaeCaFiwkaWdQa8wvfjB-20" target="gaeCaFiwkaWdQa8wvfjB-55" edge="1">
          <mxGeometry relative="1" as="geometry">
            <Array as="points">
              <mxPoint x="300" y="561"/>
              <mxPoint x="300" y="543"/>
            </Array>
          </mxGeometry>
        </mxCell>
        <mxCell id="b2VupkUFswHgS_7RCgm6-9" style="edgeStyle=orthogonalEdgeStyle;rounded=0;orthogonalLoop=1;jettySize=auto;html=1;entryX=0;entryY=0.5;entryDx=0;entryDy=0;" parent="1" source="gaeCaFiwkaWdQa8wvfjB-20" target="gaeCaFiwkaWdQa8wvfjB-58" edge="1">
          <mxGeometry relative="1" as="geometry"/>
        </mxCell>
        <mxCell id="b2VupkUFswHgS_7RCgm6-10" style="edgeStyle=orthogonalEdgeStyle;rounded=0;orthogonalLoop=1;jettySize=auto;html=1;entryX=0;entryY=0.5;entryDx=0;entryDy=0;" parent="1" source="gaeCaFiwkaWdQa8wvfjB-20" target="gaeCaFiwkaWdQa8wvfjB-56" edge="1">
          <mxGeometry relative="1" as="geometry"/>
        </mxCell>
        <mxCell id="b2VupkUFswHgS_7RCgm6-17" style="edgeStyle=orthogonalEdgeStyle;rounded=0;orthogonalLoop=1;jettySize=auto;html=1;entryX=1;entryY=0.5;entryDx=0;entryDy=0;" parent="1" source="gaeCaFiwkaWdQa8wvfjB-20" target="gaeCaFiwkaWdQa8wvfjB-57" edge="1">
          <mxGeometry relative="1" as="geometry">
            <Array as="points">
              <mxPoint x="300" y="561"/>
              <mxPoint x="300" y="580"/>
            </Array>
          </mxGeometry>
        </mxCell>
        <mxCell id="gaeCaFiwkaWdQa8wvfjB-20" value="热化学改性高温豆粕粉" style="rounded=1;whiteSpace=wrap;html=1;fontFamily=宋体;fontStyle=1;fontSize=13;strokeColor=#000066;" parent="1" vertex="1">
          <mxGeometry x="320" y="536" width="140" height="50" as="geometry"/>
        </mxCell>
        <mxCell id="gaeCaFiwkaWdQa8wvfjB-21" value="" style="endArrow=none;html=1;" parent="1" edge="1">
          <mxGeometry width="50" height="50" relative="1" as="geometry">
            <mxPoint x="267.5" y="480" as="sourcePoint"/>
            <mxPoint x="517.5" y="480" as="targetPoint"/>
          </mxGeometry>
        </mxCell>
        <mxCell id="gaeCaFiwkaWdQa8wvfjB-24" value="" style="endArrow=none;html=1;entryX=0.5;entryY=1;entryDx=0;entryDy=0;" parent="1" target="gaeCaFiwkaWdQa8wvfjB-1" edge="1">
          <mxGeometry width="50" height="50" relative="1" as="geometry">
            <mxPoint x="268.5" y="480" as="sourcePoint"/>
            <mxPoint x="318.5" y="470" as="targetPoint"/>
          </mxGeometry>
        </mxCell>
        <mxCell id="gaeCaFiwkaWdQa8wvfjB-25" value="" style="endArrow=none;html=1;entryX=0.5;entryY=1;entryDx=0;entryDy=0;" parent="1" target="gaeCaFiwkaWdQa8wvfjB-2" edge="1">
          <mxGeometry width="50" height="50" relative="1" as="geometry">
            <mxPoint x="518.5" y="480" as="sourcePoint"/>
            <mxPoint x="518.5" y="420" as="targetPoint"/>
          </mxGeometry>
        </mxCell>
        <mxCell id="gaeCaFiwkaWdQa8wvfjB-70" style="edgeStyle=orthogonalEdgeStyle;rounded=0;orthogonalLoop=1;jettySize=auto;html=1;" parent="1" target="gaeCaFiwkaWdQa8wvfjB-45" edge="1">
          <mxGeometry relative="1" as="geometry">
            <Array as="points">
              <mxPoint x="390" y="695.5"/>
              <mxPoint x="440" y="695.5"/>
            </Array>
            <mxPoint x="390" y="660" as="sourcePoint"/>
          </mxGeometry>
        </mxCell>
        <mxCell id="gaeCaFiwkaWdQa8wvfjB-71" style="edgeStyle=orthogonalEdgeStyle;rounded=0;orthogonalLoop=1;jettySize=auto;html=1;" parent="1" target="gaeCaFiwkaWdQa8wvfjB-44" edge="1">
          <mxGeometry relative="1" as="geometry">
            <mxPoint x="390" y="660" as="sourcePoint"/>
          </mxGeometry>
        </mxCell>
        <mxCell id="gaeCaFiwkaWdQa8wvfjB-72" style="edgeStyle=orthogonalEdgeStyle;rounded=0;orthogonalLoop=1;jettySize=auto;html=1;" parent="1" target="gaeCaFiwkaWdQa8wvfjB-43" edge="1">
          <mxGeometry relative="1" as="geometry">
            <Array as="points">
              <mxPoint x="390" y="695.5"/>
              <mxPoint x="345" y="695.5"/>
            </Array>
            <mxPoint x="390" y="660" as="sourcePoint"/>
          </mxGeometry>
        </mxCell>
        <mxCell id="gaeCaFiwkaWdQa8wvfjB-73" style="edgeStyle=orthogonalEdgeStyle;rounded=0;orthogonalLoop=1;jettySize=auto;html=1;" parent="1" target="gaeCaFiwkaWdQa8wvfjB-42" edge="1">
          <mxGeometry relative="1" as="geometry">
            <Array as="points">
              <mxPoint x="390" y="695.5"/>
              <mxPoint x="297" y="695.5"/>
            </Array>
            <mxPoint x="390" y="660" as="sourcePoint"/>
          </mxGeometry>
        </mxCell>
        <mxCell id="gaeCaFiwkaWdQa8wvfjB-74" style="edgeStyle=orthogonalEdgeStyle;rounded=0;orthogonalLoop=1;jettySize=auto;html=1;" parent="1" target="gaeCaFiwkaWdQa8wvfjB-46" edge="1">
          <mxGeometry relative="1" as="geometry">
            <Array as="points">
              <mxPoint x="390" y="695.5"/>
              <mxPoint x="487" y="695.5"/>
            </Array>
            <mxPoint x="390" y="660" as="sourcePoint"/>
          </mxGeometry>
        </mxCell>
        <mxCell id="gaeCaFiwkaWdQa8wvfjB-34" value="高温豆粕粉胶粘剂" style="rounded=1;whiteSpace=wrap;html=1;fontFamily=宋体;fontStyle=1;fontSize=13;strokeColor=#000066;" parent="1" vertex="1">
          <mxGeometry x="330" y="640" width="120" height="33" as="geometry"/>
        </mxCell>
        <mxCell id="gaeCaFiwkaWdQa8wvfjB-40" value="+EMPA" style="text;html=1;resizable=0;points=[];autosize=1;align=left;verticalAlign=top;spacingTop=-4;fontFamily=Times New Roman;" parent="1" vertex="1">
          <mxGeometry x="395" y="599.5" width="50" height="20" as="geometry"/>
        </mxCell>
        <mxCell id="gaeCaFiwkaWdQa8wvfjB-42" value="渗透特性" style="rounded=0;whiteSpace=wrap;html=1;fontStyle=1;fontSize=13;fontFamily=宋体;" parent="1" vertex="1">
          <mxGeometry x="282.5" y="744.5" width="30" height="100" as="geometry"/>
        </mxCell>
        <mxCell id="gaeCaFiwkaWdQa8wvfjB-43" value="胶接性能" style="rounded=0;whiteSpace=wrap;html=1;fontStyle=1;fontSize=13;fontFamily=宋体;" parent="1" vertex="1">
          <mxGeometry x="330" y="744.5" width="30" height="100" as="geometry"/>
        </mxCell>
        <mxCell id="gaeCaFiwkaWdQa8wvfjB-44" value="固化结构" style="rounded=0;whiteSpace=wrap;html=1;fontStyle=1;fontSize=13;fontFamily=宋体;" parent="1" vertex="1">
          <mxGeometry x="375" y="744.5" width="30" height="100" as="geometry"/>
        </mxCell>
        <mxCell id="gaeCaFiwkaWdQa8wvfjB-45" value="耐水特性" style="rounded=0;whiteSpace=wrap;html=1;fontStyle=1;fontSize=13;fontFamily=宋体;" parent="1" vertex="1">
          <mxGeometry x="425" y="744.5" width="30" height="100" as="geometry"/>
        </mxCell>
        <mxCell id="gaeCaFiwkaWdQa8wvfjB-46" value="胶层形貌" style="rounded=0;whiteSpace=wrap;html=1;fontStyle=1;fontSize=13;fontFamily=宋体;" parent="1" vertex="1">
          <mxGeometry x="472.5" y="744.5" width="30" height="100" as="geometry"/>
        </mxCell>
        <mxCell id="gaeCaFiwkaWdQa8wvfjB-55" value="功能基分析" style="rounded=1;whiteSpace=wrap;html=1;fontFamily=宋体;fontStyle=1;fontSize=13;strokeColor=#FF3399;" parent="1" vertex="1">
          <mxGeometry x="147.5" y="528" width="120" height="30" as="geometry"/>
        </mxCell>
        <mxCell id="gaeCaFiwkaWdQa8wvfjB-56" value="&lt;font face=&quot;宋体&quot; style=&quot;font-size: 13px;&quot;&gt;反应活性分析&lt;/font&gt;" style="rounded=1;whiteSpace=wrap;html=1;fontStyle=1;fontSize=13;fontFamily=宋体;strokeColor=#FF3399;" parent="1" vertex="1">
          <mxGeometry x="508" y="564.5" width="120" height="30" as="geometry"/>
        </mxCell>
        <mxCell id="gaeCaFiwkaWdQa8wvfjB-57" value="结晶度分析" style="rounded=1;whiteSpace=wrap;html=1;fontFamily=宋体;fontStyle=1;fontSize=13;strokeColor=#FF3399;" parent="1" vertex="1">
          <mxGeometry x="147.5" y="564.5" width="120" height="30" as="geometry"/>
        </mxCell>
        <mxCell id="gaeCaFiwkaWdQa8wvfjB-58" value="微观形态分析" style="rounded=1;whiteSpace=wrap;html=1;fontFamily=宋体;fontStyle=1;fontSize=13;strokeColor=#FF3399;" parent="1" vertex="1">
          <mxGeometry x="508" y="528" width="120" height="30" as="geometry"/>
        </mxCell>
        <mxCell id="gaeCaFiwkaWdQa8wvfjB-63" value="热化学改性对大豆胶粘剂结构与性能的作用机理" style="rounded=0;whiteSpace=wrap;html=1;fontStyle=1;fontSize=13;fontFamily=宋体;strokeColor=#0000cc;fillColor=#c2d69b;strokeWidth=2;" parent="1" vertex="1">
          <mxGeometry x="243.5" y="899.5" width="293" height="60" as="geometry"/>
        </mxCell>
        <mxCell id="b2VupkUFswHgS_7RCgm6-3" style="edgeStyle=orthogonalEdgeStyle;rounded=0;orthogonalLoop=1;jettySize=auto;html=1;entryX=0.5;entryY=0;entryDx=0;entryDy=0;" parent="1" source="b2VupkUFswHgS_7RCgm6-2" target="gaeCaFiwkaWdQa8wvfjB-1" edge="1">
          <mxGeometry relative="1" as="geometry"/>
        </mxCell>
        <mxCell id="b2VupkUFswHgS_7RCgm6-4" value="粉碎" style="text;html=1;resizable=0;points=[];align=center;verticalAlign=middle;labelBackgroundColor=#ffffff;fontStyle=1;fontSize=13;fontFamily=宋体;" parent="b2VupkUFswHgS_7RCgm6-3" vertex="1" connectable="0">
          <mxGeometry x="-0.0029" y="7" relative="1" as="geometry">
            <mxPoint x="-27" y="8" as="offset"/>
          </mxGeometry>
        </mxCell>
        <mxCell id="b2VupkUFswHgS_7RCgm6-2" value="高温豆粕" style="rounded=0;whiteSpace=wrap;html=1;fontStyle=1;fontSize=13;fontFamily=宋体;" parent="1" vertex="1">
          <mxGeometry x="209.5" y="269" width="120" height="33" as="geometry"/>
        </mxCell>
        <mxCell id="YbGR8QRvvaodPsiYNmc9-4" value="" style="shape=image;verticalLabelPosition=bottom;labelBackgroundColor=#ffffff;verticalAlign=top;aspect=fixed;imageAspect=0;image=data:image/jpeg,/9j/4AAQSkZJRgABAQEAYABgAAD/2wBDAAgGBgcGBQgHBwcJCQgKDBQNDAsLDBkSEw8UHRofHh0aHBwgJC4nICIsIxwcKDcpLDAxNDQ0Hyc5PTgyPC4zNDL/2wBDAQkJCQwLDBgNDRgyIRwhMjIyMjIyMjIyMjIyMjIyMjIyMjIyMjIyMjIyMjIyMjIyMjIyMjIyMjIyMjIyMjIyMjL/wgARCADrAUADASIAAhEBAxEB/8QAGgAAAgMBAQAAAAAAAAAAAAAAAwQAAQIFBv/EABkBAQEBAQEBAAAAAAAAAAAAAAEAAgMEBf/aAAwDAQACEAMQAAAB9zJNYuSTckKXV1LqxkkqSVV1cKpJUq6mTOc24szMq61mVdVUkqpI1SSql1EqRqkqmLq0kkq5IMupV3UK5Um6rGUuUluHTpLKA4dHU71x1q1tSJtTVPm5E3nv7831PTyfrN+nldXTSpIlSVM3TSrpGLqVckq5VjJIUvGMaKFDHm6sLzPm6TNLGraCQgMKNUmaxtmocQDaFST+ITz/ABtdefdnHd9XJuVPRzlSJKkqpKZmVaXJCklDlWK+TuZYO/N10MZMuNr2OthlEzbaLBxgc20REWAlEYDillhZ0FC5FDVYWTrM8nfbHW0k37OOpU6YlSMxdXolSstpI48PoIs0Hz9dDItGXE8qdRg+Hk9SLat1tVia1WZoYa0YZzYg3YSaCREWRlooRWk6AMyHdJb0dnabPv8AOTMnbmxcy1pVzPH3Zxm/P0sRExZWd3S+dJZ0/moU4nZmxiAyVE5DWnrDUEC5x9E1zu3wGtZIsybKjTNYWuX0hbyO6EJ5kQOso3vPctYv0fM2La9Igsng9JMBwLSWrI9ZWrcXILRwbjS2Dqnrscple0mTMvW7IVL61MqQhusTcLOieRMoGcy1so6Hld1mMILdE6/nX+/PtQifs4DU1PD6F6FnKfdjzoRCMUDDWIpc1EperXWNardpu50MaTyYXJnYXa1C0vnAk6POw5OTey5r6TUhU6AUGwg4Q+sg3vPc5nQH7fPyrMt4fQs3ipDuPlzXAWLA6Xi8GYZYhlhxBsZd89wezMZsl1XANQ8i02yuSDaHMOxZFJj7BGGCJELepoV7nPPo9OGw+7zLIso+D045/YUV/KrQAYAEugi1uqiwxLUaLGx6LeU63FtUmUBcHlJoDuhWdLmproBQItJdRVN4IQWycon8HtF28dTpjprNT6Hl5qXY5fi7jXD0OXVfZMAUVbpI42ZUYmqUZrdZwKEUC7RprAtQFzSE10kDoqPEmuf0W9gBnDVWeZtK9ZCBNZOxHsu+vgxJn08lRdCuG+ZTXN8/WgQ3LcSzzZ68V6daa5F6OqrznMyvQ5fUyqZaUp1lAlRFnM9Ffm71ZK3MKBSUnOZwHUU4S1gWi10Olyu16eCpr135s1nfTF41gVVnM+fqqn2s89cFX0o65O2RebqtDrMB/C9MVBw8mbnT0wl5uXpLhIxArODF4bVzGmsVRhNAFi97zi3a688OjvvhXaXVh3Op6OYoS8szqmzWplxkymEQDj83VKPaxvlNahLZeUxpdkZqFz3N5eWZkzYWebc80PWoU9lK2AP325qkbY7YTMS+mAHETRnVzeWJV6JJBmN1NXdFMKN8t6Ae95UX6cyiUeAKAXGvP15VnY5a5c7Fdcc2+vfbCbPL3z0wNpYqy4TeUC7Jqu7W65Ykm8SroqkpP//EACsQAAICAgICAQMEAgMBAAAAAAECAxEAEhMhBCIxECMyFCAwQSRAM0JQBf/aAAgBAQABBQL/ANyxm64k8bn/AMC8LqMM3s0hGGRthha85S0gkwTmudaDA/7ZYDHm65CwOJ0WJsgKrEBVG4B7F7clG/RZrWObAwOX/rGQDGc45OqteE9nyDqH2RJV2rBySyusm8T3LJtbq1lzAkWwYHURyaESDL/0jhegZNjvWM5oG8jVWPDchNZG9iSRYplBOdRNZlUjjj4SVvXFGwVXuipPR9s5HTFltf5mbUCe85S2SSqq1g7IbuRwuMjiNfshAyQicMqauzy6yzmAgawqYY/IfkGxsFYFDxyCTCAyxtbdjG7UYkucgz5H8bv0fWMHG0GE4TFGJGKQrDq++Qxvwsq1HAFZ5VbyB4oGLApOvrDKA+nKnFuaZMXVkHx/ZY79ahnWQ/grdCTVLsfwf1JLWOxs9HbUyK+sQ0z7WM3TT6iN5maOMokkgMdGGDduOOOT9MoyVl1AidVAJMjmU+R6SHSIzhkJrIyUKv0rbC/awTeB/ZWvLv8AddCSV3JNZ8C149qLM7uUaIsoqIkq4yljxpJBDGscUbxFpWYIVh0WWU6R+FEo8n8Y1jvZLht01GARDNaLRK2a7BoyMPbMayORZMXrEOdH90jjcimB2LGxxx0bSNJRbPyxB+3lBUewfXk8l18goiiMcKRFNsnkqLVdFmVU5Jp0YvxeOSo2GT/lDEqyiIxYhkoDYSeNcpCuVBQtpycrbDYYrXn9fQmgXbVmJyix73V7BdSygaoFhjmG4VFZkWsddm42Iig1eOQ/qJ+jL5TSx+F4h4dmbypy2vjGjITHFFCvmKlJJenkaryK67a1g1LiWPmm12EieQpRWRAGBFBW6RrxjWf3IaDbMeP3WtpCuaLX6VEdZBRrRH3yt5S/sAq4y7qS2Ry28kySxwhw8TUvGqySeOA6Qx768gMio0kf+SmnlK0TEyySxMFWCPbeQKrSRXcUKB6sgoJA+N3kHRU3jNqJPeMtxAn1a0hQyHI/ld3lKSF/JnV0iCsODkwsvjYG2EWxcxRK9IQeOCSYKE42rjbGKZA5BH+IPI2K8qGFeQtodi8iyqd1Qf5ZFSWoENQ+O/kSQLa5G0qSsAS0Z3S7ddlVaEyLlLhDDPyLNooe1kuZ/wBOiRpsuGXYMi6lljVI1293yacqim4/trn6pAsUwkWNFL8EPLJLLypMjuEg53lAcw88JLNm1CU7ykNvOGbFA1m9maxKxkGJW6Jq0VIv9E4SzZrkku7QHduisQCuuqtsBgzRRj9DVVEq9RnUcYyVOSMwbCQLKqxsFh/4qExrbynjjk8hfHHjJIYt1HLHu0MjShp2kcmT/j1XyR+LO54G9gZdMCLmt5EvZFgrGMYChsVXxux1lNFmyhQjA0SVNR+zlhu8qdRqSpW3lphKysDGjZ5X22iSRwI2/UhnR95W8uIb+S/kF55Ak3j+KkUQmZZcSOPYGRjJIiKrBhKraiTkIpoolYIfUQTk5HP6s2o/KOUABN91/JvZopEnVWGMzCXZq1+1I0hkj6LIrsPt4xLv/wBxApjTxqMsYUQuzQhu5oiYVvSR4/EzxhHtIkrh5pIogIynuJG0Eiwq2SnVo5iywqDijSQ8wCtJfe6kFzQw6vjIwJk9pFdmSQSNGuiFjcw9Vl2GzIHfkP2oy0ojZvI5URdh+K3ygNeGSPIMnSPjhYQRjyI0l5oUld1Cw8u8jl4YTtGskbBKohxEzA5rUcfLgbvlKns4lrnFbNHvjpQ29UAZhOC36QIGLZyCpFklARkkdGcAaRyKSRFtIEBIWsJ1X1UN6PwsWhjYY6tIDFHQRVM0QpIVSEdCJRN46yQ27QRmHzblklbVJI9pQgUx1FybsoGBwuJ+SbAfGOjMWi2TXSQR6yy8gm7ZkPbmwJAEVhlkgxswX1R5WHkWWL6149V5L+pjjWNFolbdVHIwCRSb5C4lj8lZd1iPN5MMSp4oYZwp4rzO3kQokcSRu3L5E1Qaoiou8YCbwm405Apr6WtMmok5GJOwDKY9rWmzRSuqYFss5B01TxxyBAqCatuY8ayHYXUSNbFhPxh0nnACbRxekKzGSTJI2dUYMNljySQSqqOsrCY40UZxY6h9gfyAjCZH9wfVkrG7xVU49LmqjFYCHXVfxVtr2QSMwTNVcR0ECCTHdeUKpBiyWZJMU90FILKAak9QskUU2OhbIYY1eb2kGsMJZiVdUI8i2hDsJfJKPDI+JlWEUWy7fQi/rJ1j+2CRGxwKkclQxkIWRZIUWvIHTEmIS8belRLu/SijnEq40ex02M7mN/KRTHzLP4sMto6b5xGlZfIjlpRC28fE4ZY4pBI7PHN44kVQ+sP0JAy/2fGON84ugAuOu510VIqCAuNtIo+SQM2xWMYvrisgdmt/hpmXcepFuXrjjidMmpMiQHC65N/9Bo0VwPH8NyU49ihzYGaT3amwrxNxocHxJttF3ld4es2DYY6xC1UMKYI8aLAnYGVrGm2UuVKx0jiKIwLnZlLfqPUZDscjCkjyGeEFjimOuVmwQLu4ULpxIwGoFZAy4OiItskF5YCad+QZRMvxh6DewVK+lYfhR1/bfGNYxgQewEXtfhbsSatt3IBoyEM+zZHoTylCirxjxUI07CEGy+catjJsqp21lVi1zas+QI6Oag/wXg+hUk/GSPWKNsaGxx5xHKrLBYdtrjuyTkLJixhHmraOOwY84/Y4FPIOmUWFoRiwn9FQcHQG933+8nuvqPmsaMHETUySOr/012yk4YGIHQPwnYVWXBFjQ65FVEgZ2HZfYISGi9bGKmLdfzsfdcPx9K+j5fufj/vn9KBVdEdVRPbr+J/I9IPhlFp8Zf3f3f/EACQRAAIBBAICAgMBAAAAAAAAAAABEQIQICESMQMwQVETIkBh/9oACAEDAQE/AfVA01/AvGxeNChX4JlXjj1wLxi9DoTH449FFP2JR6EO7oQ1GNFEd++Bq9FGT6tJFvknBDUjQhYTbqz36q6Z2JSU6Jxi79NXRToTu7SLeUbvN2kymCnoTx6tFowmcKmJwUPPeHeUlVX3ZVFKnYrMjKMUeR7G33dVfR+Q57JvOHwRokY2KrcD/wBG/wBbTek+TmcronZy2TblodbHUOcogmDl9lPY6oJF5B1ScZ2JjrY6hbw//8QAJxEAAgEEAgEEAwADAAAAAAAAAAERAgMQIRIxIAQTQWEiMFEjMnH/2gAIAQIBAT8B/VyQq1V1+91QVeoXwVXqmNtn0SK9Ui36hPsn9TrSKvUfwqcs3E434Syi7VSUX0+xedy65/EdTq7xGjbEpGLD6FsWKLzWiitPwbLl+esaJFoZrCzqMQMTKK5w9F278eHQmU9ydHA+RoYsKcMpqhlFUqSvppDjE4jeIkaESQUyI+BnwQQWrjo0VtUsr25I+SNk6x2SN5X2Qj7F4255Fz8tDW4Pgj+5gq1hE/AnA/6L/UkUEfOOxNrorbjoqjloaR/wgkk7wnoiGcljXY1Jw494ak0W6ZZVTJdpXZOh4ggg1nslLWOUKDk8SQWra7Qx2StwuIzixYfiz68Kno9OtQKlRxwx20+z2T2nA6WiccYIGhG5J3s1AhUjt6llCjopX+R4jc41JXKWiNHtt9HB4ZvHFtSJNY4bkps0sVDKYXg1imrkxpPR7etFa0U0JpkHs7KbUHucZSLi0vsVlFNuHsb4wvD/xAA5EAABAwIFAgQEBQIFBQAAAAABAAIREiEDIjFBUTJhEBNxgSBCUqEjMGKRsUCCM1DB4fEEFHKS0f/aAAgBAQAGPwL/ADzVaqAb/wCR208B/CNxKNxZQBI5CMFcrNZa/wBZYKTbwimysu+6i7uyMilvCJupA2QFIBddQcMn/VCNFmVv6myO3gHRlU/NqvLF3alTKv8A4fyxuqg6G8J7JsiGNkqQ5Z5Llyx20aKygf01zZcoeDiE4AzNygXWhXdtqoDbu1K55lYn1G4EoEupd8zF+IYcUD80coxr8yJrrapLoX8hVKFYSF3/AD58Csy7I5rqGBzo3UOOqDcDICU5xuqsZzZ1hE4eHLF5hGY7cJtOb6lLjLvlaCqyQMVvUdVWZiP3RaxxDWWPqnU5v0rExMN1MpzXxKn7qlEuVlPjb8wq6AKzxddlTyogg8NWI573OvarZYkNJjug14g8SodZVE+gX4biatQq26oqmjKnMcA2lFwcDJ2TomrRDDOo3RNMxutIUH903duiM6ItLDTz4ei5/LgINBuhJJQ6j6IwJnnZClkuPU6bKRqjTp9SqZNQ1C8ynJibLzCZxHalAteA5xhsrEc53eFkbDvTdAYrqrXCGoUE+yjGb3hRgAMt7Iljxl+XlBzsPN9KytPspDrFAnphOLtNlXXPhaFMUnw1/Jp28TCDuNuVTcSsRweY0goB0PLRadlTDRHVCLnN9kMTFdm4Ch/S7jVNyNDm29FNVU/I7RUXZ3bupY0zrBKimC7RNeesLM3JrUNQoLZY4J8YfTaIRpzNeNZR1zDRHy5iejZNNgjyOUKsJvoFTo37pjx/cFa4X6gu/hPxUr/VVN00V4WYQ07KGCeEGgFztZ2XT+6ykd0KBU7hEV5uUHCDG7tkWh0tm8JrapQcPWVU6kMGhVQeQOBdZ3SpeQCvNNg3YXTcWmHREcJ3nPuO+qC/uHssRtUhuydEv9UMgbGndBBzXuEHVXKDCZGxUGxQaYV9EBNvhNSyugrM72UmwanEfumstdO1hNCa0dR3GyjQq1XryhSyot9lFmhE6ACypZhmjQuKuSxn2RwW5/1BYb3HO02WIQRlyhiiloZrfWUBbMNBunOeBbXui7GBmE3BbiaBQ8ikjKiIAEaogcqG6BQNU7B3ai9rczVDepaZovCqG2q3hyCn4DKb9I8Lm65RxJjsp0TqooWRtDFw1uqpAGbphXPui36tFAxmloCviWw3S4AaofMDeOVS3CpadS5EDZYjta/5QLiXDW6rDbtCd52ZswYQaxsTunYuFFYbpyroOY4FzeoJsYc1C6aA6eVSQBTma5Vke6e2mIOqc8bqm/ZFt6v5VHCgK5VvEybqy7hA4kBYj8x2XTlGsrNFP3Rw2aqprahyvXfhZjropKMvlosmNptNwoDRCzNkO/YLr/3Tc8J8mv8ATGiDXXBF0cNhseguTy/ErrM0hu6ljJAR8rq43Ry0U/dDEDaMQ9Sa0gbqKS1yxGuyx9/AgHNwvwi4hSQ2PuvVBroLShQqmvvuFZQo8ITjupPKm4uoqvN5Qw/Mgfp1RaJJ+pU6CEQ10eiiFSJPosuKWPdsnQdPmhThxZ0FF2KhiuGykyB3CdiMO8LzC408IuPSLiEPKwoa4wXFeW+z0W2OI3NPCI4GZC5DhdN6iDwpQhjy/wCqNFmIIVXHCgIUg/8Aqh9X8oYlLXDsnI6eynwsjLtEbjssvuUYKv07r/yR5R7q4VrLqUnqcskC6dV83SnKkWkapuI519YWXfUIu0fpCIc73Rw2kCjWFhuAztmpVbsbovMBNT7OEoaNxI6lTgucDyqobMLDuI190AyI5WsFNBJEfdATAQdpdNGIZcpf0kxZVG5VnGFmKhGlRpyonXRU1w3+VGE2w3KxKnS35eyY+m/Ck7lZhdZjor2CI+VZb4ndS/7IbUr0TaZbumR0hN8l2fhqk27p0XZ9PdYlrxJhNbhtyltz2X/UBzssC4X/AGzoPcIdrlHEZIZ9lhup9HcKgtDpzyoDYH1BFpxPVyGWgayhADo5T8OnThEaQiONzcImZbonSz/dDL4cK1ynzpsqiRSpD4AXKyM0Rc7RXabaFSdSgCYbwqrFuyD9xZe6PbRfW4W9FdxhTUYKOM1twENE68AbokOg9t0YmkmBHCAY2ou1DVU0GZNynDDaHDdYQe2k9PYI4WG4WQMQAi5pfzY2UvHVup1a1irc2ESRFShp02IT2CI1WbDERsojKrWV/Dsg2dVVGRvyraJuFSGrIqn+vqj2Rdr2Qf8AL/KDpzFazOyIFk2X+qLvlKEdMeEEg9k4Ihw/5Re46p0AkkI/hmrsNFzOlKdiuaA07BFzmVYescol1DOwUh4PonZXUt4TsuuzUGvc5r+BuicOGR1BVudb9lM1I5THELLILggx225Q/wDiurK6dFuF5XUUY+ZMbNThZWu76VBZSNlUN1YwEG8KRHunE6bI39kSvdNwxaU4RtKDw0evKdLr9lST/cvLebJs34RdCyyCRqmgaJ2EXEgGCvKpsLCyfQ6IvAQwg0sG07+qOEW69TkRMsiCm02tNlf5QjPSw2pKbNiAszhVFlSdFYeGuVZEGztmKmKRueU0sBhZhYKr2HgSiarDRWm+5QZfNq5SZyWXGVfpQE6WRzF0HVb+gVmlX5VliV5atGr2TQ05lWN9lh09K6z3DU8vqsJ6k1oZNd/ZeYW1HlMw/LIDteypxdByi15FI0K/DunYjsOKdYVIdN5HoiXU1RCg2ctvGEe6ku0RhA76Kw7XXStAvL+WJV7FWF5gJznmOQvMI9EcMOiEHVZI1Xlthv0ql9zunNOiqcSSpYJnVGozKe0iNk2sS7dQDSFkLqxpdNOI4S0fKrtHlnUlNYBlp2VOG6f9FBpqNpqXlvtwY1X4skeipsoc314XCroXHwW8NFZGN1TwiCal1baL8PRyJ6ig91kf1IAJ/cqinJpKLSLq14O6a0vbm4UTKlP3zWTMTE0P2QdUPVUuAJF5Caxwd/anO4t6Jri0j5ZTqddboMs2M2VXGZ26LBnDN00ufpuqMMy52jjsvxGmqepX8Klr8Nl/KmkkhGpEtdEKt3T0oydFVAVEIGS3lBujRsshKcYhql37rJoV0t1VbTfRQSmlrQRoVv7Kh7YdC8tgpbzyhmjlG9XYow4N2WkkcKr5dM2627HlD8MAN2KpAHlndB2lIiSgR0Ksj28L/FZXWiJPsiOU8HdZla8IvOh2VBGyNSDYRhSPZcpgJ1VIblOyN4Tld1k3SSjOGOyorpCGS53UuGdEOaZbyi0H3VL3VFusIR/ymtHqg15HohbVVEX+CfgkL8SPbwsrq3gVZEu0UBUfdU6u1cVV7wtem6qd/h7FVybpx53TmkzCLsJsovILnKoupA7oU4RN+oqaVS4e6La6Z/dNoBK7lOEQZ3Rpi6zqmPCU2np/Isrq3jfRZVwVMyUSiKbI5TUjn2Q4Tbp1V/RBsdk5j8Olu0I7t4Cla6Jpc86yjIHhSNFOpVrqRZarS35l/A/AVZVeFSs3wDSJarfZZr7ppCgGR4SBdQUYsE5GdFDdVJbPjZX/AKHt4HwmyjfwJp1NvDMq2rW6uUbW+DVWKv8A5AY5Xt42/M//xAApEAEAAwEAAgIBBAEFAQEAAAABABEhMUFRYXGBEJGhscEgMEDR8OFQ/9oACAEBAAE/If8A9z40QvGRXme53n/4CDrU7rF8LG0zsHeW7LL9J6lzRS2FYVOEqx/UJawe7gVufmccf8s+1il1qIn1LhO+ErYsLRkasXel9JZaKQUYHt2OkPBNJAnMKipzarxcAeWsHv1DQD6h0Axy6qYUivDOiuU/4v3ORrHZ4grGcHRiLcHsGuHzLrtrxGDRQqnJaUiU+7neueIUNT+AlCB9aQd96JEGwU0GV9ypNfGy4GVV8GMD0Hmy+UWuifzLkse/Eb2hgEz/AISzIVhFs/Hj0Lh3svkF1deW5c2HlfMCieS7c231NyrQemkIioP8EzOjjzYdhS8R+Ig8x1/iFfQauVqBkPhBhMK9GQgDy+mDtMaXjAF+ag/G3GvMqgr92eJiPljxC0kc/Rf9vkJVNmfU8RRLBg+4btTOEZQbT9oN3HaMnALwB2DGbBWsCnUm7yvBKnm13UcWR6qa6C6OIYqeCvkVHp8uStGvaxNIcrXfeee3TDUob1tJEhLHrYnRDp4+5WYNcEO9d90lqrz4lbL35LlK14m1PK7ONvZdTqeP9vOC4FLl+pTuV8EW9DjfM4b3yCyd1R2UKu55i/Eu2SjHEvVhP0jD3TyShXqrYQzB8RElCEPlnGYk6o335lg1V6nfzEYXrW9Zxm4L7+YHeotcSDRqL2VU7lbfpNJPDTZ7/VG0IWciiX5kasPT6g8RyNfL4gNbX5yo8vUKrz/YfiMdLsswO7jcW6yigR9Lm+bbi7wGkwg8PzYjaAmfCMqvRC/HIDq7qymJepN4+J51BgfM5Nli3K/7l7cjvEUS26N+rmALmlL58XF5+jR2iYiF8LupnGdc/ZFQEdlfcmwrNeUQX3ngPM4pGq5D++gik3/RBtmeB4jEpX+YveR0fEqil9weVVniO5zBHYDj/U2FnQNbUMUFvv1LLXGok+EesaXfwcg88XKz95ahCvAnRIuZ8oNdqHSUCCHDKmVKOQ/EKIAID/GKaIWnNcJXiGnxZfdFWBkr3r4mnxKornPiXqtvm+yoMaWTh6lv1Dbz7l4JeXkKiLxErCiqC38wl+IL2f8AqVYr2z2xK7e3oTCY+U0IVRtbC8RpqnidjYpZ+zNExKLhfBL6TW8zsrNPH6K2Ufpeyh0rMI4uxihul+ZX4K1zWKENOpmdxfW/vPLHzy0EaHapwKiS+nxEpUbp2XbSnX4/E8ma1MhqBHw5/wBECAzZfllC7EStdj1b4ddjF6KBP1NFhqxZhTPLjEilGYH8eZvPTt++c6Qo8NdngVvqWTSphXYDmVVSHW3tsuQ84GAc0o89RfchPHqDz/Gkv6+wRGbxnyQ2ovY/SwdoP63Tc9TfEs6VwYEaHoQ7d7CBQrPLxEXpaLtRhtlj6gPpK8yolfgB5gWjrTXagAqG9ZFC9ovyiAz4sNcKBB25ql4QV5lWwNuwXAXxUR/bgOn3M6Ksdc6RTQZfyQrifJ/ug2dLAwMXwprIb2GV9PiHnEfZ9zbPWB2KKry+50Tb3yO6aOJVywlfB4gomrvxHGX9GXCtgrpYA/ykG7Xk9QhHBl9tgSkb1yG2vJ48fuFT0rIK2hN+7lN77yWOS4Tlo9pUbZqeTTj7RhGKavqVa5AW9I1tt34XG7zt4T+VorVQ/wDFzJSo/cRqLlQ5yJR4akAQutHD4hEmvnKXCwp8ilxUKNU1ORMlkApC+AqWwHD8y8XOz32UqF/wwvOILtEZ2WocPUuCd6vWD1+/yIk2XhdltYsPb1AjfJBxmBOi6TOwd9RZgR4+YQnt2o/M1lQdwNyZK9b9QnpTY1fYuUmWOy2uyJW/ELTsvVVYepTIFIXSy95/CONspzhAdsOO3L8leVrhHVH4cmSeZT5WJgbBx+I/SmCdQxlHl6/Nzrg+l4hjOmJXSHxFUuAtQ5aP7S3/AOkatu//AAUpnIFrtS6U911KLYDzB714aJ6+Zld4zEomAI7MaabCuJ445WseAr7QKLVo6wIq8LYvu+7olanUU6RCYJ0gKh8CV2f1LviAPhOxC/c32tH7RE3YFP8Ac8XmK8vzODE/dKISBvD90+IezTfYaKUrCeRHoNIoG5/M2AhzqaWweUV1Uf8AlU2kaD8R+sOF1MAFNexiCbmiHvQhWkpRDwMfmOGlN6tgD/8AgQTW5mWVAFKbCB64j8PUuHqV8zkFfsECGXx3krRguir4RYRBle4h2Ux/ylcXD3pLtucVsEdyYzM+0xoWlW/cS0r75Gstl1jFbGOpx4l4B+vIXFd7VmQvPawgJfLMwZ0oxQ8R8jZo2X/X2fEeO/KpavNMLwmxsPx4hdRQeahVcFl8sVzzzf1LKZ3+ZcpfSmw7sNUcZSaINJ42WXGBCD7j0rj/AAlspRZ4e5YNO35PILtr2EYyCsJlymNvAyk8YZUmqwcX/wCY6fmbTKs+JrCUHukIV1KUPl+IZA0FU9nR7oziMlfBncF/aqputD0mDg+pqpkjd+4any47UsDTj4E/J6lgZqPo9lpkjYI4prlLT3Mt3dVaygF9LeRew9sLRTz/ADEXcODA+Cw8JdsrwDs1m9HySxHLX2KNg6uBoKdjeR89bt4lAnV67Ed+XbD2f/e5ZF8DkzxDzqgMPhN8PyGHjNu/K+peNYSrCu3LXmFtrz0jRW3Hw9xlXYU8xDvQ8srWPm8Qd2lOZS1eP8oDgBAxf9Ly9PuJujBVZCJ2Cz6ioQyCCsPmInuo+ak+alLt76lAfheJY5x78x+7tL/uF2gWk3FEPpzQHiFhXS7OwwqutuAMJ0eZ/wDeIhKwoTQAR8vEpnUfultN8h/aWAu35YRlPFfiXaLXeS0dV2uQbqn8uMSYpvaJWqFD8feayLRaHuaiG4PfmKOVhuqYzV6FQtnAK3cLCrhVY/NwWJOzslMRpTTk4/QoNj/t1V8mrhXHVxX0ZtmilnuYaBpW3HZE6Hyy8ApjFojPcFa/jZej8rgCGDw9wjYLx6g3bPQnGYepQFl82RGqANgepY3MleZyT0XiLcV6BdoWrwanIALLbC2+v2miUNHuHzJlHJ5KeSW8UzviVak4rZwPL/aUiV4+PaWTDq3zHUrOGPwSuDW3ItLH5MdkIziCXhFVhkP4yuqKNFUVn3MuT3hDrNkEaxFPgIUwADXEVsBdFn5IWhWvD+Uep+7x9RNe10YtrgVMp2k8DsMYv5gF/GDf4S1V35diCLXp7UDm6KcgJrrzrcO47RcLl/06IwELdnWPUbFV4lC9a+5uGfzhh8Vb4fMHy9Hp72BqJXOcj72mMi9B/wB5e71g9JWBoy24/iXLvrdzsPVwup+CyoBU6hQIvtFyvvomwHjSiPCiC/0+piq/AqhnZNx8xPMqq4IQKK5H4nuVhefmW4A8HYH2CiZmKjhlpsLuPb/E8xPmVsh4GKUFC+RnIhF8Ry2vwZnz5V34TOHdL/mDXK/p/c6YB28pMa98MQFDei+YgxJ5YkB6i++CZqK6xukoU/zCQHpvzM0xbYSrJ5L5ZcglNGfj4lVk43okK57HsR0FdQizjzyyt1stOZ6g0As4lFbrb5A4oDrpLUwDaXQ/cGGgejFlr0vJ/CXV2dOfL5m5E8tpg0cZvYvSKUM1kA1Ka9SwSKzL8RvILfl/3GGw3Vdxsx03v1Kfg7koxvXmBVYNc+P0qpZaTvcrUauvDLleklXbWvuKdM2jH3Az7+Y6KUXKcAi09ETa9CmV7fS8fc8iRh4gkblRrqrdnPOGuQFgr08YGr4fiRZzxM8SrPMLeQCpH8fmJD3T6+pgXlG+teIURysf3LMbmVLVVXUx9zZ2HzlOQFJdfGQ4KI9CCb5en9os12G6r1GVes7H7oCV1D7SgNs7OuKdHUuwTbnyR+wL2vBKXViGFfo8qBgt+YEWxHXBk/uBQa8pfprr8stq44xaN1xBJa3WxMfh+KltyhhflmwpOpiWuZLy8eyKrtYlljNnuJxmr8YAIVVO2CXlePqG9q/mDC3tT4hcQvTuFwp4WlmEcnJrTdtUV9ywXWWaVe/J+YB7vE4tjLEpXFvuDW38gyJ4ILvH5lnsstZTtpR/Sc4l08xvo7H48CuJmqlfoPcSZNS1R49HFRiuAEi2GVe+JdzjbOTeyenDestnrg8SgpZjNgqFJnYTfWXU+5DaDtQ9QPWQPMVNmdhqsfAssVV5ZLWrWz9TLiq2LNHV5Fq3bw84mFINVj9QaF5X2a9EKqnmNQ488iSh4dF2k7lVfpL5GlSNUHFDWB32jrylvmVCUq+fipUQdANlsMgGCzjDT9oOcmciAef6GjhAV9xRpcGePeTUfwJbqdLGJZSvxFnAFHzDJ/149LyPhDspemLs6toPM6IPqZH3sToHLeIrUvNXXZYvjkoWIi6Hpdmc6Vtyq3Jw9znFLSFLI7+InuGuMBNZCcPueBVgdWD84r5RxUfCMiHwChhbCbaVkG8gncu8n/KGBJFUt+LcRUv+Yxmk9Ro2z4ZX9JUthigpLfEXgF5DzTZ5cQvRYVVFMGeVLHx9L+8XnoKgjTsoc54dYVsK/gQTt3ThOnVxJiS0cf6iZs2X4nG+xzX3FV/K4kAIhpuCVmwCPJMvtccyGiVRhq/Mc3Dh5lsuJQlW4tNC+PMZbQNgS2S0UO/UFlaTuNxKUAcuBhV+JWv8ZWjxuvMJSv0Qy8IKKcnb5/SnahVcMSAfRGEPMINOnqcioOV2daU8JVb7lclDJfv1LPLLGUlxe4A32hPib+gOTrEFq4zFh6xUdIPgv9XMJn8NzdpbRAoCtxZz01aByWZB9WTmL0dma2/H3CpQGVyotdeyGgLX+08xAbHCkxonSmjbX6KrQlV/qHInxsv4SqMjcI+5+bEphyYr6dntEv8ACv5lLb9pUa37l6ueI9yK1KlbD1wvkxyl/U3eh30l77+mDLTrPNepQOt2IUcgRAzM1YHmWZVvJsX9HqW864kpkX2Y7wXivM+k8NAVxRwSbpX+xxGw+E2/iX2PRVRL2eC2LArQ/wCUNtUXxoH1/EK9PmWt55yhasO1LJ1PE1IzRlv5iYagqk5vzAbBUZOMSzNOEZW/E+b8i3N+ajTWZ5cZXvbFBr/co/VjLHZFUVz9KNWfoQprZbznKOYjjAPGOSm3EOiAUqAEKrESF7CjQub3E0Z4GCXkVi/EP9X/2gAMAwEAAgADAAAAEHVAqggpEg3D+H166KpgpqXRrggHGIO7DejfRGClkbEWs6uS2osqrHVPTZIWrjU9cFPHmPd/9nDfT2yL+qcUjq/qt8r4YK+pff8A7p8mam4uhzwdDEq1zN0682XIhTMu0P4V2N9gbTqXNsC+x2Tou+aFuuU760nBkWL/ACObW7Zyq5L3uRcgWO1CWwUkzBa6n2be0QzA1SIJ33o5eoO934dAobKeebNI+uyG8QtDtnXVggPEYWwKdRbShalQb/qWHksVhVqby+YBxFit+gPzvqmVA1b6CSsiO8TJA/2QHjjUYxfm/8QAIREBAQEBAQACAgMBAQAAAAAAAQARITEQQVFhIDBxgZH/2gAIAQMBAT8Q/q3IYn94K8lGsE32H0XvZBn60viR/pIbfewA8jNxk/Ep9xqzh8N2JvEk/wAQhziBYF3y4MmSga2H3fqf3dNyya3nJzs/qfkvVCB2w3ZyNSO3fSTxZ32/2P3aXEgkYxj8BvLB34PxcDLiWYZY4gVxnHWNew7I6J+lv5t7y6lhNsEg5HovlrLH2D3sG8LjQ+N1kO9vzXY0ZA7L3k5ut9sLGvluMPtMMIIxj62mfud3ly8O35QFz7gdvDl1vCet3C9Mjzs2XSzerQ2etuWoN8+H/lYHWGfuzTkfuQxNMuWmX6gzt7EdBvbXqQ4z+5RICAt8W9kbcfgpds/MbYThyHbu+TnSZaTdG8ewbcS123vbZ0W4ch7fcirLv1YevvwZk/T7m3PUSlo1cPbQ5aO2kgyfMI9s0jvG1mtol+r/AG5Yy9BIdXIHNkD8Iw+WYFg+55aY4Q8kfCc4sE08s5YtqB/2YxAfGsyLoSF1hTBYHGRt7EgZhBiSrkp9StECBPJr1235H4cN/MLouXRsvEiLkkzyUb93mn2bdgdJsh0/w//EACURAQEBAQEAAgIBAwUAAAAAAAEAESExQVEQYTAgofBxkcHR4f/aAAgBAgEBPxD+HST+YrVv84DVgudS2bh+rfVhxmx5csbg8wHo/wAXszPOZfTZMBHlnwuBvzHYTn3dNuaeTOcSh/pW91yI1Wh2NK0JkhLOEkCdzJJxGLDpavSDhuj238gHZjmgn6f9ZRz1h5jdLC4RhhMyeCfEYAbyTDnkaWewPlrZcnEmNssa2+E/G4783rt1WjPNPSUHntnOyYMvgCZn7ghdd/cQbJa3klDklrHbovzc8nwBD8vt3pvDT2M9g3JA6T/dOjB6eTB+oZuzuALZmz3icHT2dTHGlqE9sZjkuKIHi1+b0kfEvssz5g7y9hUenuXyQIaSC8lxl792YHLAYRND0/X/ADYpWpiUv6QDwk+4Vhn3C+betjoEC1NsZok8ffxc+t01uJ66SxFeYqUJHBGXqu+qF0Z/A7tsM2wxegbf324mkKePMtChrKWw3khVjggyfP8AP7QHG3B793Az4kkqPJGZdHJUYkSfMLKEx2Hh3/uBpvghd7K5Gu2DXnxazkTpuQISynITuxHhGGmTE7aD2ECUHLPGwefFqEd3tve/EhvIOCJajoeRr7I3Pm2PKy042Xf4BXY6WFIW62TdjGiADEuh9zfNkeEQyz6/9mxseH+baaTucs/snLriGEatlS+wHRH1WY7D4J4k5ubc1sYb8wPzBwnn1Ac2OuvInwzYD8v8NmXofFpIjGHl7L9IWds+GFJvIwF5CF9v9ppj9XJwn97iPn+j/8QAKBABAAICAgIBAwUBAQEAAAAAAQARITFBUWFxgRCRoSCxwdHw4fEw/9oACAEBAAE/EIQl9TP6Lly5cv6XM/V+r9WXLZbLjctlsWWx9y2Wy+pcuH6SX+g+hOD9FTEaOYl/dCU4toMqa8AqCC0J4lfRj9E+j9E+jKz9GX/8j63L+lNRbVsdrP4iqYHL1M0XeuKjrBrhs+XgjYqLWWHzNUOBeDcKlo5ye46Cs+w1kfMChWCMKbJwQAvWWV+hP0sfq/oPqfqWm7xMjF6DKyxQN4tlaZ0Xm41vlAE0sUsoF2WjvMDhVg39nUUtMeFpfXiLtCXyJlmoOra5f6g2eFFDHKy1PxHZl7ZtRTOuSOHzDq4tXl8Mwy+pFd3+0NCD18wtSA1ZBGrz9Hx9HX05+rH9JNfpUNqjqQB2stay/wAo5X8QmkgwoN8e5TNdsKz7RKVhYtSXVFW5KiI4MmXDANBScki111Hcvd44cVl5lEwsKt7l4zeINK4rOqyJw+SZK8HCtunPPERZAUEsIeBn4qcDfrS4E85hlxfnNZZu2kNNuv3hI7FHA/5US0sguxfxKsKpa3cFpd9VFU8z39Hcfox/SfS6l5iFkUbjlReCVE5YNX5iOlRxUaLDJQzDeAimoeX+IrdgsfZULappVw1fVFVEPF1lMcV8/iKFpY0W9S7SKkstr23qBW2r1WVpONzHap/qocZxDeBwHP5TF0jx2Clhr3MX6WCchrlhLEMMXnxBrS6JaXEQuSlJ6V6YH2xADlOobpHoFxfmL7t8Y6ZecXeD5QSY9ZcWMEq2rxH6sv6n1UymnMzM248oqGHjGbiLP5zTEPKCHgCHzuxQAIUq9KZLnPMcb2M90CvcZE9ezLbl17hy0NbCFfI/vL9gUlbZD4OoICatLJujmECouHwF3pD92NChwIOl7hoxRjC4L8tPUVXg4mTQuzkfEGGwFzzKnRePiDJyG3PQXLRKq4UsLVo8ll58xCwDqwnOD/bmlUMgg4XlgYsFwEKxcCcroYlJDeywh44h4uWusVzfKupWFtWLblNquMpSOiwXbcuXH9BH7RQSLi3HiFmjWSZ8waDn1H4Rzu5+0skGanHhXcHQmJBV8fbz4lQI2FS+skSgnjXSyPW5exsSlIiVtyF+GK6Aa0tV4Ji0vAQbt5jWl93nPHuDIa+geVjg442A2ccnmoGU2kVpVKNXuFdgaAE0Y8AgsSZadF50edxu8hio9i2zFm9nf+CovRvQUHGfvCqzgGWVuOhkq09Sv4jHcGVGoKC1C2TUgKOn1AjHXWaOiNlTDkL0+pSgKWB4eZcbBTyHzMQHRSEiNuHZHJupcWX+gqZVElhL8y8ltgt2xG/gSzzLbHMC2+vEMSRh9l4hBQdGWlXGAXkSB0P7Qjcvs2rjDzCKwQZDmX34jT9tIRwCclC+4jFwgoAxnKYCZd7QoyxTgCiNKI2wYQcZKuNZ6LJNGXnl8woxnTOYsqt9WxZQQageg5vlmCq1Sir5IrzqKIS81xdFcw9zRq1Zb54uJ9kEUF37f9gnOqwDhP8A3U0RTFYV3jQR01BElA7a5hUTQrgJdjpiFjKMEq8N7vbBbBz+1e4MaOKgMNHcZuOlzlzCtKOdlTPatKwvTClwoUPEEqidyzUZaW01LgvOPpuDcPAK7iXPmWL6la6mafnC/heL9mYayFS/dwn4yLbsOYjoMFxYbXpZiUiZWL2qTHlmMBUzA8jC3W4SsM7HbV9/zLmGw6c4L+WKkil7YVQ5dkqBwWu6DoVovhZkxob2B8vy3Brv4Iis88L8wpZEYSrJWhK5l8R5s4Crzz78TJmedfsn8TIhIV2VaU4M87magJZzqHb3LHCEK6cfNQKfbvAsJ0RSx0WDjnuWpy4UrCUvsxDFvwTLrWk7q78QuNgcaba4x+8w2CosJVBWiwYJEGKjlU1nMRPCBkmcdl1AJZT+m/PEOLaQUrx5gqC6RrPXmW+ZumS4BYkdWjXarcI1cVyDPULov5IXJHMVEKu4ZiqDuVmI1ZqGRhebgJdVXAcNsLJMztk0QtEHN3x+YsrkUIHtTIvbjD3X2x3E4V59o5s3MXLuM04D4gVxDldvgjoSqvWrRwxLw1PDDlPNagqFdYyzjKjeNvqW1rO21XaeJux0XcX9o1UHUZUXvAOo2AIURvB2gDCKJoo1/wAhy1aNCB3xqeYlApktgJy/iVwghYoHDw4xBC0HBxFJhpWviFYqHdAIk+kDc0o9e5m6DhDCX7d37hASlu0Hi/4jgjJxA5zjJDAsItvmXpo5cHS4m0TSZVbsmSHVbW+fPmAA6Lkvi+mCLJsJ5quYs4M5Tiavq48S2ANbhdF7+l8p68RwbjFqZVLBRu4ck0wKoDSWVXMTMAlGBye48aC34V5er4gSD2OKdBv5g1BvdCumBdWUDG0u+D5l6UAy6FvioujaViOr4PUPLAsbP4EINQ2tXaLzExlw3Y49yyQmzFVpy3CoWNlbD+ItIw5xrPi79kCzbwomMt3d/EraX112T0Za8hCnrtHTOhXnq4kdPEqzYb+zLZi2QBo8LiEhIuxsuu+cwadWHYcJ7qKptovLdBOgT7wAZokBxT9vtFXMWZvTMCR6OLL2DOJTqubCHjuEQ2KiwdHq41eKL5GcefEToMQeeh6zLwAZKAU5jRtYWcalJuUCVeOL+A/MxyAG5gKKihdxVcSqiClhxwgDFNRvHNscrQXL3LgNdVftB8nXGL4uVtKXLa+yXMiAFE1neZdW7ATT5g9FiLRZQJW7giy9BzMNI1zgpo+9LAkgwEotq9FQy1ULfFu1TggXyA/gXwIFPLgyjdN6I1Oolg5BXIc+SFsLFWKF0nG5jVAIgbH33DoEwNlEG/V3L028YUcD+YcQ0Dp6Dr+WMF/jB3prxn8xvA6lKUlme5cQ5Z30n+4hM87NAdnprF+CJlqUrh/0EppQQvYK+/3IA4VEJYJeAulmZ9rI7LberYWJBZtL08XBJXZyTfx7lotNFoHYudozQhtxzcrkdIa+GAwXpBVm86YKW4F9CPFVWGl8wXXWxweYPsJcsnaQ3gYWo0MAAN+CLZWVH3qIQtCDfeJS+NRvqdRxbb3kWH+USICu5kMIcupZncUiOEao/MstBvpfhftzLrfZkAaunVVAqWqcUr8uzxMGvHJUzQQsBLFLdl4+5HY9JE55H8EJNuwF5fNPxUOk6Uam5I4kdDyGYMEHDQNFPcfXBaROM8VimJUj1BQy2cq/mo8FSEzrbU5Z7pnK53RbnVRLWF64FqNFHPUY8gh5Ep5dRN6fVRcld0x8877QaxrPzCNEOoJQuNCEa4DjdPht5lKoKsUPm+SEI0WbKmP9zL3IIFlPmvX5hMCwtod/mOOFwo200dbinzMamuSDhS1ede2vbMWNluwRd31xUuxMNgDv7wIuBcx7gI23C4SGyoeSB3IOY679yiwOoF0U5ZeUOLihvH1DGjIC5T8AjAEnPly/tDv5hQcA+OIcM1d6Ty4KzAyyWm+t9S0bosxa4+T+YFWGtGWl/wCwLZZbzlzbENBnZkdQWxAkQ1lp2ykSLrko8L1MNgcS20pYLq6DAi+4h7WNzyMd3KUuphWrr3EYAVNAMD8xphimuOXPcQTcRHYTFa+N3mN8MpDGaAt8OdQMWKMw1Y3DWGgsh1br4gb1aM0r8uYr9es5Rbyacww0VpfJx1g85moBhVhHFzF4tTWMnFlZ+IagATTlbf4hADVeemPsi323NuTceFQ+wOEqq8VFWD1epiEqkA8OxmWPJARmCDIbzhlw+F/buOk1dGoA2hNq9SyGeXaNlBOEO3fmKbuESijg6jgdKFZ8d5ikXCTy8+oKAKBYrx7f2mTUtXl+NGjURdFKerdZhsHG2U5rzKh8rnseFl1LWxxhsdjE2Arf5i70qtIc07jh17WoVj/O4GoC4L001yzD6qIp/UajQNicvccYtIw8jjTemFOgTx2tBXfN8R8QNavbAohhtXV16w7ipKX2tJXlevvMmmNl0m3qnErvMDC2Sr6fxG4PqgGkW6ccTNFQiHA10Yx+JdlCtkQOa6v94ntbx9LXtoVS/uc6hdABFe38bI4m7kloBhL8JKAm0tob/lcdECV21FeICyAecHEplyqDT8p0wt5VGQfJEXmsKAJv3LQNsA6cQmVp5HMqJ8SqzAqgRRZcvmEJ5LctNL7YVWhVEW+9RiO3grO6/uJz+JoF2nluj5hdbBBYfA9xfdc9b/G6mXJquAd+5rqWzluE5DhXaK4nz5tSufmFeiLFW6rrcqZHFCLzzUxq1AWzqPH5mNZtOD7PhYHGBjFNInOLjyAiz33/AFAsg5Ap8zr+oeGPMDvZ4ndA9kcnOT8oBPSZAbY5N1uVcKp+RhRnZzuAWKoFYqUdhz3ARyLTSOHWT8wYrurJxHt+Nyx81GKtY55pqM5qsAWM5b4j14bUTQfJR95pSAS1XlHy1UO7uz1Gjy4hYoYCwttvvrzAq0Hy4y6xcQQwZGcfFR0OSWzTikVTKewLZddszYwqu/8AyLGdrHK+2cVAbwznAWMYiGeBqlPZGrraRhKQWaxYwzb748RZPK2Uw67jETBmC8vhNYY15QaGuCW1UAVwH9wFCNUz371uJUNGDatdxQpENY8HxD5sU04dwaaSk5bpvcsHQsHnn/cy2tSaGP5LjFktjtg/l+IkzstMJ2vXUOYUFcq59FzJAK9A21qGZwLBp/EMXZZNKPFd1KkOTCWcR9wsxytPdXKK545AL9M/vKahjDHmnHzuX9m4gK6X1pg2UqN0EH3u4OfcEoFWuqPzEYDRizh5rPEdq9ja8NGtaiEWc9Fz17hwLZL37fgcwDJWz6p4Pibq5gtDuuZlwhGlNQGtQoQq5vmNFHFiLZL5P7gid5hXL4gfJc8POJRsEBOPcCQAXa1F1CVkQ5ai34PUuwrDl0+5gxXRakuz2zDkUyLOKTTCz6pRo5f5gagC4gHH/ImH/Nw0f7uMVDQJkpdyy0ANUJ15iBZLlBMbrzEX2gZ5fXfmclhgF5IETkImeGfMNTRg1Y0r1ABF2sVXI/iXqgb8F9QsA4C2qGGWIUfiXB9r09MepQ4QXAsCwdwqzhVFr3qZKJ7cqdGNr5iM8KwVlldzW1+1meDj+IcMBimyl4fjphDdQLQzTosz4lxI0RqUvhtt7i0Xc2U/HMaPoIsReDbNdC4a7VcGMecy/p+QOVLVU+ZfjMHOr0FXdkD1sbwi4FNf8lW4c5YNN25NVL4iHYXoriNhD23AjbXD/wAgcBMZ/keI2NGq4D3G1CjY3DbvgtHuK1INWVmsTLgIBvw+IkGaWj7f7j+WZvZdTGurCnLW1qXgCgVtPfUF+oLaNZikJ6G9trrF+4S8AbfhEvOTNbbzAmnqGf5QNS9Em/nr+ZpMVHKQ7r+YwtQWMhr7SnFJtmVzcegtaNuY1wF5ilZa8McempROxwGZrrNUptz8TDRgYX9u9x6zUcQw4hBexdm6/Mpkuw1PFfzDwjtlhrdfMS4r9pK/zurzdbKXU4YW7ISivUbrzPEJQavGvJOJCyTo+7I0M4liFCZFC2OlTHkTnnMFMVGgNZPI1HdbKllVWvPqNNgmzJ3Th8MW44vm25FhcCMe4ea4Y95ghb+/uNQhV51FkxUFq3xBRozIQKQBR6iWAELsHZ5mIBL9YembjRgLRDfDwRolU4Fq/wCkG9nVD2l9yxdPzIuuGpPg9cy2WwqxXXzxL4yvHfjASoUrXWvv56lC7FuWurQogA7BXeecRwYQyl9mMdS0QeiKc/usF2Cn08LmBQQWexq6iqsUFYyZYSLcjikr94zXgrqmbs6gTQxVbTLyZqP7eyznfzK2uyyRv9/3m1agy8j/AB4irCNvcERvZBqOwB2WXMIzMVoBxlMRWxR3V8vT3LTjC+FXStHxGsXwXZShxcZ1QS0mq8sz6Nvlfu8xhA7G21L4lZFwtHdxpk37gUkScg6OnzK68EFnHtKh0oSDHCcVK4hsuSKpxXYu3cdJFK0o67jq6JLG4FoQR0cxSCt+ZdWw4KHqVN95gaxYELLo+2TJrBev7i8MbSy6z95YCiDzZD3epouxK08PuG8UIvLnDimFOQtzA99/3N7kuyhdLAzJAwobgSzFeiyXfejMsBH4xsloSVb5MkM2LZqJSLIg8Evc9Xs2mCMK1yGV30Y3p26zqHaVqWNy6zFoI2C14q9uIkx9QKu0a9nqXyKBivnWdcS0sgA4KX0eZoLdS6aoXzb9oLM1EsfB7N43DCpg4AsJ12VMdFYzE5MLHiECQEKsOA638SpKNCmPHxiLx8+4Ou/6mEdURjcfmL22qVRjB3EutYYP7go2D6C0uZYqjNOfmVIbN1qGjE61CnI0BwQ/uBA89xdVa0wKfvBKA1jgeio1ot7pTY9lGoCAKLYgJg6KmFAprtjR7nUrWb8kbZMz2OJbdkq6tYlkG70WXXzqAjhYIFjVJ1cPpcSsPIwK0Frr4YguAO228NY+Ygey8KTGn5zmJ6dOdvEqcCLjsBBOAwTF9ixvMwpab1T5gNayJuaz3/UUojkgpSI7YNUI3bVWvMwzLPVgcL/v8TApeV3UXzdaOo+FqMs3t3Q/eCsFTtmU94vce5IYe02sD1HGUKqDVI+F66lOuoIBWX+HzKjvGc938facfTStpKcfLVxcYDVtmfUybvpzOZRVsIDVmoiEwkaQADjuUq5TiY3NNxhhHggIDIpHZsRW7TmG6TqVJsh+CMqypcocWdYIo7GxZa9w9iwMB/xh3UoDIPfXuIgWqOz94JYqlr/xAfQraty1x7hRU3cP4guD+RnbmUQuPGhznMDChuWJoV0Q2HDtaceo3C76AKAvjcvNYLraufjc2hXjU/sqVADLKZ4rgi6WJw8Z4hUOBwfIf5hLZlVUxSRXAsSLFeP4nBugKWK6C6mHqxLDFVWjn/EP1rS+e0MOM27uV45vqeqD/Yg8IakC8vuFCqzYVjPSsVXostZ0uoSHCzmVwl6GAXkSw5zFbAN78fQI5N1ECDWs4ZXPY79xs0ZXKXQFFZP3JXI7nvWjtuVHgADBlT/u4ybkG5YQVcpacrD7TaC0Ji3USKHNgo4DuAaUbNOIaWaY2YuhOkwiY1EzF4WB2gbGtOoq/wCQ5ksgN/JFVDFGESAiswlq8eYqYEzsa5lFf3939EyivI0f8w2hZTNIyH2JaUUiXIcDAQ7uEPCOXxKIA1BXDajMxOy+fUrS4hz8i1j4iiQp2ng9QI1AWwUF9n8RzQwbll4YnW3amukKS4Vw+JrZKKiHuVzRDTZjBdLcp+8WIsz0Tc3fuEG0olgb8jMCYXZauMhSx6eYlPQQh3Kqg3K65DjRA2gXNVCt5v4ioSwdXbMQrHBm15v/AHEHgU5rZ4DqWKi7uHdwPXHRY9VrKmWnN+pfLAxeCt21+IoZIUayOH1McnZ09+RcMvgULA7PMaCaakwX259RNdZGjtD7igHblI5xzM4k7xXq9ECYCwt2DW44acLHOjdRdhi8NpyHG5YjaSWmi+Lr9oHI4OHz14z1AtBMNDC273ABSJVPk+FmY8cADvtkgDBwu1lMwxhHLGCxJZWQrMlIDUwyzki+NtRTlncxLRUqXl0W1OZTMBtlUYs2FnMMFZzBgWfEqYBvl8xvaErb70q7xqORFuLQWIpphIBRb/EtHtpgH1DsI56Oorov2CdvzFSAyNK8Q7GUkBN5HuNvgHrnFR8cAdRTxvmvcqijVlB65hISNrvn3PmIhVG27LN+YChDAw1wvMw9/AKeZdJa50C8tRWY1W1HD94lw0tLr5a5JcDhwowbsl5F2Vx0WOS2HUbYupN9n7QK6gHXslVOnEY2ry8k2+2qGCElnhSAGNEPcoSnI8SgKCg4+nGIjZK9zC5uomLU3qUpAeoYY0Jq2Jeo9RrwHh7mGo4lom8ZGq1Eaq4LHfhCoQrS5fMEMisnbLsgMLmoV17Jth/aYRTumFpXJRg3bib7wksuMxNsfDPuoxVQ4L9oiuLWN/MAQKNlkeMVMYogXx0DOGJwgLGzslchBoQrxmAq52oRC8VZiSyMNoApdL4ZsSeoIKg1OfN4dQslYnuXUIMu5cXEABZbgFNDHEMmTp3OBrxLcWOe4HgMPuvszZLKy9wkIdFQKlRSAK7X4joCHgUsP6hulL4lULUIM2aq4lO+pm+4hkooXQXzL1UZcfZcogHtePb2wldFAcOoNsG6B4IUBHzAA8SZgC2BsxCFdzA0BbaUEEF0O41FzYogCVLl7hhOXUvr6J9LiwnH1dwBaCcRmfBg1EFW2IqNMo2rMQi+g04uGo4ILbjTy4mPsmNpbmO2qPicYhxVK1g8BJTACtQtAxDiXhy5RMrzUXPWzkB2TIOWpk63ANOfoU1lcJp+hjP/2Q==;" vertex="1" parent="1">
          <mxGeometry x="200" y="237" width="131" height="96" as="geometry"/>
        </mxCell>
        <mxCell id="YbGR8QRvvaodPsiYNmc9-7" value="" style="shape=image;verticalLabelPosition=bottom;labelBackgroundColor=#ffffff;verticalAlign=top;aspect=fixed;imageAspect=0;image=data:image/jpeg,/9j/4AAQSkZJRgABAQEAYABgAAD/4Sm8RXhpZgAATU0AKgAAAAgABgALAAIAAAAmAAAIYgESAAMAAAABAAEAAAExAAIAAAAmAAAIiAEyAAIAAAAUAAAIrodpAAQAAAABAAAIwuocAAcAAAgMAAAAVgAAEUYc6gAAAAgAAAAAAAAAAAAAAAAAAAAAAAAAAAAAAAAAAAAAAAAAAAAAAAAAAAAAAAAAAAAAAAAAAAAAAAAAAAAAAAAAAAAAAAAAAAAAAAAAAAAAAAAAAAAAAAAAAAAAAAAAAAAAAAAAAAAAAAAAAAAAAAAAAAAAAAAAAAAAAAAAAAAAAAAAAAAAAAAAAAAAAAAAAAAAAAAAAAAAAAAAAAAAAAAAAAAAAAAAAAAAAAAAAAAAAAAAAAAAAAAAAAAAAAAAAAAAAAAAAAAAAAAAAAAAAAAAAAAAAAAAAAAAAAAAAAAAAAAAAAAAAAAAAAAAAAAAAAAAAAAAAAAAAAAAAAAAAAAAAAAAAAAAAAAAAAAAAAAAAAAAAAAAAAAAAAAAAAAAAAAAAAAAAAAAAAAAAAAAAAAAAAAAAAAAAAAAAAAAAAAAAAAAAAAAAAAAAAAAAAAAAAAAAAAAAAAAAAAAAAAAAAAAAAAAAAAAAAAAAAAAAAAAAAAAAAAAAAAAAAAAAAAAAAAAAAAAAAAAAAAAAAAAAAAAAAAAAAAAAAAAAAAAAAAAAAAAAAAAAAAAAAAAAAAAAAAAAAAAAAAAAAAAAAAAAAAAAAAAAAAAAAAAAAAAAAAAAAAAAAAAAAAAAAAAAAAAAAAAAAAAAAAAAAAAAAAAAAAAAAAAAAAAAAAAAAAAAAAAAAAAAAAAAAAAAAAAAAAAAAAAAAAAAAAAAAAAAAAAAAAAAAAAAAAAAAAAAAAAAAAAAAAAAAAAAAAAAAAAAAAAAAAAAAAAAAAAAAAAAAAAAAAAAAAAAAAAAAAAAAAAAAAAAAAAAAAAAAAAAAAAAAAAAAAAAAAAAAAAAAAAAAAAAAAAAAAAAAAAAAAAAAAAAAAAAAAAAAAAAAAAAAAAAAAAAAAAAAAAAAAAAAAAAAAAAAAAAAAAAAAAAAAAAAAAAAAAAAAAAAAAAAAAAAAAAAAAAAAAAAAAAAAAAAAAAAAAAAAAAAAAAAAAAAAAAAAAAAAAAAAAAAAAAAAAAAAAAAAAAAAAAAAAAAAAAAAAAAAAAAAAAAAAAAAAAAAAAAAAAAAAAAAAAAAAAAAAAAAAAAAAAAAAAAAAAAAAAAAAAAAAAAAAAAAAAAAAAAAAAAAAAAAAAAAAAAAAAAAAAAAAAAAAAAAAAAAAAAAAAAAAAAAAAAAAAAAAAAAAAAAAAAAAAAAAAAAAAAAAAAAAAAAAAAAAAAAAAAAAAAAAAAAAAAAAAAAAAAAAAAAAAAAAAAAAAAAAAAAAAAAAAAAAAAAAAAAAAAAAAAAAAAAAAAAAAAAAAAAAAAAAAAAAAAAAAAAAAAAAAAAAAAAAAAAAAAAAAAAAAAAAAAAAAAAAAAAAAAAAAAAAAAAAAAAAAAAAAAAAAAAAAAAAAAAAAAAAAAAAAAAAAAAAAAAAAAAAAAAAAAAAAAAAAAAAAAAAAAAAAAAAAAAAAAAAAAAAAAAAAAAAAAAAAAAAAAAAAAAAAAAAAAAAAAAAAAAAAAAAAAAAAAAAAAAAAAAAAAAAAAAAAAAAAAAAAAAAAAAAAAAAAAAAAAAAAAAAAAAAAAAAAAAAAAAAAAAAAAAAAAAAAAAAAAAAAAAAAAAAAAAAAAAAAAAAAAAAAAAAAAAAAAAAAAAAAAAAAAAAAAAAAAAAAAAAAAAAAAAAAAAAAAAAAAAAAAAAAAAAAAAAAAAAAAAAAAAAAAAAAAAAAAAAAAAAAAAAAAAAAAAAAAAAAAAAAAAAAAAAAAAAAAAAAAAAAAAAAAAAAAAAAAAAAAAAAAAAAAAAAAAAAAAAAAAAAAAAAAAAAAAAAAAAAAAAAAAAAAAAAAAAAAAAAAAAAAAAAAAAAAAAAAAAAAAAAAAAAAAAAAAAAAAAAAAAAAAAAAAAAAAAAAAAAAAAAAAAAAAAAAAAAAAAAAAAAAAAAAAAAAAAAAAAAAAAAAAAAAAAAAAAAAAAAAAAAAAAAAAAAAAAAAAAAAAAAAAAAAAAAAAAAAAAAAAAAAAAAAAAAAAAAAAAAAAAAAAAAAAAAAAAAAAAAAAAAAAAAAAAAAAAAAAAAAAAAAAAAAAAAAAAAAAAAAAAAAAAAAAAAAAAAAAAAAAAAAAAAAAAAAAAAAAAAAAAAAAAAAAAAAAAAAAAAAAAAAAAAAAAAAAAAAAAAAAAAAAAAAAAAAAAAAAAAAAAAAAAAAAAAAAAAAAAAAAAAAAAAAAAAAAAAAAAAAAAAAAAAAAAAAAAAAAAAAAAAAAAAAAAAAAAAAAAAAAAAAAAAAAAAAAAAAAAAAAAAAAAAAAAAAAAAAAAAAAAAAAAAAAAAAAAAAAAAAAAAAAAAAAAAAAAAAAAAAAAAAAAAAAAAAAAAAAAAAAAAAAAAAAAAAAAAAAAAAAAAAAAAAAAAAAAAAAAAAAAAAAAAAAAAAAAAAAAAAAAAAAAAAAAAAAAAAAAAAAAAAAAAAAAAAAAAAAAAAAAAAAAAAAAAAAAAAAAAAAAAAAAAAAAAAAAAAAAAAAAAAAAAAAAAAAAAAAAAAAAAAAAAAAAAAAAAAAAAAAAAAAAAAAAAAAAAAAAAAAAAAAAAAAAAAAAAAAAAAAAAAAAAAAAAAAAAAAAAAAAAAAAAAAAAAAAAAAAAAAAAAAAAAAAAAAAAAAAAAAAAAAAAAAAAAAAAAAAAAAAAAAAAAAAAAAAAAAAAAAAAAAAAAAAAAAAAAAAAAAAAAAAAAAAAAAAAAAAAAAAAAAAAAAAAAAAAAAAAAAAAAAAAAAAAFdpbmRvd3MgUGhvdG8gRWRpdG9yIDEwLjAuMTAwMTEuMTYzODQAV2luZG93cyBQaG90byBFZGl0b3IgMTAuMC4xMDAxMS4xNjM4NAAyMDE5OjExOjEyIDExOjUwOjQ4AAAGkAMAAgAAABQAABEckAQAAgAAABQAABEwkpEAAgAAAAM3NgAAkpIAAgAAAAM3NgAAoAEAAwAAAAEAAQAA6hwABwAACAwAAAkQAAAAABzqAAAACAAAAAAAAAAAAAAAAAAAAAAAAAAAAAAAAAAAAAAAAAAAAAAAAAAAAAAAAAAAAAAAAAAAAAAAAAAAAAAAAAAAAAAAAAAAAAAAAAAAAAAAAAAAAAAAAAAAAAAAAAAAAAAAAAAAAAAAAAAAAAAAAAAAAAAAAAAAAAAAAAAAAAAAAAAAAAAAAAAAAAAAAAAAAAAAAAAAAAAAAAAAAAAAAAAAAAAAAAAAAAAAAAAAAAAAAAAAAAAAAAAAAAAAAAAAAAAAAAAAAAAAAAAAAAAAAAAAAAAAAAAAAAAAAAAAAAAAAAAAAAAAAAAAAAAAAAAAAAAAAAAAAAAAAAAAAAAAAAAAAAAAAAAAAAAAAAAAAAAAAAAAAAAAAAAAAAAAAAAAAAAAAAAAAAAAAAAAAAAAAAAAAAAAAAAAAAAAAAAAAAAAAAAAAAAAAAAAAAAAAAAAAAAAAAAAAAAAAAAAAAAAAAAAAAAAAAAAAAAAAAAAAAAAAAAAAAAAAAAAAAAAAAAAAAAAAAAAAAAAAAAAAAAAAAAAAAAAAAAAAAAAAAAAAAAAAAAAAAAAAAAAAAAAAAAAAAAAAAAAAAAAAAAAAAAAAAAAAAAAAAAAAAAAAAAAAAAAAAAAAAAAAAAAAAAAAAAAAAAAAAAAAAAAAAAAAAAAAAAAAAAAAAAAAAAAAAAAAAAAAAAAAAAAAAAAAAAAAAAAAAAAAAAAAAAAAAAAAAAAAAAAAAAAAAAAAAAAAAAAAAAAAAAAAAAAAAAAAAAAAAAAAAAAAAAAAAAAAAAAAAAAAAAAAAAAAAAAAAAAAAAAAAAAAAAAAAAAAAAAAAAAAAAAAAAAAAAAAAAAAAAAAAAAAAAAAAAAAAAAAAAAAAAAAAAAAAAAAAAAAAAAAAAAAAAAAAAAAAAAAAAAAAAAAAAAAAAAAAAAAAAAAAAAAAAAAAAAAAAAAAAAAAAAAAAAAAAAAAAAAAAAAAAAAAAAAAAAAAAAAAAAAAAAAAAAAAAAAAAAAAAAAAAAAAAAAAAAAAAAAAAAAAAAAAAAAAAAAAAAAAAAAAAAAAAAAAAAAAAAAAAAAAAAAAAAAAAAAAAAAAAAAAAAAAAAAAAAAAAAAAAAAAAAAAAAAAAAAAAAAAAAAAAAAAAAAAAAAAAAAAAAAAAAAAAAAAAAAAAAAAAAAAAAAAAAAAAAAAAAAAAAAAAAAAAAAAAAAAAAAAAAAAAAAAAAAAAAAAAAAAAAAAAAAAAAAAAAAAAAAAAAAAAAAAAAAAAAAAAAAAAAAAAAAAAAAAAAAAAAAAAAAAAAAAAAAAAAAAAAAAAAAAAAAAAAAAAAAAAAAAAAAAAAAAAAAAAAAAAAAAAAAAAAAAAAAAAAAAAAAAAAAAAAAAAAAAAAAAAAAAAAAAAAAAAAAAAAAAAAAAAAAAAAAAAAAAAAAAAAAAAAAAAAAAAAAAAAAAAAAAAAAAAAAAAAAAAAAAAAAAAAAAAAAAAAAAAAAAAAAAAAAAAAAAAAAAAAAAAAAAAAAAAAAAAAAAAAAAAAAAAAAAAAAAAAAAAAAAAAAAAAAAAAAAAAAAAAAAAAAAAAAAAAAAAAAAAAAAAAAAAAAAAAAAAAAAAAAAAAAAAAAAAAAAAAAAAAAAAAAAAAAAAAAAAAAAAAAAAAAAAAAAAAAAAAAAAAAAAAAAAAAAAAAAAAAAAAAAAAAAAAAAAAAAAAAAAAAAAAAAAAAAAAAAAAAAAAAAAAAAAAAAAAAAAAAAAAAAAAAAAAAAAAAAAAAAAAAAAAAAAAAAAAAAAAAAAAAAAAAAAAAAAAAAAAAAAAAAAAAAAAAAAAAAAAAAAAAAAAAAAAAAAAAAAAAAAAAAAAAAAAAAAAAAAAAAAAAAAAAAAAAAAAAAAAAAAAAAAAAAAAAAAAAAAAAAAAAAAAAAAAAAAAAAAAAAAAAAAAAAAAAAAAAAAAAAAAAAAAAAAAAAAAAAAAAAAAAAAAAAAAAAAAAAAAAAAAAAAAAAAAAAAAAAAAAAAAAAAAAAAAAAAAAAAAAAAAAAAAAAAAAAAAAAAAAAAAAAAAAAAAAAAAAAAAAAAAAAAAAAAAAAAAAAAAAAAAAAAAAAAAAAAAAAAAAAAAAAAAAAAAAAAAAAAAAAAAAAAAAAAAAAAAAAAAAAAAAAAAAAAAAAAAAAAAAAAAAAAAAAAAAAAAAAAAAAAAAAAAAAAAAAAAAAAAAAAAAAAAAAAAAAAAAAAAAAAAAAAAAAAAAAAAAAAAAAAAAAAAAAAAAAAAAAAAAAAAAAAAAAAAAAAAAAAAAAAAAAAAAAAAAAAAAAAAAAAAAAAAAAAAAAAAAAAAAAAAAAAAAAAAAAAAAAAAAAAAAAAAAAAAAAAAAAAAAAAAAAAAAAAAAAAAAAAAAAAAAAAAAAAAAAAAAAAAAAAAAAAAAAAAAAAAAAAAAAAAAAAAAAAAAAAAAAAAAAAAAAAAAAAAAAAAAAAAAAAAAAAAAAAAAAAAAAAAAAAAAAAAAAAAAAAAAAAAAAAAAAAAAAAAAAAAAAAAAAAAAAAAAAAAAAAAAAAAAAAAAAAAAAAAAAAAAAAAAAAAAAAAAAAAAAAAAAAAAAAAAAAAAAAAAAAAAAAAAAAAAAAAAAAAAAAAAAAAAAAAAAAAAAAAAAAAAAAAAAAAAAAAAAAAAAAAAAAAAAAAAAAAAAAAAAAAAAAAAAAAAAAAAAAAAAAAAAAAAAAAAAAAAAAAAAAAAAAAAAAAAAAAAAAAAAAAAAAAAAAAAAAAMjAxOToxMToxMiAxMTo0OTo0NwAyMDE5OjExOjEyIDExOjQ5OjQ3AAAAAAYBAwADAAAAAQAGAAABGgAFAAAAAQAAEZQBGwAFAAAAAQAAEZwBKAADAAAAAQACAAACAQAEAAAAAQAAEaQCAgAEAAAAAQAAGA8AAAAAAAAAYAAAAAEAAABgAAAAAf/Y/9sAQwAIBgYHBgUIBwcHCQkICgwUDQwLCwwZEhMPFB0aHx4dGhwcICQuJyAiLCMcHCg3KSwwMTQ0NB8nOT04MjwuMzQy/9sAQwEJCQkMCwwYDQ0YMiEcITIyMjIyMjIyMjIyMjIyMjIyMjIyMjIyMjIyMjIyMjIyMjIyMjIyMjIyMjIyMjIyMjIy/8AAEQgAqQEAAwEhAAIRAQMRAf/EAB8AAAEFAQEBAQEBAAAAAAAAAAABAgMEBQYHCAkKC//EALUQAAIBAwMCBAMFBQQEAAABfQECAwAEEQUSITFBBhNRYQcicRQygZGhCCNCscEVUtHwJDNicoIJChYXGBkaJSYnKCkqNDU2Nzg5OkNERUZHSElKU1RVVldYWVpjZGVmZ2hpanN0dXZ3eHl6g4SFhoeIiYqSk5SVlpeYmZqio6Slpqeoqaqys7S1tre4ubrCw8TFxsfIycrS09TV1tfY2drh4uPk5ebn6Onq8fLz9PX29/j5+v/EAB8BAAMBAQEBAQEBAQEAAAAAAAABAgMEBQYHCAkKC//EALURAAIBAgQEAwQHBQQEAAECdwABAgMRBAUhMQYSQVEHYXETIjKBCBRCkaGxwQkjM1LwFWJy0QoWJDThJfEXGBkaJicoKSo1Njc4OTpDREVGR0hJSlNUVVZXWFlaY2RlZmdoaWpzdHV2d3h5eoKDhIWGh4iJipKTlJWWl5iZmqKjpKWmp6ipqrKztLW2t7i5usLDxMXGx8jJytLT1NXW19jZ2uLj5OXm5+jp6vLz9PX29/j5+v/aAAwDAQACEQMRAD8A7mnCmZ2HAUtJjFoFACilxSKDNLSAKKBi0UAFGaAEoNACZooAKTigBaSgA7U2mhCUhoAT3pCKYhp6Uw0CJacKAHUtAxetAoAXHFFIYd6KQCiloGFFTdAFFF0GolFMBtGKdwFxR1oAKSgApKBCGm0wA0lMQ01GaBEoFPoAWigYtLSGLRSGFFAC4qGW5jizzkisa1VU1cuEOd2KEt/KThWCjPWoGnd8gksOM/NXmSqyk9TsUIx2ITev90MGb0Vs/wCFTJfuhwzn06Hk/XNSpyTumDStsWY9RJGW5FWo72JgNx2k+tddLE9JGE6PWJOGBGRgg0tdyaexz2sLSVQBSZoAQmj60AJSUCEpKpANNNIoESiloELmloGLQKQxaKQw6ilFJgU7y7EKsARwMk56VjyzOT8gOcHHUD8/8K8rEVOeR20o8sSBpmDbPvODyFUtgf0/HFVrtgzBHldFVvmWMksw9QMdM+vpXOaDocgAQweQmOTJyT9cHj8akjjYEECMZGcoM/570APDhWAGST+X/wBepTMUOGjcjP8AAc/p1oAtR3Ui/dyD9KvwXu5grjr/ABDpXTQrODs9jKpT5loWzRXqJ32OPYTNJmmAdqWgBKSgBDSUxDaQ0xD6XNAgpc0FC5p1IYUUgAkBSScAVmXWoHa3l/d9uSa48VV5Vyo2owu7sy2k3CSQyIMH7xPQ/wBKijjXf5ju0rY6lOg9BXnHWMkBk+YJiMdTypPTngc9qjE9xFkRLbx/NwpJBP6df8aQC7rvO3iWQdSeACen4UrhnbczvFyehxn68UATRLsDeYFCk9d+f8j8qe8ybsbgWzj3/wDrUAJwemCCMZYcVMpdDkHJPOMDAH+frQBbiuWjYYPTqK0YLhbiPevGOCD2Nd2Fq68rOetBWuiSjNegcw6igBKO1ACUlAhpppqgHUUCHUUhi5pc0hgDzSlgOpA+tJtJAldmRfX2SUBJU8bV6n/63vmqG878BJJMHHJAT/P4V41WblK53wjyqwrlo13DHfCxpyfYE8CoZImkJDqUUEDAbk/kfesyhkyK21WaXBP3VcgEf5/Gn4jzlfLUjuByB9aAIpRgZU7s4yOBuGPU9aAGwB5bKMZ2OuM/j/nrQAoSUqpfakmOBtH9cHNP3spw23jnBGM/j0oAPOyW3si9+ScH0PNEcgZcoFIJ57Z9jigCdXIRsZCnn5e2frVm3mMZDjIH6H61UZOLuiWro1opkmXcp+o9Kkr2YSUopo4WrOw6irEJRQA3mkNAhO9NNMB2KXFMQtLSKDFH1pAL2rLvrxmPkxqcBsMfWuXFVOWFl1NqMbyuUlXbkBc98Lx0qPl8CRdxHJGeAa8s6xvygsQQ0hHOCTjJ7f57VXaWXnyvm54dlyf589KAFX5UG4vuJzuduvt6Y/woQQF2LMpkxzyOP89aAFWNUcybxggcsQc/0qFkw4ODwc/eK/hnv16UASo0PmYkdj3DE8fTFLlTwgUYPODigBGSQKHilK89GJwfWgO53ZCMef8A9X1/SgBwwwMiyFe/PUGnxt2YEEdwAP8AIoAuWtw0T7sgjuM1tRyLIgYdDXoYSenKctaOvMPNJmu4wDNJQA2gmgBtIaYiWimAtLSGLTJJFijLt0H61E5cseZjSu7GZLfzSEhfkXsB/jVNmUk5ZdoOScjivHnUc3dnbGCihH3KhZvlxyxUnd7f15qvv3k7xhBz8xBBPv8ATrWZQyK4hnDAsGw2z5clfzxSsMt90hehLdW/T1NAwDcYGMkY5bG38fTr0qPIVhvyXPJJbIH44oAR2Zx/eyeQSeOevTH/AOqmrOcMiBxtJGXUjP596AFXHksZMbc/MMLn8cen9KYiwpCvkvw53JvPBP1/z1oAcqKuJGbym/i2ncp+uR+tPIIC7iMD+LcfzHv7UwEjlB3GNSjA/MM1IZNo+YFuxPGf8MUgJI5Rk5BA6cnitXTXO51zxjgeldGHdqiMqi91mjSGvWOMM0hNABmkzQAmabmgRNRVALTqTGHaqOqMRbrjj5uvpWGI/hsun8SMaLJ3bADycktipyPmG4AsDkLnv615B2kcu3BQFgW4bA/nUEyxqPmALNxsHQ/5/pQBAXS3xuZemRkHC/0HepVLOu5wPZQe39aQxvzbR0C46YI4FKULMAG3NnHJJFAEIUCQOAVJHJJyD+f/ANanYVF3Ru2QCSNxyB+uaAGSO0Z+aNxuXOQM/h9KYkyJJvi4Rydw6YNMBzyeYokiUk54bn6c47e1NjvFdijjDKTuABAB6elAErttYFM7k+6FGaat0+WWWCQYOCcfrQBKqnbujPB+8Bk//qq5bXBjkDjPHH1FVF2dyZK6N5WyM0ufSvaTucAhNJTAOaTJoATNJQBNS1Qh2KXFIYYqK5jEkLKRnNZ1FeLQ4/EjCjieJuhCnnnqKc8zryqgnnbzivFO8rkbGJdXZhjkfw+9QS/OFbycyH5gWA4Bz+Xf3oAjJDOzISmM7mI649e3FLG67jE24HGSDkcHp+FAyQDO484Byu6T+tHmL2VmxkZD8fTrSAYqKj8nqc4PB/8ArcUKFKBfM2g9CDneP896AHCR9xBPyqRgknn8KZI3BBwMkgHvn8fpTERqzKXU7Bxn5OnHf6deaV0yA4A3HgbumfQn+tAxSGIWMnBHOSMgc+v6ULGxG4yRnHBJBGP/AK3tQAIxADbtvZlPSp4pMscYJHXn8qaEbdjK0kR3MDt4wKt9q9ag7wRxTVpCGkrYgWigApppgS04GmIWlzUjFprHg/SlLYFuYZ2qZDg8sfriqvMjliuFXoSeW/z/AErxJbneiN5HAVwR8w+4CeOPbrUJkeGZj5YwMbmz3P6elIogd2RDnJC4JJAHzcn8OuKY8sQniCqCQxBKjGfx+v8AI0AXC38WBx3zzSLgtuK8ngEjrzSERy5MTI+QSeNvX1z39KYCwAG8MD/CF6f0HemMdtkLFwWDE/dbkAfh/n605BGWWNmXpwAPT0oAiLKE+dwu7gqRwxHuaQH5dg2rg9S/+ecUABQ/MJCQrcEtzk59c9Kf5SOyyxyMGxxluvsc84oAcZAGZCFD4z8xxx7+1SL8pUjO7GQOuaBGlp8n+kDGRuHStXJNenhH7ljkrL3gwaO1dRkOFFABim0ASUoqhC5ozUjFyaY5YoV4yRilLYa3MaSXe7FmxgntiqrYeQozDykxnnP4fWvEludyIZJI2ZpBGQoyAcckdf8AH8qgY+ZKwix8wyu5/wBfekURZ2iQK26QEj5ucHqOB/SmQRvFNvkBjVRgIOq59B/nrQBZaUb2ALDbnjb169Pr9P8A6zA6pklmHoOmKBDkYoSTx/tDp+XWmpcvPM+zYVOAMkZ+ooGPH3ixY/ewcN1P6VVcKJiuCI+wXoPp/n1oAmEm1tofhTwV7fnS+XCX8zysuRngYyPWgBoCzvgeW2B90kqw+g//AFU35UTI+VCcKxPXHY4oAmDJsKqzf7J3cZ9PpmnxM3II2Ac4yOv4UxFq1ZWuIz/tDgdMV0Irvwa91nLW3CjHeu0xFFLQA2mmgB+aXNMQhNGaQwzSM3GMHnjik9hox5UCSMoZcZyMfhVSRwFZd/J4wCQB/n1rxZKzO5bFfOxlY+X5uB8rgkDjAH1yP1qAFHiMjSCHeMiRm5J749Oe1SURRo4jCrIvmlss7E4wD0pI5R5brmNpFB3IgwAcnrjn86LANZYxMJsybiSCM5wACcfT9ae0q7liTdGBjgocf54oAc+7eyBlGODkd/fn/PFLuJbdIB52MEk446kcUAKAXkyDx0zjOeOn060hb5wgAGepAGDQA0xRy5RHeMn0747gHvUa5jyBM0mB0dRkgfQcj8M0ATbTJ+8CDzPQ5x+VPcrl5H4Zsjv26fX8aAFXKryy4Xjft6CnKwJ3MPmJzw2R/n6UCZPEzeajKCcN0zXTA134Pqc1foLkUma7jAXNGaACm0AA6UuaYgpe1IYDJYjBwO/rS7aOgGXeRCKbcvcZA6VmSjdMgyCoBHH4Y4/KvHqq02jtg/dRWuCTGPn2LGcIxXqSQc/hVcunmiSWIswUEqh6E4H8iKzLQilMyHY67pAE3Zwc8c+g5qBDCJW5iLRNk7eCT9fSgYRXIa4kupQMkAKxcEHr349v8irM12qooEqshO0DOSTxgD69fyosA1lG0SzHDngsflUE+uajguo5zsSSLPAxv5bjsKQh3nCJtrAoME5yKVfLlVhG3nZ6FWGBjp9e1PUCJbj/AEhIpk8uQZwOuT2/ClLQKyBcK/ZVPNAyQB3TcsqnPQeXk5zxznpmkVpP4wDxjAzwfpzxQIdJKsKlnZgqLl1I4x34pYpVZwN2QQdrA53UJAy0n3wOW5Hyr3FdOnCADOAO9d+E6nNW6C5pc8V2mAop1ACUhoAQU6mIXFOpDFHSjNAGbqGwhVzlwc4JrLmRlYsWwFHOK8rEfxGddK/KVpCSvlKCqZUEAckemfXFVNgjDBJAgHGxW447gkZArA1Ag7CMsAScLnjH17np/nNU/OmnuEthYFAG+Z92UHvnPPBHHWmlcZckmhAWN42ljUZKiEsueMc9P89qq+Tb/aN4hgSeQ8vHgMo+pHt3pLYC3KT5qRgZOeSeo/x6Ux1gcEsrPuA+58rHp3GO3fjp2oQFMWMdu7MsCO7MGjeZzJnrwC2Sv5VLDdRTbTMkJK9GXacn2IPFU9RC6iIjCkUrZUnqz7T+fXHtmkg2RLtjhj8vuQvJ7/n9aXSwyRXUk4yEXkgR4OPx/wA+lOHlpwqHb97G7IH09PoMfSkIcrDbxIeegfB6e1PHzqMgkc++BycelNAXbOPzLmPaM885BIFdLXoYRaNnNWeoUfSuswFHFFACZpCc0AKKcKYh3NLSGLRigCteIDCWIPGM49KwLj5pCSpJ549P84rzcWrTudNF6WIWDfKQcAEEkfXNU0RW8yQAuWyMsnzFun5dK5TdDmZmZeU3EnHdgfp3qtIjTuYjJKpK/NIB9OPTr2oGIftAhSO4ufnJ5eJQuVxzkHJ6f0qAXLTyzqkbuQAI2K7R6Z/X0pgS7XFxvmuZcqM7hgbfwqZJohEoi3DavDSg5A/L/wCtRuBD56faSk/mNESSu0MR75I/H86hutJt72RZUeOLbyjoCCQPX2oTswGLp0UMweS+8yZuFMnIB6/0pzSx2kgeSBpg3IeKPKj0IBOfyp7sOhLEZZn3SRutuM4zkZ+o7d6k3RqcL5YRhuP95s+/SkA5sb22mTpzkcDPp+tSAqPmDFmPPNAja0WFjumPT7orY3Yr1MPG0NTjqu8hd1OzW5mOFL2oAb+FJjFADhTxVCFzS8UhgKWkBFc7vs8gVgrEYBPauadEGQTlm64Nefi/iR00LWK0igyfMTwuAAR/Sq2WTcu44TBf92Rn1y31PauM3I2uV2Sb3fAO0iJGbPPPOP8AOKrQpfSIzySwQqzZyFJb2yDkdhVK1tRksTmMNuu5ZicnHl449PlFOW6kJMMQkzxukdQQOmfx+maT1AmmkUWzSM8gUDop6mq5gtZ8tMryoPmwy42j60kARtGiLHE8ESoRtWNwM89Dxxz3qVoLcNvmIMid85Zvr+VPUCCPY80n2aGI7yA28EZ454HQY9vzqVFkt1ba0Q3Htgk++eM0MBj3F4rk+TJKD0ZGAXtyc4P86EE4mZAqoxY5VTxye/Gc07IBSgiTy2aVhkcdhnA4/L/Oangje5kWIbgzdwM8etOKu7Et6HXQxLFEqKMADFSYr14qyscLd2JQDVCJAaN2RQAZpCaAHU761RIuaWkULmjPFIBjHNYeoW5hl3ovyN1PpXNiYXhc1pO0jMZW3nG7apDYB/Wq8mSFTy/MSPAVW4z+n415p1ld/MA2FxAo52IuSB6k+lI08Sru+d5AoJXZyWxjn/PagCHypbpTvZVG3lIjjcT2z1xx2qeO0ZUXY5hMhB5P+P0pgI7zySBUl3gHLBVIAyPypbhlUIjSISPnLOc4+mecnPtSSGKHG5Wtx7b+g/WlEREmXxIxGSR0zx0pgEvmxJksig8gKefpSCNcb2yzNzuPH9OTSAYWEkgkV3A7nB9ffjP4Ub5Cp6Bc5AAwfxpiHOSigDg+uOvNdHpVnHDCsm0GRxnJHI9q6sNG8tTGs7KxqZozXecoZpc9qYC596M0AJuo3cUASg0tUSLzRmkMKQmkMaTUM6LLGyN0IpSV1YE7O5z8+5ZCpHIOKpl9sZABwTkn/PtXjSVnY74u6uUBB5ryBmZfNOwDPRRx0PSn4P2lmOOfmJPAyPQZ6YoGM3XbsyIi/vGJyG4x9fQf1pTHJGcrICo+UKGBGfYdvz/KjYCRBJGmwMBIG4VFJP49vyp4icSM5UMG65Tr9eM+lICRCUQeYyr0AxgZPb6VC1wpkTyOHBPzkjae2Bjr9aAItyQOJPmLE5bAxz7Z/KnKzLsctsYjblznA/TtTsAebvJPm79vrx+fNKSHTI645wKaBmjpForMJyucEhcnOD3roE6CvRoRtE46kryJQeKWtzMKWmAUUAJTaYifNLmmIUtSZpDE3H1pC1IY0tzUbMcUAZmpQnZ5yjkHB+lY8m5gSnqMEda8zERtUOuk/dI5H2qAvAVug64qukUlzK8nylSPlBIAHSsEakjwxLGzTnAOAw3EcdgMdKhhMZKt5J8sDaqhj9CfXr60ATncqsAsmCNp4J3H05qNyh2tKzqu7HUjPH+fzpAN2QuNwclAfl3jgY/D/OKasgwFUBjycop7dyfSmA4SsQBxsJ+9jHPr/KmfO0hlRQoxkZHQUAEjoMAEtyOG6epq5Z2hvHG77gOWPb6CtaUOaViJytG50cUaxoqqoAAwAKnU16iVkcQ/NOzQA4UCmAUUAIabTES5pc8UxBkUE0hiEimluaQxM80hoAjkQSRsh7jFYElqYnaNxhu2309a4sXHaR0UX0KdxC4TLruA7DvxUTeYyKvl8LyB0x+XNcSOgjbzZNuSMB93AySAc9/pmmLIwZxDuO3GGHf160ACs3TdKxx90KCD7YFOVycBVby1GOevT6cU7AMGHZdgy3JIDcD9fpQ/3wGk3EEnH90k8mgBm9BtJ3CMEEtndt9B+NIWZsODx/Cp5xQK+hLb28lxJtUFz3OeldPbQC3iWNeg612YeHVnPWl9ktDinBq7bGA4MacDQA4NTt1AAGozQAGmmmSTUnemAh60Ht9aBgab3qRiUHpQAnY/Ss69/wBb/wABrmxP8NmlL4jPPf8A3v61Xm/1yf71eadhnHqn1P8ASnn/AI9X/wB/+lN7AVpP9Uf91f5mn3//AB8D6GmgCLrL9V/nVRf9V+H9RTYFhOq/59aP4z/vf1NCEtzd0P8A1Ev+/wD0rYWvTp/CjjfxMf2o/iq1sTL/ACHCnimtjOPwijrTh0pvc0YDrS03uJgOhpDQiT//2QD/4THoaHR0cDovL25zLmFkb2JlLmNvbS94YXAvMS4wLwA8P3hwYWNrZXQgYmVnaW49J++7vycgaWQ9J1c1TTBNcENlaGlIenJlU3pOVGN6a2M5ZCc/Pg0KPHg6eG1wbWV0YSB4bWxuczp4PSJhZG9iZTpuczptZXRhLyI+PHJkZjpSREYgeG1sbnM6cmRmPSJodHRwOi8vd3d3LnczLm9yZy8xOTk5LzAyLzIyLXJkZi1zeW50YXgtbnMjIj48cmRmOkRlc2NyaXB0aW9uIHJkZjphYm91dD0idXVpZDpmYWY1YmRkNS1iYTNkLTExZGEtYWQzMS1kMzNkNzUxODJmMWIiIHhtbG5zOnhtcD0iaHR0cDovL25zLmFkb2JlLmNvbS94YXAvMS4wLyI+PHhtcDpDcmVhdG9yVG9vbD5XaW5kb3dzIFBob3RvIEVkaXRvciAxMC4wLjEwMDExLjE2Mzg0PC94bXA6Q3JlYXRvclRvb2w+PHhtcDpDcmVhdGVEYXRlPjIwMTktMTEtMTJUMTE6NDk6NDcuNzU4PC94bXA6Q3JlYXRlRGF0ZT48L3JkZjpEZXNjcmlwdGlvbj48L3JkZjpSREY+PC94OnhtcG1ldGE+DQogICAgICAgICAgICAgICAgICAgICAgICAgICAgICAgICAgICAgICAgICAgICAgICAgICAgICAgICAgICAgICAgICAgICAgICAgICAgICAgICAgICAgICAgICAgICAgICAgICAgCiAgICAgICAgICAgICAgICAgICAgICAgICAgICAgICAgICAgICAgICAgICAgICAgICAgICAgICAgICAgICAgICAgICAgICAgICAgICAgICAgICAgICAgICAgICAgICAgICAgICAKICAgICAgICAgICAgICAgICAgICAgICAgICAgICAgICAgICAgICAgICAgICAgICAgICAgICAgICAgICAgICAgICAgICAgICAgICAgICAgICAgICAgICAgICAgICAgICAgICAgIAogICAgICAgICAgICAgICAgICAgICAgICAgICAgICAgICAgICAgICAgICAgICAgICAgICAgICAgICAgICAgICAgICAgICAgICAgICAgICAgICAgICAgICAgICAgICAgICAgICAgCiAgICAgICAgICAgICAgICAgICAgICAgICAgICAgICAgICAgICAgICAgICAgICAgICAgICAgICAgICAgICAgICAgICAgICAgICAgICAgICAgICAgICAgICAgICAgICAgICAgICAKICAgICAgICAgICAgICAgICAgICAgICAgICAgICAgICAgICAgICAgICAgICAgICAgICAgICAgICAgICAgICAgICAgICAgICAgICAgICAgICAgICAgICAgICAgICAgICAgICAgIAogICAgICAgICAgICAgICAgICAgICAgICAgICAgICAgICAgICAgICAgICAgICAgICAgICAgICAgICAgICAgICAgICAgICAgICAgICAgICAgICAgICAgICAgICAgICAgICAgICAgCiAgICAgICAgICAgICAgICAgICAgICAgICAgICAgICAgICAgICAgICAgICAgICAgICAgICAgICAgICAgICAgICAgICAgICAgICAgICAgICAgICAgICAgICAgICAgICAgICAgICAKICAgICAgICAgICAgICAgICAgICAgICAgICAgICAgICAgICAgICAgICAgICAgICAgICAgICAgICAgICAgICAgICAgICAgICAgICAgICAgICAgICAgICAgICAgICAgICAgICAgIAogICAgICAgICAgICAgICAgICAgICAgICAgICAgICAgICAgICAgICAgICAgICAgICAgICAgICAgICAgICAgICAgICAgICAgICAgICAgICAgICAgICAgICAgICAgICAgICAgICAgCiAgICAgICAgICAgICAgICAgICAgICAgICAgICAgICAgICAgICAgICAgICAgICAgICAgICAgICAgICAgICAgICAgICAgICAgICAgICAgICAgICAgICAgICAgICAgICAgICAgICAKICAgICAgICAgICAgICAgICAgICAgICAgICAgICAgICAgICAgICAgICAgICAgICAgICAgICAgICAgICAgICAgICAgICAgICAgICAgICAgICAgICAgICAgICAgICAgICAgICAgIAogICAgICAgICAgICAgICAgICAgICAgICAgICAgICAgICAgICAgICAgICAgICAgICAgICAgICAgICAgICAgICAgICAgICAgICAgICAgICAgICAgICAgICAgICAgICAgICAgICAgCiAgICAgICAgICAgICAgICAgICAgICAgICAgICAgICAgICAgICAgICAgICAgICAgICAgICAgICAgICAgICAgICAgICAgICAgICAgICAgICAgICAgICAgICAgICAgICAgICAgICAKICAgICAgICAgICAgICAgICAgICAgICAgICAgICAgICAgICAgICAgICAgICAgICAgICAgICAgICAgICAgICAgICAgICAgICAgICAgICAgICAgICAgICAgICAgICAgICAgICAgIAogICAgICAgICAgICAgICAgICAgICAgICAgICAgICAgICAgICAgICAgICAgICAgICAgICAgICAgICAgICAgICAgICAgICAgICAgICAgICAgICAgICAgICAgICAgICAgICAgICAgCiAgICAgICAgICAgICAgICAgICAgICAgICAgICAgICAgICAgICAgICAgICAgICAgICAgICAgICAgICAgICAgICAgICAgICAgICAgICAgICAgICAgICAgICAgICAgICAgICAgICAKICAgICAgICAgICAgICAgICAgICAgICAgICAgICAgICAgICAgICAgICAgICAgICAgICAgICAgICAgICAgICAgICAgICAgICAgICAgICAgICAgICAgICAgICAgICAgICAgICAgIAogICAgICAgICAgICAgICAgICAgICAgICAgICAgICAgICAgICAgICAgICAgICAgICAgICAgICAgICAgICAgICAgICAgICAgICAgICAgICAgICAgICAgICAgICAgICAgICAgICAgCiAgICAgICAgICAgICAgICAgICAgICAgICAgICAgICAgICAgICAgICAgICAgICAgICAgICAgICAgICAgICAgICAgICAgICAgICAgICAgICAgICAgICAgICAgICAgICAgICAgICAKICAgICAgICAgICAgICAgICAgICAgICAgICAgICAgICAgICAgICAgICAgICAgICAgICAgICAgICAgICAgICAgICAgICAgICAgICAgICAgICAgICAgICAgICAgICAgICAgICAgIAogICAgICAgICAgICAgICAgICAgICAgICAgICAgICAgICAgICAgICAgICAgICAgICAgICAgICAgICAgICAgICAgICAgICAgICAgICAgICAgICAgICAgICAgICAgICAgICAgICAgCiAgICAgICAgICAgICAgICAgICAgICAgICAgICAgICAgICAgICAgICAgICAgICAgICAgICAgICAgICAgICAgICAgICAgICAgICAgICAgICAgICAgICAgICAgICAgICAgICAgICAKICAgICAgICAgICAgICAgICAgICAgICAgICAgICAgICAgICAgICAgICAgICAgICAgICAgICAgICAgICAgICAgICAgICAgICAgICAgICAgICAgICAgICAgICAgICAgICAgICAgIAogICAgICAgICAgICAgICAgICAgICAgICAgICAgICAgICAgICAgICAgICAgICAgICAgICAgICAgICAgICAgICAgICAgICAgICAgICAgICAgICAgICAgICAgICAgICAgICAgICAgCiAgICAgICAgICAgICAgICAgICAgICAgICAgICAgICAgICAgICAgICAgICAgICAgICAgICAgICAgICAgICAgICAgICAgICAgICAgICAgICAgICAgICAgICAgICAgICAgICAgICAKICAgICAgICAgICAgICAgICAgICAgICAgICAgICAgICAgICAgICAgICAgICAgICAgICAgICAgICAgICAgICAgICAgICAgICAgICAgICAgICAgICAgICAgICAgICAgICAgICAgIAogICAgICAgICAgICAgICAgICAgICAgICAgICAgICAgICAgICAgICAgICAgICAgICAgICAgICAgICAgICAgICAgICAgICAgICAgICAgICAgICAgICAgICAgICAgICAgICAgICAgCiAgICAgICAgICAgICAgICAgICAgICAgICAgICAgICAgICAgICAgICAgICAgICAgICAgICAgICAgICAgICAgICAgICAgICAgICAgICAgICAgICAgICAgICAgICAgICAgICAgICAKICAgICAgICAgICAgICAgICAgICAgICAgICAgICAgICAgICAgICAgICAgICAgICAgICAgICAgICAgICAgICAgICAgICAgICAgICAgICAgICAgICAgICAgICAgICAgICAgICAgIAogICAgICAgICAgICAgICAgICAgICAgICAgICAgICAgICAgICAgICAgICAgICAgICAgICAgICAgICAgICAgICAgICAgICAgICAgICAgICAgICAgICAgICAgICAgICAgICAgICAgCiAgICAgICAgICAgICAgICAgICAgICAgICAgICAgICAgICAgICAgICAgICAgICAgICAgICAgICAgICAgICAgICAgICAgICAgICAgICAgICAgICAgICAgICAgICAgICAgICAgICAKICAgICAgICAgICAgICAgICAgICAgICAgICAgICAgICAgICAgICAgICAgICAgICAgICAgICAgICAgICAgICAgICAgICAgICAgICAgICAgICAgICAgICAgICAgICAgICAgICAgIAogICAgICAgICAgICAgICAgICAgICAgICAgICAgICAgICAgICAgICAgICAgICAgICAgICAgICAgICAgICAgICAgICAgICAgICAgICAgICAgICAgICAgICAgICAgICAgICAgICAgCiAgICAgICAgICAgICAgICAgICAgICAgICAgICAgICAgICAgICAgICAgICAgICAgICAgICAgICAgICAgICAgICAgICAgICAgICAgICAgICAgICAgICAgICAgICAgICAgICAgICAKICAgICAgICAgICAgICAgICAgICAgICAgICAgICAgICAgICAgICAgICAgICAgICAgICAgICAgICAgICAgICAgICAgICAgICAgICAgICAgICAgICAgICAgICAgICAgICAgICAgIAogICAgICAgICAgICAgICAgICAgICAgICAgICAgICAgICAgICAgICAgICAgICAgICAgICAgICAgICAgICAgICAgICAgICAgICAgICAgICAgICAgICAgICAgICAgICAgICAgICAgCiAgICAgICAgICAgICAgICAgICAgICAgICAgICAgICAgICAgICAgICAgICAgICAgICAgICAgICAgICAgICAgICAgICAgICAgICAgICAgICAgICAgICAgICAgICAgICAgICAgICAKICAgICAgICAgICAgICAgICAgICAgICAgICAgICAgICAgICAgICAgICAgICAgICAgICAgICAgICAgICAgICAgICAgICAgICAgICAgICAgICAgICAgICAgICAgICAgICAgICAgIAogICAgICAgICAgICAgICAgICAgICAgICAgICAgICAgICAgICAgICAgICAgICAgICAgICAgICAgICAgICAgICAgICAgICAgICAgICAgICAgICAgICAgICAgICAgICAgICAgICAgCiAgICAgICAgICAgICAgICAgICAgICAgICAgICAgICAgICAgICAgICAgICAgICAgICAgICAgICAgICAgICAgICAgICAgICAgICAgICAgICAgICAgICAgICAgICAgICAgICAgICAKICAgICAgICAgICAgICAgICAgICAgICAgICAgICAgICAgICAgICAgICAgICAgICAgICAgICAgICAgICAgICAgICAgICAgICAgICAgICAgICAgICAgICAgICAgICAgICAgICAgIAogICAgICAgICAgICAgICAgICAgICAgICAgICAgICAgICAgICAgICAgICAgICAgICAgICAgICAgICAgICAgICAgICAgICAgICAgICAgICAgICAgICAgICAgICAgICAgICAgICAgCiAgICAgICAgICAgICAgICAgICAgICAgICAgICAgICAgICAgICAgICAgICAgICAgICAgICAgICAgICAgICAgICAgICAgICAgICAgICAgICAgICAgICAgICAgICAgICAgICAgICAKICAgICAgICAgICAgICAgICAgICAgICAgICAgICAgICAgICAgICAgICAgICAgICAgICAgICAgICAgICAgICAgICAgICAgICAgICAgICAgICAgICAgICAgICAgICAgICAgICAgIAogICAgICAgICAgICAgICAgICAgICAgICAgICAgICAgICAgICAgICAgICAgICAgICAgICAgICAgICAgICAgICAgICAgICAgICAgICAgICAgICAgICAgICAgICAgICAgICAgICAgCiAgICAgICAgICAgICAgICAgICAgICAgICAgICAgICAgICAgICAgICAgICAgICAgICAgICAgICAgICAgICAgICAgICAgICAgICAgICAgICAgICAgICAgICAgICAgICAgICAgICAKICAgICAgICAgICAgICAgICAgICAgICAgICAgICAgICAgICAgICAgICAgICAgICAgICAgICAgICAgICAgICAgICAgICAgICAgICAgICAgICAgICAgICAgICAgICAgICAgICAgIAogICAgICAgICAgICAgICAgICAgICAgICAgICAgICAgICAgICAgICAgICAgICAgICAgICAgICAgICAgICAgICAgICAgICAgICAgICAgICAgICAgICAgICAgICAgICAgICAgICAgCiAgICAgICAgICAgICAgICAgICAgICAgICAgICAgICAgICAgICAgICAgICAgICAgICAgICAgICAgICAgICAgICAgICAgICAgICAgICAgICAgICAgICAgICAgICAgICAgICAgICAKICAgICAgICAgICAgICAgICAgICAgICAgICAgICAgICAgICAgICAgICAgICAgICAgICAgICAgICAgICAgICAgICAgICAgICAgICAgICAgICAgICAgICAgICAgICAgICAgICAgIAogICAgICAgICAgICAgICAgICAgICAgICAgICAgICAgICAgICAgICAgICAgICAgICAgICAgICAgICAgICAgICAgICAgICAgICAgICAgICAgICAgICAgICAgICAgICAgICAgICAgCiAgICAgICAgICAgICAgICAgICAgICAgICAgICAgICAgICAgICAgICAgICAgICAgICAgICAgICAgICAgICAgICAgICAgICAgICAgICAgICAgICAgICAgICAgICAgICAgICAgICAKICAgICAgICAgICAgICAgICAgICAgICAgICAgICAgICAgICAgICAgICAgICAgICAgICAgICAgICAgICAgICAgICAgICAgICAgICAgICAgICAgICAgICAgICAgICAgICAgICAgIAogICAgICAgICAgICAgICAgICAgICAgICAgICAgICAgICAgICAgICAgICAgICAgICAgICAgICAgICAgICAgICAgICAgICAgICAgICAgICAgICAgICAgICAgICAgICAgICAgICAgCiAgICAgICAgICAgICAgICAgICAgICAgICAgICAgICAgICAgICAgICAgICAgICAgICAgICAgICAgICAgICAgICAgICAgICAgICAgICAgICAgICAgICAgICAgICAgICAgICAgICAKICAgICAgICAgICAgICAgICAgICAgICAgICAgICAgICAgICAgICAgICAgICAgICAgICAgICAgICAgICAgICAgICAgICAgICAgICAgICAgICAgICAgICAgICAgICAgICAgICAgIAogICAgICAgICAgICAgICAgICAgICAgICAgICAgICAgICAgICAgICAgICAgICAgICAgICAgICAgICAgICAgICAgICAgICAgICAgICAgICAgICAgICAgICAgICAgICAgICAgICAgCiAgICAgICAgICAgICAgICAgICAgICAgICAgICAgICAgICAgICAgICAgICAgICAgICAgICAgICAgICAgICAgICAgICAgICAgICAgICAgICAgICAgICAgICAgICAgICAgICAgICAKICAgICAgICAgICAgICAgICAgICAgICAgICAgICAgICAgICAgICAgICAgICAgICAgICAgICAgICAgICAgICAgICAgICAgICAgICAgICAgICAgICAgICAgICAgICAgICAgICAgIAogICAgICAgICAgICAgICAgICAgICAgICAgICAgICAgICAgICAgICAgICAgICAgICAgICAgICAgICAgICAgICAgICAgICAgICAgICAgICAgICAgICAgICAgICAgICAgICAgICAgCiAgICAgICAgICAgICAgICAgICAgICAgICAgICAgICAgICAgICAgICAgICAgICAgICAgICAgICAgICAgICAgICAgICAgICAgICAgICAgICAgICAgICAgICAgICAgICAgICAgICAKICAgICAgICAgICAgICAgICAgICAgICAgICAgICAgICAgICAgICAgICAgICAgICAgICAgICAgICAgICAgICAgICAgICAgICAgICAgICAgICAgICAgICAgICAgICAgICAgICAgIAogICAgICAgICAgICAgICAgICAgICAgICAgICAgICAgICAgICAgICAgICAgICAgICAgICAgICAgICAgICAgICAgICAgICAgICAgICAgICAgICAgICAgICAgICAgICAgICAgICAgCiAgICAgICAgICAgICAgICAgICAgICAgICAgICAgICAgICAgICAgICAgICAgICAgICAgICAgICAgICAgICAgICAgICAgICAgICAgICAgICAgICAgICAgICAgICAgICAgICAgICAKICAgICAgICAgICAgICAgICAgICAgICAgICAgICAgICAgICAgICAgICAgICAgICAgICAgICAgICAgICAgICAgICAgICAgICAgICAgICAgICAgICAgICAgICAgICAgICAgICAgIAogICAgICAgICAgICAgICAgICAgICAgICAgICAgICAgICAgICAgICAgICAgICAgICAgICAgICAgICAgICAgICAgICAgICAgICAgICAgICAgICAgICAgICAgICAgICAgICAgICAgCiAgICAgICAgICAgICAgICAgICAgICAgICAgICAgICAgICAgICAgICAgICAgICAgICAgICAgICAgICAgICAgICAgICAgICAgICAgICAgICAgICAgICAgICAgICAgICAgICAgICAKICAgICAgICAgICAgICAgICAgICAgICAgICAgICAgICAgICAgICAgICAgICAgICAgICAgICAgICAgICAgICAgICAgICAgICAgICAgICAgICAgICAgICAgICAgICAgICAgICAgIAogICAgICAgICAgICAgICAgICAgICAgICAgICAgICAgICAgICAgICAgICAgICAgICAgICAgICAgICAgICAgICAgICAgICAgICAgICAgICAgICAgICAgICAgICAgICAgICAgICAgCiAgICAgICAgICAgICAgICAgICAgICAgICAgICAgICAgICAgICAgICAgICAgICAgICAgICAgICAgICAgICAgICAgICAgICAgICAgICAgICAgICAgICAgICAgICAgICAgICAgICAKICAgICAgICAgICAgICAgICAgICAgICAgICAgICAgICAgICAgICAgICAgICAgICAgICAgICAgICAgICAgICAgICAgICAgICAgICAgICAgICAgICAgICAgICAgICAgICAgICAgIAogICAgICAgICAgICAgICAgICAgICAgICAgICAgICAgICAgICAgICAgICAgICAgICAgICAgICAgICAgICAgICAgICAgICAgICAgICAgICAgICAgICAgICAgICAgICAgICAgICAgCiAgICAgICAgICAgICAgICAgICAgICAgICAgICAgICAgICAgICAgICAgICAgICAgICAgICAgICAgICAgICAgICAgICAgICAgICAgICAgICAgICAgICAgICAgICAgICAgICAgICAKICAgICAgICAgICAgICAgICAgICAgICAgICAgICAgICAgICAgICAgICAgICAgICAgICAgICAgICAgICAgICAgICAgICAgICAgICAgICAgICAgICAgICAgICAgICAgICAgICAgIAogICAgICAgICAgICAgICAgICAgICAgICAgICAgICAgICAgICAgICAgICAgICAgICAgICAgICAgICAgICAgICAgICAgICAgICAgICAgICAgICAgICAgICAgICAgICAgICAgICAgCiAgICAgICAgICAgICAgICAgICAgICAgICAgICAgICAgICAgICAgICAgICAgICAgICAgICAgICAgICAgICAgICAgICAgICAgICAgICAgICAgICAgICAgICAgICAgICAgICAgICAKICAgICAgICAgICAgICAgICAgICAgICAgICAgICAgICAgICAgICAgICAgICAgICAgICAgICAgICAgICAgICAgICAgICAgICAgICAgICAgICAgICAgICAgICAgICAgICAgICAgIAogICAgICAgICAgICAgICAgICAgICAgICAgICAgICAgICAgICAgICAgICAgICAgICAgICAgICAgICAgICAgICAgICAgICAgICAgICAgICAgICAgICAgICAgICAgICAgICAgICAgCiAgICAgICAgICAgICAgICAgICAgICAgICAgICAgICAgICAgICAgICAgICAgICAgICAgICAgICAgICAgICAgICAgICAgICAgICAgICAgICAgICAgICAgICAgICAgICAgICAgICAKICAgICAgICAgICAgICAgICAgICAgICAgICAgICAgICAgICAgICAgICAgICAgICAgICAgICAgICAgICAgICAgICAgICAgICAgICAgICAgICAgICAgICAgICAgICAgICAgICAgIAogICAgICAgICAgICAgICAgICAgICAgICAgICAgICAgICAgICAgICAgICAgICAgICAgICAgICAgICAgICAgICAgICAgICAgICAgICAgICAgICAgICAgICAgICAgICAgICAgICAgCiAgICAgICAgICAgICAgICAgICAgICAgICAgICAgICAgICAgICAgICAgICAgICAgICAgICAgICAgICAgICAgICAgICAgICAgICAgICAgICAgICAgICAgICAgICAgICAgICAgICAKICAgICAgICAgICAgICAgICAgICAgICAgICAgICAgICAgICAgICAgICAgICAgICAgICAgICAgICAgICAgICAgICAgICAgICAgICAgICAgICAgICAgICAgICAgICAgICAgICAgIAogICAgICAgICAgICAgICAgICAgICAgICAgICAgICAgICAgICAgICAgICAgICAgICAgICAgICAgICAgICAgICAgICAgICAgICAgICAgICAgICAgICAgICAgICAgICAgICAgICAgCiAgICAgICAgICAgICAgICAgICAgICAgICAgICAgICAgICAgICAgICAgICAgICAgICAgICAgICAgICAgICAgICAgICAgICAgICAgICAgICAgICAgICAgICAgICAgICAgICAgICAKICAgICAgICAgICAgICAgICAgICAgICAgICAgICAgICAgICAgICAgICAgICAgICAgICAgICAgICAgICAgICAgICAgICAgICAgICAgICAgICAgICAgICAgICAgICAgICAgICAgIAogICAgICAgICAgICAgICAgICAgICAgICAgICAgICAgICAgICAgICAgICAgICAgICAgICAgICAgICAgICAgICAgICAgICAgICAgICAgICAgICAgICAgICAgICAgICAgICAgICAgCiAgICAgICAgICAgICAgICAgICAgICAgICAgICAgICAgICAgICAgICAgICAgICAgICAgICAgICAgICAgICAgICAgICAgICAgICAgICAgICAgICAgICAgICAgICAgICAgICAgICAKICAgICAgICAgICAgICAgICAgICAgICAgICAgICAgICAgICAgICAgICAgICAgICAgICAgICAgICAgICAgICAgICAgICAgICAgICAgICAgICAgICAgICAgICAgICAgICAgICAgIAogICAgICAgICAgICAgICAgICAgICAgICAgICAgICAgICAgICAgICAgICAgICAgICAgICAgICAgICAgICAgICAgICAgICAgICAgICAgICAgICAgICAgICAgICAgICAgICAgICAgCiAgICAgICAgICAgICAgICAgICAgICAgICAgICAgICAgICAgICAgICAgICAgICAgICAgICAgICAgICAgICAgICAgICAgICAgICAgICAgICAgICAgICAgICAgICAgICAgICAgICAKICAgICAgICAgICAgICAgICAgICAgICAgICAgICAgICAgICAgICAgICAgICAgICAgICAgICAgICAgICAgICAgICAgICAgICAgICAgICAgICAgICAgICAgICAgICAgICAgICAgIAogICAgICAgICAgICAgICAgICAgICAgICAgICAgICAgICAgICAgICAgICAgICAgICAgICAgICAgICAgICAgICAgICAgICAgICAgICAgICAgICAgICAgICAgICAgICAgICAgICAgCiAgICAgICAgICAgICAgICAgICAgICAgICAgICAgICAgICAgICAgICAgICAgICAgICAgICAgICAgICAgICAgICAgICAgICAgICAgICAgICAgICAgICAgICAgICAgICAgICAgICAKICAgICAgICAgICAgICAgICAgICAgICAgICAgICAgICAgICAgICAgICAgICAgICAgICAgICAgICAgICAgICAgICAgICAgICAgICAgICAgICAgICAgICAgICAgICAgICAgICAgIAogICAgICAgICAgICAgICAgICAgICAgICAgICAgICAgICAgICAgICAgICAgICAgICAgICAgICAgICAgICAgICAgICAgICAgICAgICAgICAgICAgICAgICAgICAgICAgICAgICAgCiAgICAgICAgICAgICAgICAgICAgICAgICAgICAgICAgICAgICAgICAgICAgICAgICAgICAgICAgICAgICAgICAgICAgICAgICAgICAgICAgICAgICAgICAgICAgICAgICAgICAKICAgICAgICAgICAgICAgICAgICAgICAgICAgICAgICAgICAgICAgICAgICAgICAgICAgICAgICAgICAgICAgICAgICAgICAgICAgICAgICAgICAgICAgICAgICAgICAgICAgIAogICAgICAgICAgICAgICAgICAgICAgICAgICAgICAgICAgICAgICAgICAgICAgICAgICAgICAgICAgICAgICAgICAgICAgICAgICAgICAgICAgICAgICAgICAgICAgICAgICAgCiAgICAgICAgICAgICAgICAgICAgICAgICAgICAgICAgICAgICAgICAgICAgICAgICAgICAgICAgICAgICAgICAgICAgICAgICAgICAgICAgICAgICAgICAgICAgICAgICAgICAKICAgICAgICAgICAgICAgICAgICAgICAgICAgICAgICAgICAgICAgICAgICAgICAgICAgICAgICAgICAgICAgICAgICAgICAgICAgICAgICAgICAgICAgICAgICAgICAgICAgIAogICAgICAgICAgICAgICAgICAgICAgICAgICAgICAgICAgICAgICAgICAgICAgICAgICAgICAgICAgICAgICAgICAgICAgICAgICAgICAgICAgICAgICAgICAgICAgICAgICAgCiAgICAgICAgICAgICAgICAgICAgICAgICAgICAgICAgICAgICAgICAgICAgICAgICAgICAgICAgICAgICAgICAgICAgICAgICAgICAgICAgICAgICAgICAgICAgICAgICAgICAKICAgICAgICAgICAgICAgICAgICAgICAgICAgICAgICAgICAgICAgICAgICAgICAgICAgICAgICAgICAgICAgICAgICAgICAgICAgICAgICAgICAgICAgICAgICAgICAgICAgIAogICAgICAgICAgICAgICAgICAgICAgICAgICAgICAgICAgICAgICAgICAgICAgICAgICAgICAgICAgICAgICAgICAgICAgICAgICAgICAgICAgICAgICAgICAgICAgICAgICAgCiAgICAgICAgICAgICAgICAgICAgICAgICAgICAgICAgICAgICAgICAgICAgICAgICAgICAgICAgICAgICAgICAgICAgICAgICAgICAgICAgICAgICAgICAgICAgICAgICAgICAKICAgICAgICAgICAgICAgICAgICAgICAgICAgICAgICAgICAgICAgICAgICAgICAgICAgICAgICAgICAgICAgICAgICAgICAgICAgICAgICAgICAgICAgICAgICAgICAgICAgIAogICAgICAgICAgICAgICAgICAgICAgICAgICAgICAgICAgICAgICAgICAgICAgICAgICAgICAgICAgICAgICAgICAgICAgICAgICAgICAgICAgICAgICAgICAgICAgICAgICAgCiAgICAgICAgICAgICAgICAgICAgICAgICAgICAgICAgICAgICAgICAgICAgICAgICAgICAgICAgICAgICAgICAgICAgICAgICAgICAgICAgICAgICAgICAgICAgICAgICAgICAKICAgICAgICAgICAgICAgICAgICAgICAgICAgICAgICAgICAgICAgICAgICAgICAgICAgICAgICAgICAgICAgICAgICAgICAgICAgICAgICAgICAgICAgICAgICAgICAgICAgIAogICAgICAgICAgICAgICAgICAgICAgICAgICAgICAgICAgICAgICAgICAgICAgICAgICAgICAgICAgICAgICAgICAgICAgICAgICAgICAgICAgICAgICAgICAgICAgICAgICAgCiAgICAgICAgICAgICAgICAgICAgICAgICAgICAgICAgICAgICAgICAgICAgICAgICAgICAgICAgICAgICAgICAgICAgICAgICAgICAgICAgICAgICAgICAgICAgICAgICAgICAKICAgICAgICAgICAgICAgICAgICAgICAgICAgICAgICAgICAgICAgICAgICAgICAgICAgICAgICAgICAgICAgICAgICAgICAgICAgICAgICAgICAgICAgICAgICAgICAgICAgIAogICAgICAgICAgICAgICAgICAgICAgICAgICAgICAgICAgICAgICAgICAgICAgICAgICAgICAgICAgICAgICAgICAgICAgICAgICAgICAgICAgICAgICAgICAgICAgICAgICAgCiAgICAgICAgICAgICAgICAgICAgICAgICAgICAgICAgICAgICAgICAgICAgICAgICAgICAgICAgICAgICAgICAgICAgICAgICAgICAgICAgICAgICAgICAgICAgICAgICAgICAKICAgICAgICAgICAgICAgICAgICAgICAgICAgICAgICAgICAgICAgICAgICAgICAgICAgICAgICAgICAgICAgICAgICAgICAgICAgICAgICAgICAgICAgICAgICAgICAgICAgIAogICAgICAgICAgICAgICAgICAgICAgICAgICAgICAgICAgICAgICAgICAgICAgICAgICAgICAgICAgICAgICAgICAgICAgICAgICAgICAgICAgICAgICAgICAgICAgICAgICAgCiAgICAgICAgICAgICAgICAgICAgICAgICAgICAgICAgICAgICAgICAgICAgICAgICAgICAgICAgICAgICAgICAgICAgICAgICAgICAgICAgICAgICAgICAgICAgICAgICAgICAKICAgICAgICAgICAgICAgICAgICAgICAgICAgICAgICAgICAgICAgICAgICAgICAgICAgICAgICAgICAgICAgICAgICAgICAgICAgICAgICAgICAgICAgICAgICAgICAgICAgIAogICAgICAgICAgICAgICAgICAgICAgICAgICAgICAgICAgICAgICAgICAgICAgICAgICAgICAgICAgICAgICAgICAgICAgICAgICAgICAgICAgICAgICAgICAgICAgICAgICAgCiAgICAgICAgICAgICAgICAgICAgICAgICAgICAgICAgICAgICAgICAgICAgICAgICAgICAgICAgICAgICAgICAgICA8P3hwYWNrZXQgZW5kPSd3Jz8+/9sAQwADAgIDAgIDAwMDBAMDBAUIBQUEBAUKBwcGCAwKDAwLCgsLDQ4SEA0OEQ4LCxAWEBETFBUVFQwPFxgWFBgSFBUU/9sAQwEDBAQFBAUJBQUJFA0LDRQUFBQUFBQUFBQUFBQUFBQUFBQUFBQUFBQUFBQUFBQUFBQUFBQUFBQUFBQUFBQUFBQU/8AAEQgBSAHxAwEiAAIRAQMRAf/EAB8AAAEFAQEBAQEBAAAAAAAAAAABAgMEBQYHCAkKC//EALUQAAIBAwMCBAMFBQQEAAABfQECAwAEEQUSITFBBhNRYQcicRQygZGhCCNCscEVUtHwJDNicoIJChYXGBkaJSYnKCkqNDU2Nzg5OkNERUZHSElKU1RVVldYWVpjZGVmZ2hpanN0dXZ3eHl6g4SFhoeIiYqSk5SVlpeYmZqio6Slpqeoqaqys7S1tre4ubrCw8TFxsfIycrS09TV1tfY2drh4uPk5ebn6Onq8fLz9PX29/j5+v/EAB8BAAMBAQEBAQEBAQEAAAAAAAABAgMEBQYHCAkKC//EALURAAIBAgQEAwQHBQQEAAECdwABAgMRBAUhMQYSQVEHYXETIjKBCBRCkaGxwQkjM1LwFWJy0QoWJDThJfEXGBkaJicoKSo1Njc4OTpDREVGR0hJSlNUVVZXWFlaY2RlZmdoaWpzdHV2d3h5eoKDhIWGh4iJipKTlJWWl5iZmqKjpKWmp6ipqrKztLW2t7i5usLDxMXGx8jJytLT1NXW19jZ2uLj5OXm5+jp6vLz9PX29/j5+v/aAAwDAQACEQMRAD8A+mKNlFO57das45C/NTqauO/Wpk6UBygq06jZTqUjQKkTpUeynnoKkAHU0UbKKAFTpTvM9elMp9ADt393pRTVG5jTtlQWHl+9Lt6fNRSt900FC0fd4pp6Ckj6mpAeOpoo306gY2iiigoKdnHNNp1AC7t6ijZQv3TRxQA6m0g6mloAG+VgPenU3ZSDqagB9MHU0tFABRsqMjc1LsqwBvvCimUUAP2UxfvUb6WgBG3ZpaQdTRQAN+8IHpQY6XfSN9771ADdu2nUUUAKV+UUwbsmnUUAMpU6Ub6KCBJHqPfTm+U4oqogMfrTKc33jSsvy0ANb7tMp1NpkiN901HTvLp7LtUCqAZUTfeFS7KKAK6/epJKe8dN27aDPlIqhb7wqX+Kmt94UDG7Wop1FAF6nUwdTSr94VYD1+6afHSU9OlQA+kX71Lz2607/e60AFFG7/ZplBZMWyAKPLpvpTqADZTl/wBWfrTacv3TUAKit3pF5YipFbKgU1loKFX5tw9BTKWncHipAZRso+9x6VI3VfpQMRfun5e1Np1FBQU+mb6fQAUY3dKPu8HpRz3+72qAD7vB60fNT/vc0nmKpI/9lrKU4jG/e5pzfdoaRIV3F1A9aaskbDJkVgeh3Ue2h3L5Zh9elI33uenal86Nvl8xTjtuoLLIAPT/AGqPbQ7i5ZhSetLxSU+YgbQOtHmetO+8Mj7vetAGNupuP9mn9/lbio/4qAF8um7KdS1XMAynUL96n+XTAZS07ZTaAEEe4k0fd4pzfdNIv3TQAlMHU0+iPv8ASgBtFIOppcbuPWgBH6035V59acxx8vpTaCBg6mhvmUmn0x/92qAa33aZvp9EnQUAJTd9FJJTJG0Uq/dNI33TVCkMfrUT9amb7tMoJInTpUci09+tRN8xzQA35qKdRQZ8xdZaX0oUbmFS+XQaCqtOo+7xRQA6ilpF+9QAvzU6j5jxto+9x6UFj9lFM+aioKH43UL8rAUKtPoGI33hnpS+Xt5PQ9KQdTR93ipKClpNrUUAP3Z4pjfKcUbKKACnr900L900qrSASnqvymjg8N93vVXVNSj06MM7Luf7vrx6Vz1q0KUeeRpCDqS5S0uNvPArOvtcjt22J++Pf/Z96wrzXpmO0tgnlYlGTj1NYt1dO4EQWTz92/72xce/tXyOJzidT3aR7NDAQXvVTZ1TxpIjFYzvkLBNkJwVB/iP0rPl1y4vYZN0vyFgv+t5z7e9YdxKvnW8WxS+7LRquO/XP8X0pzXUVxHKH3MFBAWMbFH+5/WvEliKk/ikenGnTj8MS3c3aahHLA8rzQtgMrjb+vemNrFvZ+Xbme2gCYxEjZbHqaqy+VJbBbmR1WP53h5KHHIyR0NZF74w0zTrhjHKkkkWOIY8MB6ZPJ/CsudlWOmm1U3K8SSyRN8wZUXaMevtRb+Ink2sizeVGpX0BPoB3NcquoReIGaYyX1siqW3KWWOP2+pqd761SQWy37pKIlVy74xk8Mx9BRd9wsdxp/iKWUAMl1BngGddoP0rTg8TkRIzsjZJGW68V5pHrF5dSxQlLWaGT+NZGYtjvV221AOiqzeVEpIIk6Z9q6Y4qtS+GRzSown8UT0+21qC62bisRwfmq5DJHNnac4/i9a8wk1VPs7NIg8lXHlsyuBu7Z/Gr9hq09qIpT5XmsD/qyx+X6V61DNpx/inHUwFP7B6JQOprkU8XSQ3KpIrbSM/wCrxW5Z6tb3SqzHyM/w/wBa92hmNGtLlPNqYWpA0qY33hTdwboMr2b1p3zDmvUjLnOQWndOab935vWnbmrQA+7z60DqabvpB1NWAN94UUUUAFFFMfrQA/fTaZRu3cUADPzR97mgfMSvpRtxzQAj9aRfvCk+9z0pfl/vZoAa33jSSdBTn602ggZRT6SqAbQ33aKYy81cSRj9abt28+lOfrTaAGN8qk7cZqKpaY33TQQReXRRRQQaFSR0xDtp33efWgsloptFAD6dUVDfeFBZL5lHmU2nVAD92eKTy+tLxSDqaChS/AQ09flGB0qOPv8ASlXqKkY77vFKegpPvEmlO3AoKEpfSkpT0FADqbs2/N60U6kAbN3NPb7o/wAcfrTV+8KgvNYgsYmdiZH6BB1zXJWrQoR5pGkKc6kuWJDfatBbNLCWbzRz02jPue4rjdS1lWxMXwwJxub5fwqLWtftvMea4uEKqdzIoyuR0XHc1gLNf3DXFzJHFDI3+p89dxiHYqOxr4XGYyeInr8J9Lh8P7KJYurqaRllndLSBDmWcDMz+ij2NZcmvWt0zrGJnbc+d0mTgDrjtVa51Kzs9ZRb3UnvbhGWL7MkX7pec5+tWm1Oz0mxuY1WUpHnKW9u+4gfNjivKOolurj90YbeJlLgSHcdu/HOP9rPp3qKaWJd1zcMbRQAryDa0mO42jkCseG71bV7aO4uL6Hw6kib1gt4mnuEDHAYlvuk+lLq39mf2fZaXNPY3rZKNLfkvISOclhy30HSgDB18Ta5q1jp9leXAM3IPksFC5+8T2FdLpXgTTdHhc6k/wBsvpSC80nyDjoAvf61XuLnxTq9m0dhaw2MMkm23kmucSMijkqY+Nv+y3NVbb4dzO11ea1PcXNxJgNAs4iRR3G5ueaA5jZfxALe6WOztLy6hhiG5rdl8pQD04brVGbXNP1i7+zTWCzCXmZ7qBnjX/69XbHTLXw/D5OnxLZwW3W2UfIWbuf7x96uLqiSZS7t5LcblKm4bZ36j/ZoDf3TMsLi3ZGOlafG1tC32dTAvlDeOW/8d21pH7W0rAefIWABIbcEp9rI00M7vPGlthRujGBjPr3qnI6yWzRLJ80b/fZ1Ybu+F7cUAWxItlud5ZJWLBSyp5xk+npirf22zt/38sklnKBsVpvmXn+4vb3rCs1ltt07zyGNz5e6R9qjPGa17rTbAc3Fo1xDtA8xeVyfU+lAGpbwbZti3m+44YODtOD/AH/6VYivnXzC2GMfUoc5x7Vxseg7biZbG9mt2JBAkj3nC/LtHtzWvazJF5cUssctsCGJjjZXwOnH1poR1dnr0sCqVkAjY42uduPwre0zxBDfyFJPkPmFdzfd6dq85TUrJVSdpVhBbzE86PCEngDP96tJr63kkUEvGrLkwbMq3uDXoYfG1cPL3ZXOarh41Y6npVvNHeRrLEysmSp+opzJzXI6BqS6fGUMm6FjnJ7e1dNb6laXC5juIie67ulfY4XMKWIhd+7I8OthZUiUfMSPSl68UKyt90q3+63FI/WvVjLmOIM/xfhSs3y0zfTd+3imA6hfummru3Uj9aAH0U1fumnp0qwGb93y+lOoHU0fXpQASdBTPvc0c/w9KKACm0U6gBtMb7wp38J+tNoICmU/5qP+A1QEMlInSpKZVxJGP1ptPplADaKPLooILf8ADTl+6aZ5m3ilEnNADqKYz7mzS76AHL96n+ZTKKCyXfSp0qHzKfvqCyXzPajf/s0xfuml9KCiXdnijZTN9PqQD69KOf4elG+igAb7wz0p249/u9qbRSAeOTim+atvGZpThFPUUqnCk/1x+tcZ4p8SA3v2W1UyuWVVI+XaueTu715ONxkcPTutzrw9CVaVmaGpeKikksMUipghV8v7zE9q5XVtUuJYrqI4mlC7SVbC4I6Z7GmXlwIbVnlnjj2uA3myZ4JrmmzZ3j+TNdajdHpbK+xdx6727DHftXwdbEVK8uaR9HTpxpR90uaddxJb26W0Ucq7jujQ72De57Vk6pF4gvbiWO2S1ULIQ8kz/ImRx+NbdnfzW8AT7E8NxcKzFGk3gEejd6qxHV5L8LdrHbhThBGfMabPt2xWRqQaL4am02FmJ3XMn+t1LK75h3RG7ema1pJpLeaKFLtiQhIhhX95J/tFu+Kz7do4lW5uHf8AdFklac7kBPQRjt71SeGfVlnjsdYSC1kBX9yvzKx4zUAZur6ppFzqhF+11JLH8mIXwBn2Tnd9afJq1j4TsRCLN42DbRNNEx8tR83yntnvXTS6bHp+nZiuoFt3UEz7MuWUctXNx3U0/wA7Xy6rM2Y0WGHEaA8Zc0FFeb4lizsVv2s2t9PZvLzIMsSf4selQW/ijWPEl/J9nmEej26s3nbNyyYYDyj/AHQM5z2q7Drt1dXSW9ppUl3NayHY0n7l1OOSzenpWpdwmz0/5d92w2y+TGm9kbOSAPX/AGqskybjxNbaVcR3eoWkfkoWS2VZ97AKNzSO3bd0AqwNc/tKwt2GoC2M0RPl+YpiGTxwF5NJb6XpVrZi8ubNkeePJt5WdnZWO5sq3yjgHpUgvNKa5ENnLHsmAeO38lWJA6kDuRUFGWPDt3qM0l3Bq3nwMZBLF5Tb5lB+XGeMZ9asodIvdStZnMt0bZNrxzkqvmD7rfLx8p/lV68urmzuMqkske3htmPI/wCA9qtzXVtO0S3llGbiErtaRMnk9cUElrT5rfUoVnhnaSDJBxEFUMOwJ4P41baRI5FEk8l23/PEhVAH1XpWWfEH2i9S3hhnuZJEJkOzZGMdBTri/uku4xDDvhMZYXO7ZAAB8qH+9z2oAuMBNOpKuTGQEZTtdQfv5Pdd2KbJDOiJLLdNICSGQnI9uO9ZSpqf2hPtM9ncKGBeJImO3PTntWhDauf9fKiKp+7btyVPY0ByifbHVYkSyefzI8+awVFfB6j6VOzajLcKj30Nn5bnEbrv8wEdfwqETCMm3Ni0oaP5Wj+6gz0Puak/tS2byEjkmguP9WTOjE4Hy4Y/jxQBorfTQqIpoVMknSWMqwcfTtWitxthWRSZU6Eqv3T6ViLDbWK2/lLGfMf935JwiNnnJ9TUtnqg1KRjYXMQ8tmjkVRgg7h1H9a0Ug9TstJ8QfZo/Kljzb9d0fUe5rpfM8yJGUbgwyD7V5rJjy2Tbh5AS8W7IYDqxFafhHVzayC3uZXNuoLKxfKL+P8ASvosuzCUZeyn8J5WKw0Z+/E7Sm0om3YKnIYZDL0Ipobk19jGXMeCKr/NTt9NpB1NMCSnVEv3hUtWAUUUUAC/dNH3eKKYOpoAG+8KOnNH3uaOKAGN8pz60vPZeaKOe3WggT/e602n/wC91qNmoAJKip9Mb7pqwG0z/gVLSP1qiRtFHmUUEEtPplPoAKKKOKCx9OoPQUbKgoPvc0UU9fumpDlBm+WhOlB6Ckj7/Sgsf5lKr8Uykb71AD99SJ0qFf8AWfd7VLv28UuYB9NJChicYxzk4FJHHuJJ/WuQ8SeJzDZyWrnM+/aotlYsR9e1eZi8VHDwu9zrw9CVaVmR654kkmaFUnaGWbcggUblDnksfYAVzl4x81oLedWvdu6SQvukZe6hewqK6vNTvbOdLJFszIiuJbg7m2scNgdz7VUstHkt7Hy4EyZUDNct+7kGD8xx6+lfAVqkqkuaR9NTpxjHliPk0TT9NknmkuZVmGG23FxwG9l7VPLr0M1tLHZxtcyRjbIsh8tcHqcf1rM/4RHQ7WFmntFvnz5jCWZpCSOck+ntWjpt+t3pxngYQwkMqzSRbMYH3gvcHpmucojP9rC3gWzSC3haLLGUtgc9l7/Wm3F1BYeZNcXbTSBfkdG2OPUD2pl7q0d3cR2KXlwJzCJHYHCKoPK/jRYaDo9v9qmWPM1w5V287GRjnntQBkXUa6hvZ9P+QuQPtEmI1yOu3uV+7n3q1Bo0WkWsdraxRz4YbQoDMu7qRntWgGt7S0ht4bRLeNIiEmKMscaj5TwfvE560xxGsLRzzKLWNCGEgCBFI5xjnkenNBRi614J00yNdF5LGKVCZlhcsDgclgeAPXFamm/2ZBp4GmRRzhkzGgxmbI3E8+mKzbm0tjeK8blwrKY4riVvL68Efw/nzVy6upbKbY9ozncXaVz5ZVcZO0fwj+dAFm6W4vLERTosD9WKyEfQMV4AqBbZpDO0RhguDtmDrJgHt93v9azNM8WQ3W6BC095DjzIyMfZ1zwdvf61cm1Iy2t9dXDoFgiG6CFGLFe7Y+lBJn61Jc6fdWzXmrR2lvL+5MKwbt+OfvdvrVqOe2aQXFq9vHOy/LcrKrocdAf7p96Za6jDf6etxH5N5ahWwpTY7jHzfl89Qpo+g6XDKjRNZ5Us0Kx7y2R296A5i7E+oWszPqRM28ZCRr+7K9y/94+g71naT4lF/NJb2Ec1qiEqSsm4k9Plbufl4Har2m3VqxaD7VHebcG2t3TY6w//AK6vI1ta2eZrsxxqTn90qxrnsrDqPWgCk8Gs6fZwLb3Md4rbtz3LZkjB9qkW81HbHGrPNbZAkuZmKB/XOO47VHDqVoskcSS2808hx9nhLF0Y9do/ukdafNeQ3sY+zSzwBovMXbFxIeh/KgCeHVVhun+2Its28rb7WDI4x1Qjn65psmrfbr/Y9htulGUbbnb6c9s00STm1WCc2+5eClwpGSeh4qpIrHa6X+y9iUyhXkAiIPG0FuQDQBqw3cciszLO0UjqoVZf3Q55/GnRXF1bJPMjGa3UHBK7wOOlRLHrRhjNubOaMja0KH7mf4d3fH3qy7K1m0+aOO68mEQlmSWBmzg/dB/GgDVivLW0uGZreTymxtSNHQJnr+dWo9QC3G+OyXeo2ys7jhT345/OqTPLDAkKXElyJSVhuj1jK8/P/SrJugtxHHJO8ybcHzE+dm9B7UBzSNGYCeZGhmlYkcxqFYfQGpVmt3bYyYLD51bqQOuax2jhuvOe0XMkZCvCDtYA9SB61ctry2S3JuUk3KNzeZ94KOuPerIO40HVJYfLhIWSBsKjL/DntXQN8xzXlsd5vCfZ5BdRMQRL/E31+ldT4f1yaJlimfcpICr6V9Jl+YeztTq7HlYnDc/vxOqp1Rx9QP73NSBPmNfYniCp0p1NjT5T9adVgMp6/dNNoXbuoAdQ33hSP1ptAD6ZTaN9ACf3vpUe+pHk28U3fQAUx+tPPQUx+tBAym0/zKYr/NVADfeFMfrTpGqOmSHy0UUVQFpvu03y6lX7po2rQBFsp6/eFOo2UAA6mij5qKCx++iinVBQ3ZSU+ipAan+9TtlPaNduKZt3fL6VACr900L1DenPFS+T8vXFZmsalBp1jM7S4cqQCvXOO3vXJXxMacLvc1p05VHoZniTxPBbWr2ltPC80kWdwbKqo+9n3rhIbrzbVWhaUMy+eDMNpdScMAew96tC1MiP58BWDDM0eMsoPUke9V9PiEdsRHD9nbA2glTsXP8Ae7Z9K/P8VipYqd5H09GnGnHliPUbCCyZIRf3mPu5P97vVHWtUtNPaK0t55EnZgzJAMk+5FXp5H85PNP2aGCMNx0U56fjU2pNbRsRZrbiY5wrHEzAsMke1cpuUAqR3yoqmRxlrieQ7jEHG7GO2cVDqXk3UMlkdOnuMMA5X7vy/MGPtT2hVrWee6VPmbz5Y4j87DpjPbPrRHqM80aLFBLY2+fkmlIB+m09frUAWVt308SCG1SFZVBdo3wZSOmfpWTcWL3Tx3JdrC8b/UIww7Y9F7j3qVvNsry6F3dtetuPlBYSCqkckKvB+tZs8YnjBsJpIIXdIriSRsszAZCoOw9aAGXWvanpmnssOmxyTyy+UszTrHGAqElmcc8dcCs+SxfXJorfX9Ztb9kdNhs4xDnaQ20hvT171rro9lZW88o0wwRxy7v38jESccsMtj86Zp9npMMk6W4jiCnZL5imMMw5DAn5jj24oKL19Ha6tbBV86DZidJjGQvHGCV4I4qpJt1xvI+3XTo6ERbIvlGRuOPypt1pzSwPBYSLtSQLJ50e+AKp3FfqR/Opb68uJobpba8tC8pzAis23cq/dK9hmgkv2sUTRmGO5FsIceXmPDvGP/r1SuNHgaZ5JLq5877qiHaQuf4m9hVG01PUFWH7XFaTSEGAlF8xZcc8v2x6Vsql1CqNeQ2hhMYJEbfvRJn5gPbOKAM61sby1jjLQxXkyABLhf3CgFT2/hP86S+hmF495A5F0iP5xaEGeSPI27HPoehqbUNUFjaiVmSWNW8olSWKAc8gdarRyRX8kNvdpDJLICz28U4ZUP4cqSOxo5hFCZbaPUIrjWtOga5IZYH8gyGNlYMwaReMkdqvTabHDbpPcXU8VpCD5cO3KxK3Xf8A3ge3pUsWlyWtq6RvvtXbLvN80px02n2G2oN1/azO8KPcGZwkUUf7tEfYdz57oByPegf2ToNNt7O+YXNo9tEr5l86OLnpjJqKWYyhjPBDOkTcNC5ZjjvgdK5ySO/8P2qvFAs6TEtKMbcHv8nf61Si8UQ6lqcdrb2iiKNmHnS8BCRzgUAblxLBJcQi+hmuDLzBJxw38S8c9PWn3GmW19HEjrEo9Gc7i/dhjuBSxai8eoS2zAIoCtFtGFI7knsKpR+JrXS7yVpnnuolKym6cKsRJUjA/ugfrQXHYzms9Q8N3Vr9mtbi4tWkc3ItpQPLOPlzu55rVt9Z1G3uAJ4c2R+dZlfc0qdnb2zxVuO8kuLWaRJnlgkO7bImU299p+lRR/aLp7p4p4GSYD7PHnAjI/hb2PeggP7XW3ki+02YgtJjgXNv1JPY1LNpqNePNC8hkYfMpbkDs1V4Ly1vVurUSmznjc+bCBu2cckH0NVtO1D7N5VrMdsEbKTJs87J3cfSgC1fafcRqk8fnQzyHG1nHlyAfXvV6O+jWCK4u7uC6TIDMjHdx67eOKlEks00dzHcrHGQUSMlmLJ2+XtzVN7GKzaTyD80337fb8jk9v8AeNAGrdQpbmd4ZDJEoEgQHBbvinW9xJHIrOWkSRd+6Nd6vjsfcVnx4s/NFvaRtlcCNTjC9t3tmr1ncM3lgyCeAuwZGG5kOOn0q4t9CDvvDWuLcQrDOWjfoisNufSugj6mvLUumWQrkyovyqyr93Pau50LWF1CLyhu8+MAfhX1+W4/nXsqm54mJw3L+8ibn3eKZ05pnmYHzdaVm3LmvqTyhPu5PrSl+BQ0mFzTN38P40AP3NSU3ctN30ASt8yg0yjj6UM/yjjd70AMZ9zY9KKT7u4+tI23bQA6g01vu0z73NAAq/NSH71LTd2eKCBAvJpj9adJ8vFR1QBvf+8tFM8yigk1d9NopvmVYD1XHNO30zzKFf5qCh9C/eo30L96oGO8ul2UlKvzMDUlDqKB1NG+gB6/dPaqWo6tBpMRZ8SXBHEJIAP51YkcRxs7fdUZOK861bUJbiee4ZgZMnbu9BXg5njPqq5KfxSO7C0PayvIs6l4ovdSklhKDyQCTskPA7j5eKyjMrNlJnd8fKm3O0/XtWZBqFtfq8bRvAd2CqtncfWtFpAVSGAZDFiQyZJwK+IlUlUlzSPooxjH3SK4by1nYB3bcqv8/OD1x70XCyQw/bER/tMjKhUck/3QT2pbZZbXaJrhcHMkkxXBXPzAY/Co9FuptYhm1hl8+2VitnDu2ZK9WqAEmuLuOxFnY2Iu7yafyzNIuIIgOWJPfH9KpXP9maZcmTGbuTEUlxFGA0rHjCk8DFa1ndytGyzxRW1sigF0k3KzMfur7HvXO+SE1S7fTwt5MuwDe+HUlTwPao5QJUuY9WuPsO90tIVFxLNHISZWLMAB/F9ccVJqmqXFhbiaOO5uI22KBCQMDaepHy4+vNV4LiSSNLdVDXrgNcOp3GDCnj8a5/xLPr+tSXOnWkqW8GAxnl2+Xx33jkn/AGR1qy4nZWMK/wBn+fdrFvk5ZmbcFTvj2x1p89vbXtzb/a4y00I823WUgAyDnJJ/SuQ0/RIILcRm4bV5tsYRJZNiK+fvNj5uvTNb62sE8EdveW/76NS0mwsCMdDnuKgT3MrfZaxdQXMOnPLeqwadTEUVMgjbtPD56cf3a0JnhvrxYrmzgE0ivILho8kqWAxn29KmuHitYUheVLYHnzWfbk/wjFVo4Z5r3MwniCBJnupGXdM5Uj5fYCgY+TUxYyNFcwwIIo1IkgG1goPWsxY0vLgSJpdwkWwTLuPlpcKxwEcfwkLlh6760obiW3t/NecJGrGRGMe99h4H60jakk1nNML5oyWwTNHtz9KAGLJaW4jjW3jt3lYfLAdyPz/MUnk3C3CoqSpJglG85Djd8wOO3Ss4LGLiF0urm5Vov4vuA5pl35dpGk10iOUyJfJbDbT7d+KALVxDPpc9vFJF8kkjKNQmmWJldhgBz356VIt2+m/ZvPkhtnuSYBHGeHA52bu+OtQaTKmsWzRbZJ7eVvnaR8iQdlI7VmajaaZNeLGiskxYE7Z3gKsvUqBwpQcDPXNAGjFJcLfI9pcSiONQLiKdFKAbTyp21U0VoBJCdO1RrhVkHn2dx905Bzt960dP8u7C2VtqcxuIT5KR3Q+dl6nf/e9j/t06YGzeK40+3sYljVogijBkU8YJ7ZNAE0cMtrNbx3G3ZKTCsklxuAk6lQO3FJHomnW8y3MLYn3fv4lBYZ7HjmmahB/a1jIt2rQYhDII1H7puzqT94g8gd8VzemXk9lN/ptvBJFdIJpdQt2MbopOcPGeQSB1HFHKETe1KzmsbUvaqL68tw0i/aUBklGM7UA5/Ok03WTqkMlzdaXfWHlom+FoMrMmeoX+LB7d6dptnJHcSXdtdwGNiEPmQ/vvl5GG7irM2+Obyy01wHZmWJD045O3v9KsP7pDp/hGGMSy2NzNAsxci3mdmSIlv+Wav8yZ7jpSTaeblYbS8heG4wI/toCn5ipC8d+ap298uo3TJYyNHfI2ye2cMWYew7VufPK4huo/MIXBjjOGH49qAKIu/JRP7SsGWSBAfPiXcH2ngqU/UNxUsOuWmrxySWbE3CsFaBRtIHqarySXEfmraz+aqsD5anDye2f4sVTi0Mr5l1byeXbffEQX59w5IqANCSby7hwkM0u5iCVcjyTj29auKzeTcNbTrcSphmhUhn47fNzUGnypqVkl2omh3ZYwzpxk8bhVh7c3F55iO0kqgNCy8Bcc5xQA2PVLK8eCZZPMud4cxyDLspOGx7in291Z3V6vklvtsR84rCdrbTx81UprVklWVVhMbZ3eY+2RH/wJqLTdQS/l2ssxvLeVhLGBumifH8XsR0qyOU6iO8FwpeMeZG52qyt83uDWn4dk+za1HJJNtidT5UbdeOtcvbMbW4EReMhwWxt/eCPtn8a3NNvf7PubV5124YKreuDt/rXVRnyVEZS+FnpqvuAA6MMmlKJgVBHIske5W4YA1KG+Wv0inLmjzHy0viHf7zZXtTJM8belHPbrRu9Pvd62JG/d4oztpKYxxDn3oAk8yk8yo1bdSN94UAP+9zRxTPmoxuoAe33hTH60Mny037vFABSUtR/xUAL5lM30etN+7xQQOoptFVzAaW+g9Kbvp1WSKu3FFJSluBQUOp/zUxfumis5BEfTvmptOMm4YPQUixY6Qt5jEelKrcc9O1JSAjuJlht5WdPkCkt9MV49Pbx6k0btGfJaYOqDqMA817HJH5sbJx8wI56c15R4msZbKa42xTC2JPlrjC57kHtXyec0pJxlE9jL5RfNEo2t60ckgji84YVxt+8MnGTVmG8nadHELqWBJIXGMVU0NhDJL5siSDhgIxhE9ye5roY/PkRk8/O2HIj244PfNfKHsEEETXVxBsCrY2x3PGG5lY/8sz9OtEs39tSyJcv9nslcHAb5pQDyD/sjvUl9FPbwbknaKVsBYyNwJ7HNOm+y6bY27SssrdGMm3Cse4oAp3K20lr58iSRWyt+6hxncR0LD+VZUUKwyPKgZnunWW5kjXDw5OAuO5P891QX1xDcP5NxKs82/e6LJsjjXPA+prR0+4iWESySpvKNOUU428YGT3FADLyzgk026uNRmmKzcMN4TgdNwPUVkzSHVAluqRx2hmAWbJHzN8yj5fcCoNYuNYkjlg02COW5iBZlU42Z6c9s1NaxJbSW8Zt5IraJUMSGRWkLFm5Htu5/4FQWLbR3mkr9ounWJIvMSOHG5mJbguTz9MVBcalqqzwwfYY5iwXF1ErMsYKnnB6kdcVlXkVvrV3cf2yl5b/aDi22sPnA7HPY1Pa2tzZMz3eoyakNhcLGCphQjABReD9ajlA27KP7LZrI4knCEyO021jJjnLAcnHYj7tRNHvaCS3MkMTALIECnaxU4b5/SporqNRL5txGtuAqsI18wx5+8HHYFsZrOa90yWb7TfLJZTq37uaZmQFR/EP9mr5gH7b6VUWKTMvy4ugVAjw33VjPGD3Iq41qbqeJ5be6bzEJRrgEopHXdj17VDNewyzEq8k83DMisWKL2LEc89sUyNgsMaPd3Fuu/e07IxG7upLc4xUAS3Fo63kE/lRRSbT80BCpGB2fd2Peqslw+mK0l/aYvGbymkQrNGSOeg6cVLbfYVk+Yt9ok2qS7NIrqVOSB2qDVNYhGpG4hiunM8nkDy/uR8YwfY0AV47K2a9Atlls2iZnnjikeNZ8jIJHcCtC3tbfUgkuyG48nLSRvEwyRyBj+tV/s8v2qF2E4hYL5Ulu7iSM7T8r5557fw0wXQlkmEd009wrAOz7ZAR3ONvJFAE+pW8qySSvbW18Ukw8nnbJIwRw+7+MdvaqrTQ3QdfKhimgdTFLlgrLsOZCTwQenNX2aGTTZ42uXlKIwMlyPnGR0U+n+zU2ktYQ6Sscs2RIoUBvmBye69qAMG31DTtYs1uopjpk0Q4VXKxyYPJ54x9K0mmh1qTz7e6hlKxFFLptfpzg9xUU3hXSby8jSaOeVpPmaRCFxjoGzx9M1Rt/CcbahGbO8mmZm2/Z5mXCD1G2rD3RNB1UzQ39o6Y8t+wwPqT2rYGqoqM9s6kRRkqFckSgDk5HTFZs+lShmljd7eQKwKj5N2B1z3qHSrefS7gzXqyNZySkRttVlPHOwd/cUAJeX1zfTW9pp1wPtc0Yka7WQNGoB+6N38VS6bqUuo2pmuTeqUzC6ROmPT9au3FnpcMxY2/lhFWQzRr5Ldc43/0rlNY8G2VxqlzdpK032wCUmV98e5eVH1zRygdjb3C3TWzC3keSQ74bi4CtgHgii4jTULqSOaPZJEFZX37ROQp4A9awLWF7RRcC3WGePCyQwwZ47Ns7f71bDQRa8sU4kjkuFIlMcw2q4PGR/tCggo3VxBYXTfZNWgiYoRJbynK2/HVB396q6b42srm5aA7Gki5HlrgMg6Nj61oQRwz3DSXFlYzXG7a244Ix0ye1MvNLjDRzWemWk6Rn7nl/PCP4iG7iiJZd03VrPWoYbi0JedkJQhdhlkU/N83bA71LcWc2rafGolW0nIZE3P8AMAeDhu5rKNjA0kTWqR2zqwW4j2vsGT1G3jdWnZTKs/2S6KyLnhgrZxVEEmn2wWZIrmX7QYBt8ySRTNHnsPY1q2d2rRupj80KcbU+8B6mq7QxXEzOios2R8y/ejx0B+tMt5FjlPlDCSNwu3H1NVEDvPCOpBg9kJmZYxuBb+P/APVXVK/yjjd71554dmjs9UhfLCIF1YlumRXeLJkryoLDKr6j1r7TK696LjI+exkLT5izuao36035qUV7pwBvpH60PJnj0pnmVYC7lPFJ93im+ZR5lADz0FJvpfMo3Z4oAZ8wo+9zup3l03y6AGfXpQX/ALvSnbPvY64pCnAx171ADN9I33hT9lN/4DVkBRRRVBzGgN2TRRSVYD6VfvClX7opagY//gVFFHmUFDqbsp++nfNQSMb7tLGn+1RTue/SpKBo+ef54/WuP8apDNb+a8squvykMMLj2Xv9a7D5ayPEH2RdLuGu4lkjz91up9q8nMaftaVux2YSXLUseWrp/wBnkzCrQszqS5GQwz6VsWMytG07ABz8oO3Ckj1HpSQzy3f7uCDy7YqGU7m7ndj9KNWkjNxCHDYC79sfUluMV+en0n+Irx30scZuHLzWzkjzmO1lQdFX2zWbcT3Gp3SebbwwxKgO4s2+Ns8n8RV2+mnM0yQRB5sAF93Cr3/4FVfTbxFgJRV81Y8XDSNwOepoAbHcQWMU9yIGZ85kkT7zY6Y96raxqOnWNu8f2iWMEbcKGkMp64QdverRvLSw1J5blWZQvysAShz7Cqy6dDaSB4rGZLaOVpV3AKiMRkfe55NAcoalq0Memutykdra4Jls4V2s3y+noe/1rM0y8nSzmlurbyg4SW2tljy7MTjgdzipPOF1dNdX+nM00yDdPFKIo41Q7QvP3mOeneneIoTHpyX8kywwY8xldCXOeAAV4zQBXvpJdVlMcjbrSFCRGqKXD44DD+HnvUcdrLpU0bj9y0wyftByNo9G7/7veljt4dLsbiYPaRGzUP5sq7jMGGeB3Ydh61DazS3DNI9v/aUt4RcPHMP3ECtyDt7HigsvWt1B5sNrauIo41CGMnLuoORgdhmrt9MrW80YtGu3X5nUx79rdq4+30+48O67c2htv3F1+9SOJ9wjf+JFPqo5xXSWUzTR5kkmikkjCCOROevWjlIJbWaSXT94jVSDgwiLyCfbPerH2y5mkhM1viUMwiUtkhMc89uKqTXV2tnbzpcQ29ugHmrLE25iDwRnjNNv/tNwwKXb290+FkkliUoVPT5B0H+1UFlhtbtfvfOyAMs8vkvnK/KFA/H71RXROpTRyTuckZMMgBIUdDxz+dVbWa6fd9qjRZmOyQwllUv/AHPwHNWJh5MbxxxwlgQzujf6z+6x9mXK0APt4ZLePz1nZtzeZGqx4IU8HB9cUlxcPa3C3lo8NrDNNsEe0lZZOwYjpk1matq1vo1rNqcV0zRQk7493yvHuH70fjxT9PuJ4nNzO7Pbzbniz6EUAadxo9teRx3lyUyMo8IwUGe+W5qlqzCxlX7Pbtdwqrl0hbPlkLwv40T+dHMk8lysx8tilvt8vPHTb/Wm6pNFptm88yuIwP8Alku8qT2HvQBejS7aY3F0/llchRDNkSKR90jsagurspcPPFcLvwFdlkDKqfw8nvmqVnqEWrGGaAqz5CMoTOVPYj+E+9S2t7J9m3zxwwSOW3RRpuVgOnPrVkBdKmqWPlXCbJYtrfbIZCXD554XgnFZk7anHqEFrdXBuLmFCI1Y7RJnq3+8BVmWO5/tAOD5hkZQrQr8ignofelvJJ5lMH2ySNp5vneSJjIjDoQewFBcSdXkurRW8+K6uCwDRzAtskHU8e1TeW9xbM9vtjkbiWHHmxgDqm08gDrxzVTUkit7WL7MsdxdZzPMW8uaMjoSncGn6TqLtILgwOsUiMm5YuN2OtAcol02oWzLeaLPFcWQZUNvcQhNhzyQ45IH900+1AWJoZSbRt2/zI0y0b9gB6E1Et1HYzPOYbkQyHMiWzb8AdXK9sdaS41Btc8yKe286MuSkjrho1A6Ed81ADptInuJp3julmuJo1EztF5CAKduYz3bn86dH4ZuZFV4dRmsZrdmMjCXiTjgN7HvUN3qUv2ryYLU3dsW23MEbfMOOSG7HdjioH11YpPtlhZTXKLw63PysmO27vWoF/UI76O3+1SWky3UZG6EOrGX0LDv7VIbeK9hEwaSC5cho1dduCO2KisdWh1q3WeC4fypwrypIu8FCccfQ1J9lktcoAJrTOVWIfOx9N3b6VIE1rHcInzq0bZ+V4V8yKROxI7EGpo55DGgMO2QE+YwO0exIqmI7mOaWa2uHhgDLJsxubcxxtJqOH/Q5PtiBnW6cM6/8sgxO3P1qiDo4Zp42VZNxkPLsegHYiu28MxyyrJPPcG4KYVS3bPauHijD2/M3nCYc7O3tW/4V1J7W6WF1bEpCsGb7/ofwr08DVjSrRcjjxMOaF4ncb93y+lO6c01fummeZnj0r9Aj72p82O+783rTfMoMnr0pu7f93pVcwDvvc02o/46fUgPp9RJ0p1AD6YN2TQOtDbs1YBz260f73Wimq/zCgAFI0bNzSN940mcc1QB5dFG73oo5iC7Qm7nNNElO3M3O6rAenSn1DUqs205qBj6KanSkD8mpKJqF+9TFkwM7aA23n1oAlpV+6aZ5lI0m1SaAHn5hnOPeqeqStHBuRHldBgKvQE/xVaZlbBwDkdD0rN1y1+2LDA8KXULuzSIz7cIB8u0eua4sT8DNqHxnC6eTF5qfaPMlxykfVcnvUN5qAghbPlRMvJkb+dXb+1t7GSR4pPMEjhV2rlmOehPbFZGpMrllAaSSdguNuzZ2zu71+cTjrI+piZdtLdaxNNFHCbWxVwPmbaJAfvMD24qbW5DpiW1hHbwxRyOIhGu6QrGDkEn3NWtQlt9PgkkhdbN4F8sNIN4dz0H51QE15eX4fzt9jE+YcqBLnHzbgeo9KzHENcsbqzE+pG6aUPvkki8vGzoBj3qjLa6ldzKkgbUWMSC5gTbiAk47c7sLU2pW+pJcRRC4hht1+e4eQkyMf4VwvQVFZXkeiwsscBeTf8AvntI2Y+Yf/rVRf8AeMiXUr67v76TSfNFkkIhWO5LHDNycDv0qzILPxBfWM9zHLcW8becp3bUeTGPmXuAe3els5njjkS20+S5nmXanlHMgwcnI7VTF1baVaNby3Ki7MnktAw+eHnON3bPrUgMbUI9Q1Br42ssF1HceXiE/ullHRm/vgfNn0q1p7XVzFPcyoUhWcnflVSRAOBn+PJ/Kk0uRrxmtLRhAqHlZohHtJ/5ajPB3dM1z82iyWdugtUV7R5nurppJsSBmcHcCflwMdqALHinxBE0MLy3geWN47gStHuES7gOPpXV22qTagq/Zj5MkjF4RINokwRyK4qER6t4hSK2hkFr8rSXIlWRCAflCjvz1rsfIjjjeC3u+YyNwmYcZ9GPQ+1BBL5l5MrSDJkMfy7Ztq8Hnd/telVZ9SspIerQyB90iH/WHCHJ29x71ZmnWGPy7gShmXaCuWBB75XiqlveSWwV4JvtaW+1TIerAqeB9KgC5bXMbJcBXBZgCrOrDHviqmoRzeZboi3gUyEsqDcrDHJD9vpQuqW2qiKQhLiOFtqO8io0ZPXH0qW5vp5oZlhjW5jb+EttJx2z3qwHateS2Vus8yRvbRwsbuGZskADgt7YrEtfDsUkWbV5RFE6t5cjYj2g7vkHc1oWsdk12Z54WaSGB7dT8zbxgkjHfHpVmTR7O3tFm8yVUkjELlj+5WPOVBXsc0FmZJFDYvMwka5tHl3fZ5nWYooHBjcdRnqO1MN5Z306m5s2kIVA115TJIRng7e4HrWvb6PHb28V0s8aI+d0zDAlx0we2KS+1ErdwxxyfbhcRDfKPnAcHmQ/UcUEGfqGktDcop1ORE3khojtAUjkSe+OlTraR2duEurqYQRndLIJ/MBX6duKNP1m2kVY4LKZpmXa8jYA6/xuensKz3kv7W8uLa6ntoZndpbdYfnSdAMkFiuAfcUFnQ2Kwtpwkadi7kyr5X8WeFB9qx9OuV+0GC71HyrrdIY4NvT5uDWdputXOl/aGgE93bTSMVF2FUQlBtKqe4Oa2dNdtweaJJXkO5Y92VB7Z9qAFh0uLT1jlsXS6upAC+4Zzz6VShvtVs/tD3Frbx27yBCrvswhPynHf+DioNP0PTlvbpGv7mP5txjabO9j6N2A9Kh1m31iK6W5s5o9Q8kbfs6rteRe/wA3fFAF5rS+jkBMYQ+WCjFvMPJ/ib+QqncW9reN9kxcWk8f7qUkbgz9QQ3fnv2qXTodWkkhnaR7NFBCwoFaMKem4+ua2ZZrtYnDQhH3HfNJ9xWxwPxoAq28VpOwui00N1axKJJ2b/lmD8p/Or0sMV7ZO0FrDdZYMfmGx/rnvXKTR6jsMlxaLaPIj8mfelwoBydvbFaUNxcLMBHIscEvEaxx+WTHjsPr3oAumxtrG8ebT1ht7ZFAnjUE7UP+7x1ot7pLGRXtleGNskLNI5SQ/QfdHvRBrM9wW8iCS48kYaFjtJH/ALN9O9VpFs/EcI1KKSbTXi8y3kjhO1vlbOKALga4a+hnxgfdkidmUgnoQfukfXmrcCBmnj8nyyzDKiTIb3qjn7RcmNb9iM7RHIFaOTj7zY5yPar4U38I+13IScRhSluoGcHg/NzVx2IEhuItPuI02sI5Mny3+7GR6fWtuFkF5u2Kq+aGMY/1iD/A1m26iSFFjhTzYGGV3fO4p6yM8xQIxlX5jI3UD+7VU5+zZlPax6nCojhAU7UCg4+tS7v3dZnh26bUNPRzAkMafLGFbk+pNbCrxX6Ph6ntKUZnzNWPLMgTpTgu3mpenNH3efWukyIW+Y5palb7tN8v3qwGRqASTUyt69O1J5P+1mn/AHeNtABTG+8Klxu4NN2qtADPLoZPlFPpP+A0ARZZaYGySKe/Wm0AHl0UUVQFqjzKbTuKsgVflYH1qWovSneZUDH76Kj39ab5lSUTb6eudpx1qFfmFHmZ49KAJeP4utRyb5FkKuybiP0prPSq3FAClpEkfJ3x4H51k65GiwrdSTNGYUZFVTgnI7H1rUZdykEZB464rM8RqradMsjLFGo5kK7z06V5uL/gSOmh8SOGt/LjkiRVdH3Dq25uVPJqeSSC0VgufMWLnaMnk9cd6q26zfNvQ3DZ6sNo9qhkV4ftD7/K28Rs7/LIT1x9K/PJH0hQvre4u9Za1M6+VhjZ+UMtuC7TuHYZNbC31roNg4mMMGYyvmbuSMcY981mW+zR72WD7LLqN1Iym4kMvyqpP+FZ+oW5m1SKCKza6nZy011KNo2bx0PfAqC4jbPVWv4YbueBba2WV2eVW+9EgwC3tmrOm68LO6uoQsQZZCxkHRlI4rPmvxNLdrZIPsSyLHL9qTYc5YHP94+gqxqeg29rpcd5c3P2y8mQG1MHDSYQ7EA7nGRREszIP7SbxIbl3kMzLIRMp+aB93ygL3G3fxUElg1lbyXWqC4v7qQjzrj7LtjQ552nsMdTTNPkbWpJL+TzraygUo8N1E0csrYz8ydyN3BqGfxkk1nbW8cTRx+UIpDcnapBBAoD3jRNzE7Wkli8bCCNj5iwMd8SjA3MeCAT3rmtSFzNq0qQzJf2sjBmRbkiDKoV5Q8c53celWNBsbu20GZblLuKx2eUsXmZk++53Y7n19q1vt00+ixi2On2pvgXX5d5ZT0Lf3TtB5oAy9F8PsrAXKLCI8xeXGjMqjruB9q6W71+wh0+zuon8mFrj7NtkjyJGPHI71RWaO4+0QQu16skYH+ilgq4HJYnjd6Zqjfao+g25h1RTdWyOSWaMyRpxxkquM0IDUtRa6pfeWguIjnLwSS7jG38Rb+6pHaq8Ou2l5mSOVlLlswxchv4etclpmvXV1Mbe9H7i4mLWVzOQrY/utnt6V1dq9/CWjeKKGzRV+aMFpE2qV6rxg5q5EcpoC+gtViWeG2WJXbzJGOVyRwCO5qhcWu6aG6jtm8zO5obYhvn/vYPTiobqWys1AZZWJjDlfXnrTo1P2OSCKc2wRSwuHRjwR92oLLC3yLap9otjYszEbypyP8AaTbxx3qHXdUnt2SxtIvPjnTbJIsnOwjCsV789qfJfSzQiNGliViW3OPMwVHRk9+g/wB2q32LSZIo5ElxdnM+RK3mIx4A/wBkE9qA5RdJ03UYbcWjbNQtQgKb127QTyMVoyLJbM0RlhjM2FEU0RjUSdOCOvFZnhyPUre3UX4iuL5WDQlZMsqbupFaNw8kxgM4ZtWhy0X7xXC+hOP/AEHvQBclSaGS2UrtVFdcW23yslhz9f8Ae49ax/FsP2y3mF60a2pmEsE5CqY2IxtMf3lz6jg0sOpNqMal7oLcwsphjTcvAU7jt7/Slj02WeFoYZYQrKHST+LOect2+lEeYnliVNN1JfLkiDI9uyIvnIOpz029/pV++sfJuma3m2SyAhGt3wyMWGCyelVriOymliulmihkE3l3Esa87h0yvf61QmW4s7iC68p54iVEmyPYrDacEv3/AN2go1luLW8+W5ttzw9ZlG04H3mNXYbhDIryQrc283WQnBOOgz2rj77xhY6SdOuY5fslqD/pccwaN5U2nOD3AbFXLTxhZ+ItNS0sb+3udQgZXCq27GW5DH0xQB0k1/8AZWDlIxZlSv2mQqAfYr3x61ltbpqlv51pePBeLIJFN2xkiUMcbWA5Ge2KtLewXs/kW4hO0DNtMm47f4GU+mM1k69ps9vdxLbWCTxsQY9l00WD34o5SDfhj1W1heTUGguQQC6wsUWLHTG71ql5l5b3lxeQ2jWtvlUydvzE98Dlfp3qfTk1C7s7e0u/JlZm3PHG/THQK3f3qC432F60enCO4s8fvIJBukhf0z6GguI+GW2urqCdZVkjc+Yv3hhl5PHfp0rS/taIXxQwJLDcFZBIo3+aDw2V9BXN3Wlw6T5c5ubuwEwVljcqCZM/MFPpitX+ywVzBewtcMA5kLbjj0T+tAEmpMbi4F1baWt3HGdrwRnaXPZt3bHpUlrDcXF47z20gLAMCjKpQD+EndzUllHDZzRKlyp+0AssYlwMjqUHf3qjG0sbTQ/ZZg4A8uYf6oqTz+NUQbMmI0zGSglVRHuXeOvNTWs0TW7CUsHKspLndnj+Idvas+3iE6yPCWlk83cywjCCUDnJ7HFSwzIpkAQoJgVErndz3FNEHp3g4j+yYVEsLIPuLEvITtn8a3V+9XL+B7iO600ZhVZY1C+Zt6jNdSny8V+h4OUZUYnzNeP7xi03inU2u8wBfu08x8CmU7fVgL975fSnquBmoafv28UAO8yj73NNpzY2mgBrcsBSSfNx6U2igAb7tQmnt94UUARbP96in0UAS7mp9V99PqiCVX+an+ZUP3eKKBkrP6dabu/vdaZvplSUTUb6Yv3TRv3fL6UAPoplA6mkAFvmHODmq/2pNSW4jQShUOGLLgH6VYC8hs4xzmmXULXEBjR2RuocdM1z1/egaU90cNqliLPULplmVo52URxu35iqV3aQq29guEct83QKB82PwqS+jaNpoMLJNlSUAzn5uuKhmhXyyjGRWkYFsHIwOxHavzmrH35H09OXulVbmzs33vcNOkv7naF+baOdx/2R/SsLUo5rqRZLSXEbyR7Y1X72B/D/ALPrVzWIrSBEe3VZHmmW1YbM4jz8/P0zVSOa5sQ9zEA0t1zFnouflBrmNSe8WzTT59PacXEkkH2iSTGV545HcCsTVrWDw9qmnNFPHKPK2QyNwoI5QBu3GeK2vEa2Oj2+kzSXYtNRlcQebb4/0htuQhz2Y8/hXPeH7SxvNFisnlnH2FmedbnOSWbj7vGfSjlDmNyws9Va+uf7QitbaeedTuhfewhixt/M1j+KvD+m/b4oLO4uoozKpc2/GQWbGR3GazdabWdbjtoJbcwlJBPujYyv5ecbsDkcelTXWgnQdNu5bGBWiEIYTXEjyMG7kFfmU/Wr5SzSv1N7JYaY19iCPZt8kZk24+bL9uO1ZNx4Pl0+8st2qH7IsiM8TSM0f3xgs38Z/lTbe+dNLtbm5X7JGzIhWBgUBxjIK9jt53c1B4qjl1bQ3sfOhlgvJfKjkST76q4zn2G2oiBuNNaw311C5lsVjwIprcZUq/zKxH1FVbPVntUnMjG4ha5Eqx+UsUgU8M0fzfMFHBHfNc/NoV54Usytnq17fTSyDMNwyXErOBypkPJVhyMdMV1l39gXR2SeykbV2dm8u3/1oOR096vlj9kCHWr5oNR0218vzjcb1dbobI8AZH41W0/xZBNPNtb7Slu5Ui0RlwQq/LnvWR4Qmn17WLi9luZriG3lMUEcYEixr/EGY/x+1dbDHDbtFDJBstmjNy7lSCgzggheDmoA5r+3PD/iZVldrS+uJJmVGjfbkRjcVA3dRjmtp7e0tLGLbEqRbSCjO2AD61bvrHTPs0sw0axEB+44KMyK/wArZB5GQe1VJYfM0ODSlDQuYiyfYpNs0RX5VH0JIoIKVvZpJG0M0MyNLMWWa0kYgtjkY+lJa29zpN9PNaIELFIY45hhnAXJye1VLO8uJpdk8dxblmaCeCUKoeRBncp7jHWtONp76wQOl1cx2xJjPlbSD2GP7v8AtUfCXzcxZec6hGyR7rSS1RWWRk+TOeR/tfTvVa4jjk02ztYp2vJWdXF5HGiI/wA3IIPJA9BU3kiCaUxQSxTZIkI7ORz+lU7VZGmmxulgCRzoCAQTgg7AevvQBd023j2yQvCY2jOCucrHnuG7fSi7kSxjV5i/kIC0Vuq5Ax157ZqRNVRY0lkihikKDyZJ4iY/KB6b14U5rJm1KBfIFzdulzuMknktuj3DlP1xV8oFvTVmuWmd4Dbo5BinYbxKvcfhVj+3rO0kWJZ52EbhUigUOBk8nJ+99e1Zt19stby1uIIpFdxueSFlki3fxRsOxA5rQtbOVlZQ3kvOd6XHYn+FT8v93NIC2qxXEaSSRxRoY90yxjMbDPUA8Z9cVi6pa6RqksYu7W085GAS4iVVKH+FCw5OTgbR1zT9KZUt722t547e3lRQizRkpFMwJdsDqMCqcmi6k1ncR3E0MkciNukIwi8cMqjkEdeakCS98vT3X5l0+8dzl4QBHeDHGS3ORWlpt0bOGMGQETCRvLuuTncOQew96zdFvHVUgvrWZjjaWd0dJAOnDcgVct76O6eXybpbaePPyoilSv8AdJ9DVASjS5zfRMZk8iEb98ZZiCecP/SrNowurUXj7zdSDKyr3BO3FQyao51CSBLlH2qo8nOFDHufai5uX2/ZrqCS3lTktCm0MT0Kt3NSBZ86G6voLfz0km24XanIHcGq9vZx2NvJFFFbny2IMjccntjvVRbCOeOAmIWiQsjJJtyJOOQx7E1bfWJNNmhVoLSe5VhmNJW3RAnjPy96AJ1t0t7VoLW5tReQsHVXO4hT12jsfSp9NuDZrMqSi7mjYB1b/WLn+lZ91GlxdQag8LiVJseVCu2Ue/8Asj+dLJNLObe5ZWhuo8ny1XClPuEsf4jz0qiDViuZo/LAPyqdxhHQe9P2eZG8pjMYP8Kr+tUoFEryRw/u7ZsecZRsY+v4VJHcMigIgWPaCjRy8Eg8VpHYg7/4cySxi4t5dzeTysm3se1dtvrz3wPql5NfvsRpbF2O7am0K2Oue9d6JPXpX3OWfwFE+exnxlhZNoxRuWq7TfN8vSjzK9Y4yxTPMqLzKGf5asCbzKd5lV1finq1AEvmUb6ZSr94fWgB1MpzfKxFNboaAAyU1G60FuBSUuUBaKZ8tFMBU6UtRr96pd9UQDN8tB6CinUDG7Wp1B3YpV3VJQCnsv3eM89KSn+XSArTvP8AaYY441aPGZZGbkegqysdO8unleBTjEBqx7WBHUUvljaUYZyc49aXnt1psjbY3baXYAkKOpPpUyA53xRZQxzWtyVyGP71h2I6CuQuWe3d1kkknt9rO2Wzg44Fdp4gjk1HTI2aHy+DN833lzxke9cFGgjjk8xpXCvkM7dPevg8ypxVXmPocLL92jI1yxuL+3gt7e5e3tgzlxCMbgRypPbNWvtVmkbCYNGFVbYyRnevHOT71HrMSs0CBNkMMfmv82csEJBqpNcHUI7VLVDFaTFJZ5Nv7ra65U/XIrxzsKml27ahcLe3cN/I9mZFjaPgPGW6Y78VhzWlvrOqRahpaXVsZGKzRqVEYiH3CU7HGea7RLyzW3iF1dLP5aMuI324bHP6VxS2s9xqkGoacILW1styrCknlKzD5RGzdyCc0FxLP9ojTdaV95Swbgzf6uSNkQrhj3JzxVeTx5eX2k3ysii7ZJI1UIZAw3sFZQOo+Xmqej6l/Y+pXEN9pF/ZSOzz/aJgrK0oYE7DvO4f8BFaKalcEy39jaldK0/MTXkK7t0q/eYL2AB5+lAC6FrV3pOhslzZXBnG15JbW3yp+U4DBfmUepNQNZww6emrfbIWuJN00dkyA4d+W8vHOcDvViPVjpunXCWlnNNFC0uy4zuXZ97J/vDP5VRPhuS8t1TZ5Sxy7V+zuojCkblbH9zL8e9BZH4fTRroQ3iX8V4gdfNVfkG3BwP94Gs7Wdc1iazgkj1doc5UCGNfMCA8DcOpq/rnh/7DCtnYLYW01oQBcRtgt/Cdx7Dnmjw34V02+1R7uGYajIwADRyvJ5IH8LeuT0p+6AnhLVytrJZXs0N1dWrPct5bpE7Iw+UFRyWz3Nb2nyNqGlRpLOpWRC0i53IsRO4RH3bGPxqrrGl6Z4r0+z0kl7ZJVW4ee3xHcLKAQfnHOMdjWN4i+Hdh4f8ADkkNlrV9Yec3k+fdyLO7FuPn+X5+vHpT+IDU1z7Fpt8+tam2UZVjs7eZsCHH9wdyewqtoMcNxqt5qV4t0LxoD+8aFx8m4YCn1rmY/hbf6ZI+oeI9bu9fEKKbREyjoV4J8scyHHTHSu60XWXurNGlKhSyxthGwRnAYK3QjqfpSlyx0IJbi7mQR6fNE6pcIcSmRdpYjBG1+px2rmtU1FNO82wstV2FpsOrhVHI6HPGPpW1rGlnU5rqC6e5lcv+7WeQlANw5UDlfqKw9T8G+GtYsZrZ4ZbCVjlpXV43kI7AHlh7jmguJ0VrYQzP58uosbjasnkocKQfl4Pb7tVLyK8t0uFQRTuDseO8m2uoHIO3bwPbvWNJ4Pl0mJLrSbUfbXAEe6YhAB2HdWPq3A71y3iTWviTcaokEehW1sCVEk/2xX+8dwdsc4TGKuFPmZB3Wk6sUtd1wVk2R8sh3KvPQDv9K2WmtplMw2kNEXjuEjUtgDlS3b6VwqeBbqKe2N94uF5+6WS5gtIUSNmzkKpX5kHrnrWjb+D/AA1lbm1nnhe3/dBIbtxtIcEgjdzn0qeWIG/NJqt/bvGtnbqk0QVGmk3yxjP930Nco8mqaTdS2F9dQyiZgBdgOixjph/f5eK6SHTrqzvJ2g1ybUNOiBj2nZHNGQwO0EckfWrW+HxBZva6tbmKxJUxzIu99oU4Mn+1npSLiZ2i6hHqWnXEEdrHaatCgxsZmi2A/ez6mrNveQLDNcXEkbpb/K218eWnpn3NefanomsadqHleHnsY7SRtv2y9d0LRniNcd+M8Vs2PhG4ZTda/q63ZVjGkFpiGIKRgeYzc5z0q/ZgdCt3HcXEtvbyrLKR5J85BtJ6ldxXnipbfS9H1i3uPP022s5l+VowCpbH8TovB9jUU3hnTtP09bS3e6Fl5TNJEr5MeRzubuT2pIoIdNVxJcMqxbTs37nm9Pm7fSsyOUXV/D+iXsKWMOnwiPZ55khzHLzxxjoKrw6TBeR2DWepXzyg82sUgk8xlPOQy5IA7VbhuxeNLaWGomZljBkuLeL/AFKk/KD/AHmB7d6j01tX02doNTt7ERBWxc2p8yViBtVmT+FuaAFkujqEaLdXF5NbeaJ+IvvMDjG7tj0rSur1NSvIYIraVbNlwG34Qt7+9VJLi80n7XMxlmZWUuoVXEW35W2qORlTzSG/tr++RGjjnt9xyxV2fcR0C9jQBWh16xXUrvT5N0H7nMMq/IUKfLuDdyM1DJfRWsjRT6n9ojkSLypg20HaNshz3YqS34VPfaXp+o3UFzPEt/d2YCRxLAM27lTwm7261ekjF9bxxR6bBbIEHmpOqKWfPzfpWkdgNJbuLU5NsXliFlVQdmd3up/nUkJjtRcxtCsj4wMelZmmSPJtYsBGzO4i2KijLsOF7/WrI37fnRUbf8zenoa0jsRynefD28uvtF3aukSw8Mqp94fWu6+auX8B2f2fT5ZCXEk5E3lMvyoDxkfWurK4ANfb5dH9wj57E/xGR0p4Ap2N3XpRs/u9K9Q4xv3ud1OH3D9KPLpTwoB+lADY6nRP9qog2z7vSnbt9WBLsopmylX7poAd81HzU3zKTd1oAWmM3NPb7o+aoWbLAUAP/wCA0U3ZRQRzCVInSmU6qAf05py/KpPXNN2U+gYijcp+XFLGtO306pKFo+7xQnSnUALHSs1N+9zS/XpQAjdDTWf5emaV89ulIV2qDQBla1qVtCs1q0m+5Kblj9eOlcOYXlmcszIsnJP07V3mraLBqewSwLIyneo9SK5Fo5ZLqeZ4XgxIyDb0AAr4/NoyT5j28FKLXKYs2nWz3XO+RoZCRCqcHis/7RcWLRWdoFWSWMmVmfcV5447U7WHuZ4wbcSQjzQd6vggg/OuPcVVa3MeovJ5qbZzhZckOoxzyK+ZPT90osI47uXzbX7b8w80Yz5kf8R/BsVXt0ntdBJMzWpikaeKMQoRK7cYIPJ49K0l8i1Vba2SaYRpvnkUBSpzwAW5Oazptbnj0GVZLAPdSzsEQJ5yhcdW9DTKIt1lY6W91d3a3F5G4kVZE8sKnUAD61Xms765jk0xLySOC5dfOjwpdFznaAOoIrJ0rTYLy8W98+8imDsGiu5czJucNuCegxxW5b2dvHqF3bMFnu5xCpbOVG3kMzf0o5SyG7vLVltrQLF5l18lvEwZEYLw2UPCH69a5/xLo/iic+dpOt2cE1oMrBcWxQSY5AdlbkeldNqUg1KBFTU0kFuT5UNv1Zh3HuKzf7e0WSSCysUi1GYM32hZM70THU456+lF7ah8R5p5/j7xrejTrfQB4YguGQXGoXkieUSBgumOZB3wa9eWG10QC4kmEE/lo0zwZRJSON20cn6CsOTUbzRJBeW4t9XC2zFLdWOIFGdix7/U4rD8K/ErS4bq8s9cvBp2qRIPOtr4GK4iRtv3WPBVR8vy881tL97G8YkfCbk3jhI7q8uV8PajJpyIscOpJZsX5PzEEcgfWkhmk1ho7+/u5NMs/LDrDHANioxwu4t0Yn+Dt1q7q3i4+HrGC4stNvHsZmG5/MDRxx/w/e5wx/nVGx1iD7HLPeWsmnahslkSG7AJ8vOcAHq5HX2rD7JYy5lF1dWEcM1zqDOgt8RhITAqHGQe/Wutkmmt5N89slyhLq/2e5V8HI3Yb129RXHaboqTx210tusT7i0wWTE0qk9scMGHzc9MVF/wn1tb6KNPisJUmRsC3lVHJ560AaVnayXmuWv2K5ZbdQGMMnL8N2PrWy2sQrGzXFu06xybYYZVyxbPY9jmuI0zWtZbVpri00j+0FVPKkW3VVcEcgYrodDj1LXrjV7i400WOh3m1D5i/OzDqT9KfKBduL+70WSa20uym1W+a5WV7NZ9rpHsyu4v0XPUrziqWraPqerWct5pV/Da6rn95HcR+baMf7g/2fRvWr729tokc9y9y1uY18qRrz7uT93d/SqWpa39j1SGUPYw6ZcKY0hI2yKysCrAf8tARnntTjrqBm31nHqV2baK5j0vVrMjzTFCJflI4Cg8AE+tZ1vbarC0aWE+m3q7/wDSk85Y2j5/hKrxnuK2LeC816aW6thDDHcf6LJLsZDkdMe9YWufCTTvJlthfw2V3MhKTW7+U5JcdW71d1N6gdTa6vHaySC2SCG+bdJJuXZJISMIR/eAXPNbE8ytCYpovISaAfaTAMuuf8a+abdtZ0HXvMiuDqel25Mcf2hmDlPZvTNdHq3xM1vxEi29rbNZQKmHeN2f5h0Nayo21iQd63mX0jC41K1eCzlZQrEJKoI4zmpbh/t1vH9muo4YpgYpVlgIYKeCDt4BI6N261x3h/QbKONbrXlDT+Uxmu92xgxYbc10F000VwsmnatG+lw7vPuAq5HHQkfe+nesftGr+E6CznXR5IJIEuXhy0Uon+fEZGAw9s1TuNe037Si6jp8tpMifuluF8ppOeCsf8Qq9a6BDo63d2b6a6urpgZoruZniOR8u3PT6UR6ldLHEItkslurNMPl3heuB7Ue6ZFqPUG02ONUt0jtn/c7Ihlw/VTjtzUmqX13awLJNZpIoZVVInXJz3XH61jW7X3ia2hvbtEvrdlM8VpaN5TlgcBT/eyeMd6saZoKaLJJcXGoyKZQTZwTMj+Qnpk/e5/KkWXW1C50d9088UsiYLWcW4yAHoCe1WY2m+yrc3CRRh8hFkbJMh/hBX5Rx681UWzM1xbuDI0UZ2zXTuqmcngL8vG35azv3lvcG1m0iS2EbSQIj8pJlgc53dKkg2Z5Iwy3UDLb37whZ5Ad5xnpToS7Rw+RFNJKqfMyvuMeVPRe2aox3C6e1si2Txs0BjKqjEjbzuJ9e4/3qLO6uRCyLHcwIH5kY4JB96oDWhuPJNuCAo2tksvzg1otH5y4i8yV1XGFTJOfSsgXSxrFG8haWIGJ9rbhkcjb/WtrwshuNUgV32pndIffPFdVNczSMqjsmz07wvZx2ulW8uJRNJGu5pV2ng9K3Y2qqrMuBnOAMN6ipPOr76hT9nTUYnzNSXNLmLDbc0VF5lIG5NdZkTZ20jNkEVHT9+eKAHhflpKUSbiB6Uobk0AK33aZvzxT9m7mkbhSaAGb8ZX14pv3eKX7vPrTqAIR1NB/3qG+8KWlzAM3/wC9RUvy0UyBVG4U9UpirxT0j3c1qSO2tT9lCrUvp81QWM+an+X0p9IOpqSg+9x6U2nfNR93igAo8ulp1ADPLpdlOztpx2tzSAiA3Eg9DxXCeIHv47iWKaRFnkJ8ox9QvvXfZxya4L4gatB/aEOnRRs8zFmmmhTKRccKT6mvCzSMZUbyO7B83O+U42+mNusYSLzPJdyoXpnHJqr5MsVxarOV2urHbubvUsFs920jyNJPJ5fzJ9DxTLg3EV8HfLK2I1SJdzHPG4jvivij34jWs2umjeOTyIITtk2dSn8OPfNZOr3n9g6LMllbu3lMWjXAVmz1yT0+tTavJ52rRWEcbRFYynmA/uyQM8+/+zWVqkkk+JL0SQ/aPkmQDbcKp5z/ALxA59qgfvF+w+z3Qj1d7Vna48sNDNkOiBeGDrxgGq832i6umv5AbYPGN4k/dGJAf4f7xx3ovfFWn2NnMYZDfFXRxH8x2gsw4TsPVqlkvJ308/aNQjmiGJZFcZyq8OAO5BIpmpUv7HTra3s5bPUvsMdoj3KW8cGZLhmHQDuTu6+9XJLvUInTUFEdmJlAilj2ytjvub+I+3aqU2oWkN1NJ9jjP7hUDJF57S7+UJP8OFzxWH4m8VRaPZTX2tTJGsybbc3AztjA+UAdjmtFEB2l/abjxE9i2nRx6cmZ57yKD935nUBPc1p654X0HxdPH/aOl2+oG3iZkmePCyxhxgA9hnrWanifRdH01LS1vY7z/R44YoIWz5jBS3PzfxH5vwrHk+LENoirbaZqUsdvtKSLHkAbT8pHdc9faqUZcwHR6xdNazi0jurMz3bq32ZI8G1GNqBT/EfQVz/jLx1bTaO+naNHImpeWEd5LZxHDzgj5uMj7vHrW1pPiiFbCPUBo01g04VFhePM3zHByffPAq9NqN1NcyQCGS9e2XKQtDiNvM+b5j6io+H4gicl4duNbu9AvLNoYLKQRpbverJl9pPLAdjit6001tN0OOO5mhBhi3iaSHzC3fJNdDeatpdjYXIniSzZIfmaZdjBiw4Ve496S31j+2bM3H2V5LdYzHK0p3IRjrjuPas5S94DC0nURGPOjto5beP/AFnkB1mK/wAJHtmqzfEC31xp47XSr2a2ZHtba42yJGHUHIZTwTnvW3dSatJp/wBlS0iiRHUi4jK4aIn5Tt7YNZV5fXlvp4E7yXERdsQIuOXYLu/WqiHxFu51QX0zSzxXFpb74gVDeZBGqpxkbDjJ9x9ay/Er/wBtSWk1qsepeTG3kxMcMrBV2NnsMb6zpfAM+vTlrVrnSpWIkVYpm+Yjkbl7j2rU8OeCIPDF5dXF1quo3urXrLHLdzzfu3HQIF7Vr7oFTwv8QpluGiuNJv4nhVjdKsfybl5Uq3c1vSXOjeLmZmtpYolYKlyiDGT1Zs916/hTLrXZY9YsrG2t21FDIfNjXpAg6Hf35/h70v2a/wBe8uPUlj0ncx3w2suyVsfdJrGQF5dM0ma1LziExRBUWcxHc3PfbxTpYNC0+L/SII2/iVUO3I9a5yz8I3UOoeTqc0l1bweZhpHMhkBYYyR6VW1bwLa3F8b3TZ30OyDBpSSGhuSxxgM3O7/a79K0j/LzBKJrJqmga99utpbXypbbDJHnPnD+9j2rN1m1h0fT/tfh3R4drfvpBdbym48Z44X6npV+90TQ7zTRaG9sTcs5cMy7wSo42+3rWZptnpum6hIk0dxYpJgTWltHtth/s/XvUhE5618deMNDuhZarpFtfJL8yy2kmNsZ6rj6d6nt9BvfF0099Lb3FhMGATTYwyiMf3mJ6ivQpvEmiaOscsFvE3l8+Yq/Lx2+tGoeLJLaZo7ZVlYxIzrAMhcngr/Wr5ub7IR5ipHJPp9jM9wYdPQviNN6AnaOWPtVLXU02WGIvHcXsbTrGIo5FRowOSAf4go2titlbpNTKRXsVvNJ9/8AfQ4YN/CQfXNc+JYtIkkkgSbUrmQyIsAcMyqW5wx4A9jWQFyzfT45rWPThbRwTHaVdjtLZ/gx/FU91rF3c3Gy3sWureQ+WqRAROuOCzM3VfX2qrqFyp0uMCNbO/WWKSISqFMDgZPzL14os73VZI9Qtbi3kXzJRBBPGEYIuPmPPPPtVEE4mSxklS6kZpl4eOQHYCeg3Lwa0v7QG5rcoYy67G43L8vIxWNgC+tpbwzXEPm+WIzDkZ9cVpM+9ZjLB5MLMDHz3HT5e1VbnFIZG0kk0QmPDo25lTgehr0v4c6P51u19N++jPCrt9O9cF4Us/8AhIPEcdi0bJbxId023rntXuNjZxWdtHCiYWMYC/1r6HLMN7SftZdDy8ZVsuQnZTtGPlXsKGk2rjrTqb8tfWxPEBW+X7tPSTbxTNq0eXVgSxvyaf8Ad59ar520/eO/TvQBYPQU9OBmoo9vfp2qTzKAH/d59aTr1pd9I/WgBvK8L0pio+6n0K/FABt/vdaY/WnSP8tR76ADatFFFBBLTo+/0pq/dNLH0rUklVadTfMztHoacvzMT+NQUP8A+BUUm+lb7tAxyP1o301OlPoKBOlOpi/MxNPqQCihvu0zc1AD+DwRkVxXjSxs9UjkUNiaJhNLufEa54BkHr6V17P5f41napY29/avHJEJVwSAe7V52Mo+2oyidGHq+xlc8x1S/tYIjtlTBADf3mA7fSq0iPcSMZJo413bnXZ1GOKn1DTZdNlEdyShVPMMS+xyBVGWRboosZaMRkbl9R6V8DUpypvkkfRxlzRM8zLa3CxxTrPIfMdWkO0Kd2WA/BqgeV7ZYZvISJ7dQoaZc+Yc7cMe2c8VFNJOukS6anlSSxz7Iwy5MWDkDPbNNeOa8hs55Ea4sVkZjHJKu3kYA/Oo5TUr6feX99q8ludFe1uGjlhe4uSpHXIKj0rHvm0tbPVL2SCOPUbMumF4Dy59O9dJr2rnVlhmW1EN1FuKQyHJjcjHT+6RWZJ4I0tbG1kkSO5Tm8f7UzOjSH+99D0XvSAow+KJ9P0maWPw/dSsgLuYwZJZl25UhB/y0B/SuYvLC++Jl2sWp6c3hmzkHkS+dh5JFHPyhuTx1Pauj1TxvbLBcWVjFdJeFcp5cIeRiRuCqpI+Y4556Uuh6rqHiW8k0uXTnhvLiLzWurjLRwqRgjcQAXPYAcHvWkf7oDdL8AeDtF01rmytDbiFxiZ0zkL91/wIzWlc+JLa2mtoYQ1vauxZjJByMDkt9e1VIrSaSM6fDbvdwWcscQkuNwcYGSVY/f42/SjVbzRI7qW2lv8A7FefKGdZ0E2PQjuPaolKUi4jF8VSSTzGz0CZ7xinlIi7HeMNym7sAOc9qzr/AFS50zSr8SJcWwvQRFY20IkInLgHe56j1qpf+J7+a4vv7EhumuMrHDNLIr7hlhlFHO31xVGDw7PLp8+7xBGxmcFlZNiOp/hXPPB4OOflq/dINO0tfEPiERp4gl0+ztUlE223Xzp2B4ALN8q/hXUR3ETySQRQO1qj+Yba5Ql5ARhCAvbNYc2o6lo+mS7LZltZQCJ7dh5jE/L/ABc4q7J4wiOlwtNp99b3cMm1y8WShx8xU9lI61nL+6Wauu62LOycLBd3FxMVhhEduwdAeCoPYVi6P4u1BrWKV4ZHRWCyGSPaThTuZf72WwpHekuvHDahryRGZZ7eA7TFnapcj5QH9M9RWjpOoahdywfa7lZo0YlFaLzVIz0H0qPsoIk63WpX1lcajKsenRg7kkE0bnyxy2d3TjPFYGpXHh66ju5tT1WdyrpNI0kyswycAqF4AqTX49POtW91d6TMs80Kl5I5GBikAPLofbpVlfD9rcRSIxt/t8oyjTQoWDdz+VWA+O90NYItKikVVbcFk5Mkahc5yOcn2rRlt9O+ykTBpbURq8LbWLT4Qk5LdKo6XewaRK8H2iK+t45CZI0jVfKYDp+NZ099J4jlDWAsbqPfhg02VjA65HY0+UDo77xKiWYjs1tRFE6CGRm+cSFPlX88Vyd54uvdW1PS/thexTDSuSHLJF04A4wfetLR/D9lNBHPHa225MBb5o8JnPK7e/1qaS8sLKdlmtjNYDftmjO1tm4cAemaPdiBDo3hWw1PUWuNkyIpyrxrsUeyN3z3XvV1dC0q1VZoriaW28spGpbzEkXPc/xEH8qgutcuBKj2lnFPAsGY0Zgp8z0JPA47niqQmu9X1FJI4r6G9WTM2CUiHHAGPlb6ij3pAaMkdrHJHawTRPYqzStbzR4fYBnAPpmse88I3lxdH+xrmazu40YoN37pd43An2rYXQZ7O88yKA3Sz7Gk8pwzghT2PX6VX164uU3Na30dpMqnzQFLR9OAFXofWnH+6BgaV4P8T3WqI2v6zBETtEa6SPK3YU8s3c1btvDdp4ZvJbbTF8q4YM0s0kmXmY/cGfcZq9p99dX7ESWgKrh5Lq2mG0oOVKK3I560+HW9L0lCRDNLeXUKyNcCLJLFsKxPbBrXmILem6DavH9pmuZZjBGFWaRsiIk84PtT7pruwuGiWDyWbEsrRDcoKcKc+pqhcyTSNdJKQUdNwZ+h4/i/2vSpzBGYXkVhNNIm0+Z/rHGO3sKkUilDNeTreRyRBTngp/rIyf6mtCz86xnRHuJLlgVAU9Vye9VVvjfXU8JilVt4WIbs8Y5ruPBPguDUs3WoRTeZby/JEX2j64rqoYeVaXLExqVY0480jq/h7pM1jYySXFt5M0jbg/8AeWu3X7oqpbxiNCoGIlAAX0qdfbp3r7mhS9hTUT5upU9pLmJd9FM5/hpu5q6DId603/gNHzUf73WrATrztpV55oX71S0ALG2eKcvytiohJTt26gCVpNvG2lPzKD+NQ07c1AD/ADKb5lM8yjzKAHb6bTPMo30AFFNooILydKdTKfWpA6jfTaPMoCJKv3TRTPMpVes5GhLRTN9MplE3mUeZUX16U7d/d6VIEvmUyR6bTPMoAXc1RTNuyNuM8UvmbVJ96iZi3zDqaAOd8TeHRq8y3I3PLGv7uInA3djn615zb+aLVbd1zKytGUB3Dk4r2KTGD6964XxDo403UPtq7I4G5CHu3Y18xmmE09rE9TCV7PkkcdbWuNQkRnbe2MeX1cj0+lRLZXFpFGjI8saqSY4ugdjuUt75FaklwjzSusKq0bsWkVvbrWTqR8u3d1GYowXkYd16n9K+TPZiZtjYx4nnu4GcjcivG3MiL8wz9DVCPwWbmPy7q/uEWQmRmllwsY7YHtXTafcW8cX9nb02BCqzL1XI3c/991g3SGWaEyvMY1zKkkf+sQnjH0NBZDbztDanSoIbT7TbO0ktxJmN3O4HII5Jw1Qvr12uoO8dv5ttYgLN5pB2ufvMoHJIHrWD4Vh1Sxt7y/vWh1Y3EjhY2XYcH5hIo/hzjB9as6VNcWFrqVrJCX1W82mRrePKFdpzk9iGxzWnKBoR+K9UupIGtNPurBWyqz3U2AufX+9nt6Vg6DpEF5qiz6ykMt1hiLOJMNCNp2EnvuNXtNtY7dxBfi6kvIQpWHzMjAUrkj05rS8Qaoum+EbZo7iG21ksN4uF+6d3Ue+KObl0Al0OLbpS3aoq30kpUqytlFB4NS2OgSw6k5MCyRhV2MXCyEk88HtUN14hGlvZWkaKouIWaQqd25yR82/t9KyLGW5utSlntQsd9EzjcT+6YY6Z7J6H1qAOrmhtbe8t4JX82ON2ZYcE/PjgfLx1qrr+tWOktdiO03yeWgiQnbuJPXHtXN2eoXv2z7NqtxbvKI+E0+VyquTzk9jipnurKO6MzzxRtK5jBl3XE54xx6CqlECxF4fv9WX7QthZWkjMWgihGUh4++w9e9dK15YafZmeKSE31vH5byfeXftXkL25rMvNYcxwSWzL9mtx880ce0n1Cf1qlrN9/bVnaT3Wl+d5MjTIYZnMiZGOR2zUAZh1bS4f7WudQ8++uWI8iSVs7S3zcDsOK1IfEy6xJ5FrZxAD5lmikBjLAcAg8E/Wp7CG2ktxYz2kMRA8xIbcs7Ff4vwx1q3p+oWKzXsTWsMEUUmwbjsY4G3j35rQsz4tFLymS9vkS2EW87bdRI5Bz/rV4AHpWrJb6bHbxmwsUWYyfISuNoxyWP8AED6VYs7+W+2s6+Sy5ljjUAMWPBJJ68Utvp5u7hl8uODsZGlLMSfRV4BqOaQGZbaebjzbRGj+127mPyoGz5fzA9P4c+tXYdA0zyZkedpLmR2Mscp3RiQDn8cVm2euR+E767s7i5t4IkcN5zfclj9/cGsibTzrszaxps5YxyYSN3dI3bPzYbtkd+1Igs3jWlw8aWdpK0cQVZ1YEGM542kdAa2Y2nbTCIhOd4wJHn8lXk7gsecAelVNNs5WjihtXhgeQSC5c7pYYWKnBJ/iK9Md81TnF9qtpbx3E1vKkHyA2/zRv8p5B/hb2p8v2Sy41vBY7o2spJWTDou9hhupLHv7GqdvqF7qFj5Mdh9kNq5SSO+k2suOQQncH1q1aa59ltXtrFLmSaRgdwjDAKPvDmm3GtXrLOfst1BKy7VWSIyJGezbjx+ApECR3DwW3zRZuCkaLBCMqFIILGobe3gjDG8A3ocsZ+G9jjuO/wDwKrELCxjBvR5wAyZFbAlJ9/b0qS4hW5V2IMQGHVAMkgdsVvECrb6er3jfaN/zOpMMj7gBsOGI7e1Wrjz2jt5t+FXKKVbIxVCbzLgwmdmMsnyfIcoT3UjscVPpfh2fUWj06F2kBbc/mNwFzyB+FaRhfQzcrK5P4dtZLvVIYVhlm8twTMq8dele8WCbbdNyspAAw1YXh3R4NJsooIo1DqOa6FfuivrcDhfq0OeR4GIre2fLEuw9KkqtDJuG78KnX7pr2DiHF+BR5lN3LTsY59aADfTG+8Kf93ihfunPSrAMbqMsp+9Rt/u9KKAH+ZTty1FQOpoAl8zHSjczDNRr94UoOCTQAu//ACKTzCuQOvbd1ppZWYfNSNvzx0oAUSNn5utIzVE33hS7/aggd/31RTf+A0UAaFSryM1EnSn521qQO30+mI/WjzKAiP2U+meZSM351BY/1ptM8xl4o8zbUjJabULzdKPOoKJfMpv3uaYzfLTfM20ALJSF+BTGmqHzNqFvegB0zZOP51la1Zpqlq8MhK7iCGTtitBpflK+vNV5m8xwCMgDtWNSn7RWGnZ3PMLmKfzJ4LgCFlR1bavLjBwTWZdMiQ21y0jLDtYDb0lI7/hXWeLNJjtobnUC0jXBCjcWyNuelctb3SSXEUxCtGiHov3T618FjKPsKvJE+lw9TngULgSCY3ElwWGZDIq9Que1Ymu2dz/Y7aeRHHbRyqCs3Vkzkn8q2rP7O6xqvlyzsjRL5ku0KgOQcfWqGl75bdGl8y5jtVCQ+Yu93mIOc+w7V551FdbCPTo4orOH7NZgF4Y2Riq4YFiH9/StS5Eq6TY26SfYJEDSGcQ5CDrgjvmp7u5axliVDCGuLlIzMx3IquQWAHZsVlzahDa6ZdRujXibGEUezOYueVHrmq+IDJ020tYL57nUHac+TJJJMw+Z9zYA29lp2oQ2Wt3gDO019JKyO7KJFbaQpAB6YBrJ0eW51B5Lu+ZY90DErs37kX+6vsOtbEc0cVukNjcwM7yvCqog3CHIJyp6VXKBSbwTZXF2LASzW0ccytO1vcHiPc2Iip4AB54rbvh4esVESTMsLFhJEo3NIxYMAfrioB4f/s6Ei9upXubk+b5rr5ax45YhRwMDsetQ2Pg3TvCkd1crqlxdXEcYO66dWb5z0YDoPSgCS5/s3RbZZNO2+bMjZhRM7AR95fp3q0dLg0VbW5ezW8uY2LTPIFUKGHU1T0XRbSbVlurq8uYLzcwNgszeTkDa2V7gg9Kttp1vo+Y5dXJsVVFjhkQSTrgEkKTxt9jWYElw13rUDJbWcllH1+SQKje+T0q42kyywPFLHa20bp5YmcklgRhsBePxqgNUufsc5SFZFabaY0lVmYY43Ffuj2qIKDZ5tmcSA+UpZtoj2cHB79aANKTSZYFtkXy4mjHl24n6uDx/B/D/AL3FRR2NvJDcSXE8FzJGgO1FwqsD0FYzafqD6lFObwRKyGFA4RtkDcHn3BWn3uh32lyBbaOEKYmc3HmHzYpcfL8q8Ebc8f7NVyhzG1qXiO0tNRt7OVykVxGzP5j8qAvJZf4Pb1rCuvEFxqfmQaTqRh04hRG8lpsknIPIHqPeqtjptv8AZYrwMs0pwrSXDeYPundg/wANT6fqmki4nnuGjjBZoViAdizEYG/+lVygSaXDI9wsUllKk4djNNeL5qyccBV7VoK19b3XkOIi0bsCdrFWyOMr6Cs9lt2hF+ySQRW8bhVV2Vuh5HtTotatbOx1K4AKzTfvIyoDEMyKAxJ44PrT1CJmtNcpavZm5WRJnLTjyypg4X0521b0+OWxs182+tEiTLxRxR+WsRHIbIbcT9a0v7QOoyr9nlCXEbrHKx24jYDMv3eOTWV4om8pblLeJVc4LBXXiPsfxNLm5gJLO/tB9sa1EtzLgxRyRs+GAGR+tA1hpNQgVLi4zHiZ9qMYUx8mCfXmoY9aitWlitYZ7eVFVDG43KW+7uB/Gr1xa3tn5UavlcZZm/1k27t9KeoEUl9ZqtrI0sStKkhihY42kA/zqzb6gWkiiZVNzEQzSq2z6D/a+lUbW8tbbVN10NzxQjA29efu1Na75rO488xRRMxdAv3gPerjET2Fum3yBZryIztndGxxz2ru/AWkx3FmLq4iljlaRlEUyYKYHUD0PrWD4P8ACcerXkl3cp5limBCkvQnuRXqkFssEe0bUCgBUX0r6HL8H/y9keNiq11yxLMMaxxqp6dquQ/KMVXj+7VhduBX0fKeSTodtTL8vPrVdX+YVJv28VoBNG680773NRp0pd9AD6Kav3TTl+6asCRJNvFO+9zUR+VQKcv3TUADfeFI/WnN2+tNfrVgKW4FFL6U31oAa33hQ/WjbjnNN8xf71BAUwPyaGbc1FUAbmoplFBJpr8oxRTaQdTViJqN9NTpSN94UBElb7tN37eKZR81QWOpWf5aZTKBj/MpN6802m1JQ7zKYz80OcHNN3bqAEZs8d6bJuVcUP1ptADD0qJUO7np3qR+tN+aluBVvLRbi2eEsVVgcMvUe4ryTUIp9NIjEil1UxO235jg5bP/AAGvZfL3ds1wnjbTpY7g3SlUhkGD+FfOZrR5oe1j0PVwNXlfIcdH9mudvlqkoeMEj1INVUsGs7UW0LuC5V02N8qjdyDWtZ2f2xTMir5WNh/2vas64iksZwiusguFKD27Yr5Q9krTTQNavG9qIrZAu5pmyrJnggfWudmvibi3gjlkE8mUt4oY8LGx4PPuK3NTaS4hCl8wRqu9lbjryKSKa10e9mkZFmuQ4zu6BiPlz/wDNOJRJpuh6dpzQRTtJ50KNs+f+Fh/jWo9jaw3N5cQLHCIOGuEi+bzCvOf73HbvWFrE66pp4TULxYwj5cqMTbfRD2qh9vgWxtVtredysgO+6udsrEH5dx7H0pcsgOh1fWl0bQ5rpkwV/1xeRSGHqR2HtXHTZ1vULdn0uHTtPLDcHTypSpQ7WZvQH5R9am8T61dXukoLCEzyzlLd4SN6+WG6O3cZ61o3FnK11DcOshYptRJcMgwvIKnp7U9Q90jjhmMdvLYndJDFIwnujv81y2CAey471rx2V/DPBFbfY0vpNz3EzSZccdB7VljUntYrvUYLtHjg3RqsxKqCrBSBt471Tmk1KaaaWa4tUBJVpbGPfu3Dgj2GeaXvAbky30Om+ZDcWxsJXMXmRlgVboST/wGqtvpt28kUS366skbCIuYclBnO1R6+jVnrYX8iJGJPt8KxAC3tYdqgk/eb3q2unloXnjS3UySbo4ZGwgYjGSO5p6gGqa1cWerJCsk99x/q4YMxnH989sUy01vWL7xBHax2MULLulldbjzSygZ2j+6Tu6U+11KO6mubNJ4I0jJiaZIvldQwYAfQtUckcV1cRFI7lLm3jaTzoJPLDLjZ079aXKBeuNU+zMU+xxygoDGVnD748/3T/EPlrNXVLy8upk+wRySr+8KSRkD5uBs2/rVK10u30Waa1MjXEqIshWZl2LuPXj+KrTapeRzLKryNPDbERqqsUG35RvPY88GjlAZY2epzS39zcT2XmrhYNMiYdOhMu7v8vFTW66hqTb2ENnZJ8rJGyYLelZ9rbk273Mlsbq9dAzwoMPjPJz3WrC6X9luBdQXMNxCyZFrM+2JPUEetaBzD4xGt5JbEfaZpAZGRs7YS3AI28U6HSzMttMT51w6L50ytwoAPGO/0ptjZm71B54WVWRSobZujUHpg/7uah1G/drh44rlpbRSAJFfarnuSPQUAXpFto2b7PdLcyOw87B3bC3zDjt0qJtSlW8iVmdUihw0YXklzuB/Ss21vJYVi8uERs0JG9Gz+87t+VJtkOBLcb38sE7l560RiRKQWV1NI0ksqi5eaTzJN/3gCcACuy8LaDJr037x2e3iOHP9/PQfhWFZWH2u8tkt2ZZGXBj9c969b0HR00iyjXb1GWr2MDQlUqXOHEV/Zxsamn2qW8SIibFAwPwrQTpVW2YTRll/iOfu+lXd+1cHoa+tieAC/eH1qf8A4FUa/dGOnel+X+7VgWV+6aej/lVZZNop6zcUATh+Tnp2qRX4qpu3c1KrcUAWEbr82aenSq6SbeKfG3JqwJ99L6VDT/M9qAJaKiV/mPy07zKADzKG+ZSaHfpRvoAa33aZTqb5lBHMHFI0nBoaT5TUe+qIjyjt9FFFHKMvUUUVZAnmUrNuXNFFBYM/lqPemeZRRSsA/fnimCTJI9KKKksPMpm+iipKGPJnj0pS/wAo+WiigBjNzRv28UUUAFN30UVACL97pn2qG7tYr6B4JxlW7HtRRUySkmmOLs7nnmrWc9nfSWsYKxxMCm3ox7Cq89pFDHI9zL5iqRkeh9KKK/O8VBU67hHY+noydSF5GbqGiwmCRbd2TOFCkZzjnGK5+bw490zXFyqvEGBh53Yx7dqKK54mw+50uA3jzTOqlzhABjkDjntVS8tWt5IYJWt0R2Eg8kYZsHOGPcUUVVyhJpLH7V9l3usUq5PBVdnbBHI57iqepanJNFLZ21uIhLGY5J2RsbSMZ3N1ooquVAM03w+lrYo10qw7gW2s2VAHp9aisoYbeWVLKeaJ5It0p2/KMHgiiip52A2PN1HIf7VuEhaPed6E5YnHGOc/SiTT7m8hRmY3VqeNoDIr4/5aHdzk9KKKvrcC1HLp9tkwz2sYjY+SnVlwPmJf+P8ApWYWihsnia0h87zd8lw7fOQTwR7UUVcdgNXT7WKSH7RdgCRxhC8uMj2HrUc3iBLfFrYrHMjRhZXdvuuThv0ooqQKa6kJvs9wxWEpKybGbg8f6ofTrUMUytZwqbVZZGOXXf054oopWII5Tc6L5tnYtvhnZmMqytnpwo9yuW/Crlk3kyCKYRgExxNBGNocBcnJ7miitIpSjZhFuTjcJpm1C8Qv8qQ5dB6A8Yq1ptrLqt41rbo0hwvG3OPlPftRRXdhKcas3zdbGFR+zhdbv8PTseo+GvBsWiESSHzJwx+bd90kdK6iNaKK+tpU40lKMFofORnKvL949mvxZYjqSiit+Z7dy401zNX2/R/1qFCybWxRRWsJO1+xlOMVCU0tUPp0fU0UVmpPY5/av26p9Gr/ADH1Mr8UUVobXtqOMnAo355ooo6XKpx9o1fS/YfG5XLCnbmbmiio62FH4ZS7O2yDzKUSUUVs4rkcupTSi4pLoSluBTG+8KKKmTs1FdEZ2UYvyDzNnXpRjjcenaiiggZTKKKsBv8AwKiiiqA//9k=;" vertex="1" parent="1">
          <mxGeometry x="200" y="382" width="131" height="87" as="geometry"/>
        </mxCell>
        <mxCell id="YbGR8QRvvaodPsiYNmc9-8" value="高温豆粕粉" style="text;html=1;fontFamily=宋体;" vertex="1" parent="1">
          <mxGeometry x="202.5" y="382" width="82" height="37" as="geometry"/>
        </mxCell>
        <mxCell id="YbGR8QRvvaodPsiYNmc9-9" value="高温豆粕" style="text;html=1;fontFamily=宋体;" vertex="1" parent="1">
          <mxGeometry x="200.5" y="237" width="82" height="37" as="geometry"/>
        </mxCell>
        <mxCell id="YbGR8QRvvaodPsiYNmc9-15" value="" style="html=1;shadow=0;dashed=0;align=center;verticalAlign=middle;shape=mxgraph.arrows2.arrow;dy=0.68;dx=16.8;direction=south;notch=0;rounded=1;glass=0;strokeColor=#000099;fillColor=#dae8fc;fontFamily=宋体;" vertex="1" parent="1">
          <mxGeometry x="380" y="482" width="20" height="50" as="geometry"/>
        </mxCell>
        <mxCell id="YbGR8QRvvaodPsiYNmc9-16" value="" style="html=1;shadow=0;dashed=0;align=center;verticalAlign=middle;shape=mxgraph.arrows2.arrow;dy=0.68;dx=16.8;direction=south;notch=0;rounded=1;glass=0;strokeColor=#000099;fillColor=#dae8fc;fontFamily=宋体;" vertex="1" parent="1">
          <mxGeometry x="380" y="588" width="20" height="50" as="geometry"/>
        </mxCell>
        <mxCell id="YbGR8QRvvaodPsiYNmc9-18" value="" style="shape=image;verticalLabelPosition=bottom;labelBackgroundColor=#ffffff;verticalAlign=top;aspect=fixed;imageAspect=0;image=data:image/jpeg,/9j/4AAQSkZJRgABAQEAYABgAAD/2wBDAAgGBgcGBQgHBwcJCQgKDBQNDAsLDBkSEw8UHRofHh0aHBwgJC4nICIsIxwcKDcpLDAxNDQ0Hyc5PTgyPC4zNDL/2wBDAQkJCQwLDBgNDRgyIRwhMjIyMjIyMjIyMjIyMjIyMjIyMjIyMjIyMjIyMjIyMjIyMjIyMjIyMjIyMjIyMjIyMjL/wgARCACMAKMDASIAAhEBAxEB/8QAGgAAAgMBAQAAAAAAAAAAAAAAAgQAAQMFBv/EABkBAQADAQEAAAAAAAAAAAAAAAABAgMEBf/aAAwDAQACEAMQAAAB7drXEMWvIMRcpPMtbiEfkufn1IcVf0KUOVWAjA4CMDgAxFYOXChV3JUY2eg14JJ7k4rR0JyyOijFEICYgUVACYAS4OXVl3LKVa5cOftWEWb6nH60lBwXNCDc7IrszUBMQBPMGSDhAZd1YHF7Pi6361co6a+h9H4nv2rz08EodW+QUW9O5yurpgIEMwIEAMqDxURcuGPhfd+Fx31VbUw6r2x0vXOrGDWuOuV+90+d0u/z8x0Ca5hoBnLg0SpDVq3E6+J9d5LHovOZZdOui8SQQZq3Y3R6V1Dbt4NwyGa6hmIczgxepGU2uC/lfY+Ry6Fb215+xS3rrpz6ezmq24nfH0p7X18C1MChYWBlhNIPlrcMr2hhwPS+c5+qzXHz/Tf2V3xtjlthcvl0z6ebqTeel5K4siLCyAtN4NFREl2D5D2KddPFys8Opxrnv5bJBiGmTfR5Ps75v0U6OQROQyDUTKFE/wD/xAApEAABBAEDAwQCAwEAAAAAAAAAAQIDERIEFCETIDEQIjAyBTMVIzRB/9oACAEBAAEFAtxMbiU3EpuJTcSm4lGrqXmGpOnOdOc6eoFbqhV1SHXmNxMbiY3MxuZjczG6nN1P3NT3M8d06IrPkZ929+oWo/kVcWp+RjafycYn5KMZrI3t38BvtObzTqamRHN+Sd6IwxlE6hE56Rqshco5y3D+3414TgejKsatjdM9YVXEy5xUbEQLx8T/AKO+mKVSEbG3Cv8ATKojWlINXnT/ABy8RdVXGQkgydEWPVwpDJNaq8zHPNA5XR/FL+mMf9Miy+FUsj5V3j8f+ju4ODg4JK6aUg+ljxKKKKIUH+NB/m4OCyyy+1/0Xz/z0S/WLw/xo+NN3ZmZmZj3+xxn7cjIy9Y19q8kKq2LJTJS1LUtTkooooVOJPNGBgYmJiJwM5Vieyu6iiihU4f5RBGmBgYlFDPsie2iiiiiiiiihU42rnG1o6TUEjadFmKwoLpx2ncNiVHInFelFFFFFFFCpwk6sJNWrhmpYhuYlOtHiuphNxGN1UddbNaKKKKKK7p41ZJkcDaF/SqIhwI9DTNc6b5J4myxu8jCaNGsVSxDSRNZD3//xAAhEQACAQQCAgMAAAAAAAAAAAAAAQIDERIgEyEEMSIyUP/aAAgBAwEBPwH8OEcjiHSZxHCPp7UF2STMSzF9SXvaiXRkhl/iPaiRhc4h0ySsPbxrX7I1IGV/Rkiri1vTdmIT6HIqPrX/xAAiEQABAwMEAwEAAAAAAAAAAAAAAQIRAxIgEyEwMQQQIjL/2gAIAQIBAT8B5pJJ4YII4HLBqCPLzUEyq9DOifS/oTrKqIhHqPoTKoK41BHib5+Rdb8ltVexWvGpUKTqkwqZuSULRU3EaMbvj//EACkQAAIABQMEAQQDAAAAAAAAAAABAhEhMDIQMUESIDORoSJCUXFhgeH/2gAIAQEABj8CzMzMzMzMozyo83web4PKjNHJkzMzMzMzPIeT47lYd1WHdmYRmERhGN1ofd6M/g8sJKGJOd1wzqUNl7NiPbY2hPHAyq6RNxXZsmnXWKKpVe9Pt9lZDh/Ft67iGpj+rsjtxP8Ag/05OSGfUROLqnwjn0cm8RSGJDbtx/q1/duL9WHorcXbTV6Q2NjY2HS0lbdpW3aVyfD7N667G119J9S9FZlJ+tMikRyxKUk7sXHZxrQhuvq4JawtdiiW7sf/xAAlEAACAQMEAwEBAAMAAAAAAAAAAREQITFBYXGRIFGBocHh8PH/2gAIAQEAAT8h3nSN90jddI3XSN10jddIvzY9uEJ2UfDZDaF/4YSwzozb+UmNThq+I3vSN50jc9I3fSN/0jcdI3nQgggggkRuJCebQawiPGCBeECdph5yPYaI8HReKJM2c2E8P8D/AE0MaXQgaRLLkvXaFbblhf3RHQMphjo6MdFWKWy30JaTWp5dhZkBUyowokoZS1Hnk6IF/IzE/ElG2uaOrHRUVGkfonGlsQZqGkidMY3pCG3DpJD4DlYiRWaP0JF+aGzHM7cDoxjovD8IzgpEx5ZtiYWv7IZSytcuJBudSBd32LjyQrBe23Q6MY6IVWhtGFlJvgOClpRH/I2MA+xLbAp7TBvvoSePkhrjCHsMHVjokQxIg/YNXI0MSwhM9ROgyTePJxQsd+w2OjHRUORyFy9QrcvIlg7lmot4mhj3nIzRoYRTvVjYn0Gnoa+hqREIkkfqEvG/klXhCJE4WHT9wwsZJJI2Nki2eBTWn0Ej4PAsF2hwJfCRilukuCjLQ2UbKNsY8BzQgqjqjTog6rYbEkNYQ8ZIgaIGiKFUdEJLktNCXoewdJbCPgqPw5eAXPAlFbyC1WLVSaUkWOKCfZpD3hpiGJCJLZLCiB0HSXgFxwM0a84eBldT3DC2PAtEciJHL6NV+Bz3OhbB+yJLUYutfEGXRS8HcWTcsqdSazAm84FeZzoYrXPM3Q4i79yW5EMBDNazBBBA0QNECItRDI6XSU0WeuR2Gl3SJOpaGkmjTuIg9jfjpR5P/9oADAMBAAIAAwAAABD282vVlsV1XFKBiBKatygTxyCduWVxDCTwihHyLW5pijzxV0jFtwCTz70sZ3d/XbUDJBNKHEOcKrwzaY5RygPKL7L5KZP7rbwIsL//xAAfEQEBAQACAgIDAAAAAAAAAAABABEgITFREGFBkbH/2gAIAQMBAT8Q2222PjbbbbeANiSM8wi22ea6C3E8Qvv9Qk8x0OOSabV1CsL2WlPDqLHdl+YhTC7beBLtL0oudglryZcIeSepX8tzFItR5ZD3S2YTfRYvbOH/xAAhEQADAAEEAgMBAAAAAAAAAAAAAREhECAxUTBBYXGRof/aAAgBAgEBPxDZCeGCGQJrezIWmlN6c2ZcHaN2/X6fIaq7s5I5CQwz1IxTWk0TCGFiWimCEIXReGR0VEoXG770al/g6rOi/wAJOB4IaoXCG9iVS2//xAAnEAEAAgIBAgYDAQEBAAAAAAABABEhMUFRYRBxkaGx8IHB0fEg4f/aAAgBAQABPxAT7XtPrX6g/wBj2n1r9T75+oK/Y9IABLh/RDL/AAR/UOb8Rjw+kgtN5k/UXwvZHySxuBz8YRMkOEn4n0L9T61+o/VviP2b4j9++Ih9b2jb9z0hBSZQhgOGSe8qUCj/AJdQ+aojWSMJEiYibio5wQJUqcpefbDjOP8Al0w23B4BhKiRII7ggQPAFlTkEuVXAa3Ah/Uc9PXq95ZrQ6n9SjRiBdXXWVIpObRRa/pcTFAX3HyQOSIA4u5ksdQRPBp4CEC/AFQKEZQLYLJUBWlx1s42BmmFvMLzEyICOHepQix3/qOCwdt3zKFfBqh+oqZ/L6dxIIkZymkXPgPF2XLMLstxasE0Uvk9oU5OjKGW3daj86rzvygaFeLLi1hlyDiYvfLTl6K2oj+YhxgJ2LRBuP8A0BDUIPXxgskcjGAxHrKkq7WyOrX2ti4FPAnJ5w3IEPRAJvvdsmmHi2JnPIivuh4Hwco6l5mvgIRd8UekuHOpdCRUGFBqpSDj2QEabVz/AOzq4CN70/MDNvr7plYu8CWw1qy5YqgC3VpzCYBweV85jcWMUUdx649YdqKEFmBQrD8UF0HSxPzMlxZVExy6lwFU1ctFXrB30Q6dlcpi7eIMNsZdFFii3LYer3gdXvAr/Ur/AGiSP8kdoipbdZjPaTZr3myikqipY6jUS4eMJkehCyuIG5tH3geI8XiIMzDGzn0ixF3gICWF1fxGEdK1jvEatIiTRpKzxMDJjuShd0xptzFxc2eyZpeWAtM1EdYw7VKJgfAv+4P/AFBf6lv9QBZLzfaNdXENytovhgw6ZbpeyNjmJqIxcliYwECbRyi8mA9JOiPSL9HmTsTymHwSpDtnDcocjoywNUm4ZBZBcPtLnJBMpcQAqLAM7IwO2IRfTwFRLdS/SHhSuiW6T1pCp9WcKJEdExXCiw46j55TwZlLp1j0x3xLHRGsVwRd6nVhJ2w7J6+mbPIJAKzDyhmg7QeUj3imCrlY15xkJZv5ouWVvkLlIjDZKCrgjQwTLiC2k9E6XrFXAYCtQ5O5XOI/HtG8ASNa/kAPmgJ7Mwx6rPSFmmrtVJKKZPPDlqdFyhvEFECv7yLOLeIUKi61GU8kGrg8FTbR6TBxAxdBAXuSq4gojqqhdyVND5zUKluxTi9zAiVzEq+8KkXXWWDp2ls3BwGfxAS8OaidXr05lXegug3mAuo0jhLVzF1/JS5s8O8BlOBmd9osOCWfqVqSpkWs4XsjtYF3UGpea1EZzaLiFUvA6j5gW1zCY1kCvMRWnynygYiYe0HcTFx6IgsFLM//2Q==;" vertex="1" parent="1">
          <mxGeometry x="436" y="589.5" width="46" height="40" as="geometry"/>
        </mxCell>
        <mxCell id="YbGR8QRvvaodPsiYNmc9-21" value="" style="html=1;shadow=0;dashed=0;align=center;verticalAlign=middle;shape=mxgraph.arrows2.arrow;dy=0.57;dx=13.43;direction=south;notch=0;rounded=1;glass=0;strokeColor=#000099;fillColor=#dae8fc;fontFamily=宋体;" vertex="1" parent="1">
          <mxGeometry x="380" y="858" width="20" height="40" as="geometry"/>
        </mxCell>
        <mxCell id="YbGR8QRvvaodPsiYNmc9-28" value="" style="edgeStyle=segmentEdgeStyle;endArrow=classic;html=1;strokeWidth=2;fontFamily=宋体;fontColor=#FF9999;exitX=0.5;exitY=1;exitDx=0;exitDy=0;entryX=1;entryY=0.5;entryDx=0;entryDy=0;" edge="1" parent="1" source="b2VupkUFswHgS_7RCgm6-12" target="gaeCaFiwkaWdQa8wvfjB-63">
          <mxGeometry width="50" height="50" relative="1" as="geometry">
            <mxPoint x="540" y="890" as="sourcePoint"/>
            <mxPoint x="590" y="840" as="targetPoint"/>
            <Array as="points">
              <mxPoint x="564" y="929"/>
            </Array>
          </mxGeometry>
        </mxCell>
        <mxCell id="YbGR8QRvvaodPsiYNmc9-30" value="" style="edgeStyle=segmentEdgeStyle;endArrow=classic;html=1;strokeWidth=2;fontFamily=宋体;fontColor=#FF9999;exitX=0.5;exitY=1;exitDx=0;exitDy=0;entryX=0;entryY=0.5;entryDx=0;entryDy=0;" edge="1" parent="1" target="gaeCaFiwkaWdQa8wvfjB-63">
          <mxGeometry width="50" height="50" relative="1" as="geometry">
            <mxPoint x="215.32608695652198" y="610.1739130434783" as="sourcePoint"/>
            <mxPoint x="240" y="930" as="targetPoint"/>
            <Array as="points">
              <mxPoint x="215" y="930"/>
            </Array>
          </mxGeometry>
        </mxCell>
      </root>
    </mxGraphModel>
  </diagram>
</mxfile>
